<?xml version="1.0" encoding="utf-8"?>
<!-- Generator: Adobe Illustrator 19.2.1, SVG Export Plug-In . SVG Version: 6.00 Build 0)  -->
<svg version="1.1" id="Livello_1" xmlns="http://www.w3.org/2000/svg" xmlns:xlink="http://www.w3.org/1999/xlink" x="0px" y="0px"
	 viewBox="0 0 311 170" width="311" height="170" style="enable-background:new 0 0 311 170;" xml:space="preserve">
<style type="text/css">
	.st0{fill:#74B0EB;}
	.st1{fill:#8DC4FF;}
	.st2{fill:#4C7DD2;}
	.st3{fill:#945F00;}
	.st4{fill:#FFD231;}
	.st5{fill:#FFEE63;}
	.st6{fill:#FF000E;}
	.st7{fill:#C1000E;}
</style>
<g>
	<g>
		<path class="st0" d="M113.5,42.4v24h42v-66C132.3,0.4,113.5,19.2,113.5,42.4z"/>
		<path class="st1" d="M155.5,0.4v66h1.2h40.8v-24C197.5,19.2,178.7,0.4,155.5,0.4z"/>
	</g>
</g>
<g>
	<path class="st2" d="M166.7,28.2c0,6.3-8.1,14.6-11.4,14.6s-11.4-8.3-11.4-14.6s0.8-11.4,11.4-11.4S166.7,21.9,166.7,28.2z"/>
	<g>
		<path class="st2" d="M155.3,42.8c-7.3,0-7.2,10-9,23.6h17.9C162.4,52.8,162.6,42.8,155.3,42.8z"/>
	</g>
</g>
<path class="st1" d="M154.1,30c0,0,0.8-6.6-6.8-7.4C147.4,22.5,145,30,154.1,30z"/>
<path class="st1" d="M156.4,30c0,0-0.8-6.6,6.8-7.4C163.2,22.5,165.6,30,156.4,30z"/>
<path class="st2" d="M179.5,66.4c0-2.6-2.1-4.8-4.8-4.8c-0.3,0-0.7,0-1,0.1c-0.2-0.1-0.4-0.1-0.6-0.1c-4.5,0-9-10.9-9.5-14.7
	c-0.1-0.9-0.9-1.5-1.8-1.4c-0.9,0.1-1.5,0.9-1.4,1.8c0.2,1.5,3.9,12.6,9.2,16.3c-0.3,0.4-1.3,0.8-2.1,1c-0.4,0.1-0.7,0.5-0.6,1
	c0.1,0.4,0.4,0.6,0.8,0.6c0.1,0,0.1,0,0.2,0c0.3-0.1,1.3-0.4,2.2-0.9c-0.1,0.3-0.1,0.7-0.1,1.1H179.5z"/>
<path class="st2" d="M143,64.7c-0.7-0.2-1.7-0.6-2.1-1c5.2-3.6,8.9-14.8,9.2-16.3c0.1-0.9-0.5-1.7-1.4-1.8c-0.9-0.1-1.7,0.5-1.8,1.4
	c-0.5,3.8-5,14.7-9.5,14.7c-0.2,0-0.4,0-0.6,0.1c-0.3-0.1-0.7-0.1-1-0.1c-2.6,0-4.8,2.1-4.8,4.8h9.5c0-0.4-0.1-0.7-0.1-1.1
	c0.9,0.6,1.9,0.8,2.2,0.9c0.1,0,0.1,0,0.2,0c0.4,0,0.7-0.2,0.8-0.6C143.7,65.2,143.4,64.8,143,64.7z"/>
<path class="st3" d="M201.5,164.6c-2.1,0-4.2-1-5.4-2.9l-6-9c-2-3-1.2-7,1.8-9c3-2,7-1.2,9,1.8l6,9c2,3,1.2,7-1.8,9
	C204,164.3,202.7,164.6,201.5,164.6z"/>
<path class="st3" d="M109.5,164.6c-1.2,0-2.5-0.4-3.6-1.1c-3-2-3.8-6-1.8-9l6-9c2-3,6-3.8,9-1.8c3,2,3.8,6,1.8,9l-6,9
	C113.7,163.6,111.6,164.6,109.5,164.6z"/>
<path class="st3" d="M155.5,169.6c-3.6,0-6.5-2.9-6.5-6.5v-11c0-3.6,2.9-6.5,6.5-6.5s6.5,2.9,6.5,6.5v11
	C162,166.7,159.1,169.6,155.5,169.6z"/>
<g>
	<path class="st4" d="M113.5,66.4c-87.7,0-106,49.4-106,49.4s45.3,36.4,133,36.4h15V66.4H113.5z"/>
	<path class="st5" d="M197.5,66.4h-41h-1v85.7h1h14c87.7,0,133-36.4,133-36.4S285.2,66.4,197.5,66.4z"/>
</g>
<g>
	<path class="st6" d="M303.5,108.7h-148v14h148c3.9,0,7-3.1,7-7S307.4,108.7,303.5,108.7z"/>
</g>
<path class="st7" d="M7.5,108.7c-3.9,0-7,3.1-7,7s3.1,7,7,7h148v-14H7.5z"/>
</svg>
