<?xml version="1.0" encoding="utf-8"?>
<!-- Generator: Adobe Illustrator 19.2.1, SVG Export Plug-In . SVG Version: 6.00 Build 0)  -->
<svg version="1.1" id="Livello_1" xmlns="http://www.w3.org/2000/svg" xmlns:xlink="http://www.w3.org/1999/xlink" x="0px" y="0px"
	 viewBox="0 0 336 249" width="336" height="249" style="enable-background:new 0 0 336 249;" xml:space="preserve">
<style type="text/css">
	.st0{fill:#2C5871;}
	.st1{fill:#A5D9E7;}
	.st2{fill:#85AEBA;}
	.st3{fill:#FDC13D;}
	.st4{fill:#EF344D;}
	.st5{fill:#F9EB2A;}
	.st6{fill:#C0E4EE;}
	.st7{fill:#6C8A9C;}
	.st8{fill:#FFFFFF;}
</style>
<g>
	<rect x="247.8" class="st0" width="2.4" height="232.1"/>
	<polygon class="st1" points="206.6,249 336,249 336,229.9 194.6,229.9 	"/>
	<polygon class="st2" points="304.2,249 336,249 336,229.9 	"/>
	<polygon class="st3" points="250.2,0 250.2,204.1 321.7,204.1 	"/>
	<rect x="320" y="223.6" class="st4" width="12.2" height="6.3"/>
	<g>
		<path class="st5" d="M247.8,32.8c0,0-44.8,33.1-65,79.3c-2.8,6.3-5.1,12.4-6.9,18.3l69.7,69.7C234.2,126.5,247.8,32.8,247.8,32.8z
			"/>
		<path class="st3" d="M175.8,130.4c-16.2,50.4-2.2,82.8-2.2,82.8h74.1c-0.9-4.2-1.6-8.6-2.3-13L175.8,130.4z"/>
	</g>
	<polygon class="st5" points="250.2,108.4 318.9,196.2 321.7,204.1 250.2,204.1 	"/>
	<g>
		<polygon class="st0" points="197.3,234.2 199.6,237.8 199.6,237.8 197.3,234.2 		"/>
		<polygon class="st0" points="336,234.2 244.3,234.2 247.9,237.8 336,237.8 		"/>
		<polygon class="st6" points="206.6,249 259.1,249 247.9,237.8 199.6,237.8 		"/>
		<polygon class="st6" points="240,229.9 194.6,229.9 197.3,234.2 244.3,234.2 		"/>
		<polygon class="st7" points="197.3,234.2 199.6,237.8 247.9,237.8 244.3,234.2 		"/>
	</g>
	<polygon class="st8" points="234.7,229.9 317.3,229.9 317.3,217.4 261.4,217.4 	"/>
	<rect x="296.1" y="221.1" class="st4" width="16.2" height="5.2"/>
	<rect x="269.7" y="221.1" class="st4" width="16.2" height="5.2"/>
</g>
<g>
	<rect x="85.8" y="0" class="st0" width="2.4" height="232.1"/>
	<polygon class="st1" points="129.4,249 0,249 0,229.9 141.4,229.9 	"/>
	<polygon class="st2" points="31.8,249 0,249 0,229.9 	"/>
	<polygon class="st3" points="85.8,0 85.8,204.1 14.3,204.1 	"/>
	<rect x="3.8" y="223.6" class="st4" width="12.2" height="6.3"/>
	<g>
		<path class="st3" d="M90.5,200.1c-0.7,4.4-1.4,8.8-2.3,13C89.1,208.9,89.9,204.5,90.5,200.1L90.5,200.1z"/>
		<path class="st5" d="M153.3,112.1c-20.2-46.2-65-79.3-65-79.3s13.5,93.8,2.3,167.4l69.7-69.7C158.3,124.5,156,118.4,153.3,112.1z"
			/>
		<path class="st3" d="M160.2,130.4l-69.7,69.7c-0.7,4.4-1.4,8.8-2.3,13h74.1C162.4,213.1,176.4,180.7,160.2,130.4z"/>
	</g>
	<polygon class="st5" points="85.8,108.4 17.1,196.2 14.3,204.1 85.8,204.1 	"/>
	<g>
		<polygon class="st0" points="0,234.2 0,237.8 88.1,237.8 91.7,234.2 		"/>
		<polygon class="st0" points="136.4,237.8 136.4,237.8 138.7,234.2 138.7,234.2 		"/>
		<polygon class="st6" points="76.9,249 129.4,249 136.4,237.8 88.1,237.8 		"/>
		<polygon class="st6" points="141.4,229.9 96,229.9 91.7,234.2 138.7,234.2 		"/>
		<polygon class="st7" points="91.7,234.2 88.1,237.8 136.4,237.8 138.7,234.2 		"/>
	</g>
	<polygon class="st8" points="101.3,229.9 18.7,229.9 18.7,217.4 74.6,217.4 	"/>
	<rect x="23.7" y="221.1" class="st4" width="16.2" height="5.2"/>
	<rect x="50.1" y="221.1" class="st4" width="16.2" height="5.2"/>
</g>
</svg>
