<?xml version="1.0" encoding="utf-8"?>
<!-- Generator: Adobe Illustrator 19.2.1, SVG Export Plug-In . SVG Version: 6.00 Build 0)  -->
<svg version="1.1" id="Livello_1" xmlns="http://www.w3.org/2000/svg" xmlns:xlink="http://www.w3.org/1999/xlink" x="0px" y="0px"
	 viewBox="0 0 140 53" width="140" height="53" style="enable-background:new 0 0 140 53;" xml:space="preserve">
<style type="text/css">
	.st0{fill:#FFFFFF;}
</style>
<path class="st0" d="M98.8,41c9.5,0,8.8-10.2,5.5-14.1c-3.5-4.1-8.8-4.9-15-4.5C83.6,8.9,70.4,0,55.6,0c-12,0-22.9,5.7-29.8,15.3
	c-8.6,0.4-19.6,4-23.7,10.6c-3,4.9-4,15.2,5.1,15.2H98.8z"/>
<g>
	<path class="st0" d="M88.9,53c-1.4,0-2.6-1.2-2.6-2.6c0-5.1,3.6-9.2,8.4-10.2c2.9-6.7,9.5-11.1,17-11.1c6,0,11.5,2.8,15,7.6
		c3.4,0.2,6.5,1.6,9,3.9c2.7,2.6,4.2,6,4.3,9.7c0,1.4-1.1,2.6-2.5,2.7c0,0-0.1,0-0.1,0H88.9z"/>
</g>
</svg>
