<?xml version="1.0" encoding="utf-8"?>
<!-- Generator: Adobe Illustrator 19.2.1, SVG Export Plug-In . SVG Version: 6.00 Build 0)  -->
<svg version="1.1" id="Livello_1" xmlns="http://www.w3.org/2000/svg" xmlns:xlink="http://www.w3.org/1999/xlink" x="0px" y="0px"
	 viewBox="0 0 288 93" width="288" height="93" style="enable-background:new 0 0 288 93;" xml:space="preserve">
<style type="text/css">
	.st0{fill:#FFFFFF;}
</style>
<path class="st0" d="M0,41.9c0,0,17.7-8.7,41.8,2.5c0,0,6.7-4.1,15.2-4.6c5.3-0.4,11.2,1,16.6,4.6c0,0-6.4-3.1-15.1-2.3
	c-4.9,0.4-9.8,2.4-16.4,6C42.1,48,19.9,38.8,0,41.9z"/>
<path class="st0" d="M111.2,65.7c0,0,13.6,0.6,28.4,8.1c6.3,3.2,12.4,7.6,18.4,13.7c0,0,13-8.6,32.3-3.6c0,0-18.4-0.8-32.8,9.1
	c0,0-8-6.8-14.8-11.6C135.4,76.1,128.6,72.5,111.2,65.7z"/>
<path class="st0" d="M217,7.5c0,0,5.6-2.8,12.4-5c5.5-1.8,11.9-3.3,16.9-2c3.4,0.8,7.6,6.3,10.9,12.2c3.9,6.9,6.6,14.4,6.6,14.4
	s6.3-11.4,12.2-12.9c3.2-0.8,12,5.3,12,5.3s-6.3-2.9-10.8-3c-2.1,0-4.4,3.6-6.9,8c-3.6,6.1-7.3,13.4-7.3,13.4S251.2,6.9,244.8,4.4
	C238.8,2.1,217,7.5,217,7.5z"/>
</svg>
