<?xml version="1.0" encoding="utf-8"?>
<!-- Generator: Adobe Illustrator 19.2.1, SVG Export Plug-In . SVG Version: 6.00 Build 0)  -->
<svg version="1.1" id="Livello_1" xmlns="http://www.w3.org/2000/svg" xmlns:xlink="http://www.w3.org/1999/xlink" x="0px" y="0px"
	 viewBox="0 0 207 98" width="207" height="98" style="enable-background:new 0 0 207 98;" xml:space="preserve">
<style type="text/css">
	.st0{fill:#FFFFFF;}
</style>
<g>
	<path class="st0" d="M162.7,68.2H6.1C2.8,68.2,0,65.5,0,62c0-7.7,3-15,8.3-20.6C12.7,37,18.2,34,24.2,33C32.4,13.1,51.7,0,73.3,0
		c17.4,0,33.4,8.4,43.4,22.5c12.5,0.5,24,6.8,31.3,17.1C150,42.5,162.7,68.2,162.7,68.2z"/>
	<path class="st0" d="M86.4,98c-3.4,0-6.1-2.8-6.1-6.2c0-12.1,8.4-22.1,19.8-24.4c6.9-16,22.5-26.5,40.2-26.5
		c14.2,0,27.1,6.7,35.4,18.1c8,0.5,15.4,3.7,21.3,9.4c6.4,6.1,10,14.4,10.3,23.3c0.1,3.4-2.6,6.3-6,6.4c-0.1,0-0.1,0-0.2,0H86.4z"/>
</g>
</svg>
