<svg id="Livello_1" data-name="Livello 1" xmlns="http://www.w3.org/2000/svg" viewBox="0 0 79.17 27.54"><defs><style>.cls-1{fill:#fff;}</style></defs><title>bird-2</title><path class="cls-1" d="M330.61,2582.69c2.23,0.27,4.44.67,6.64,1.12l3.28,0.73c1.09,0.25,2.17.55,3.26,0.83s2.17,0.58,3.24.91,2.15,0.66,3.22,1,2.13,0.76,3.2,1.14,2.11,0.83,3.16,1.31,2.09,1,3.13,1.51l0.43,0.22,0.36,0.2,0.73,0.41c0.47,0.26,1,.61,1.49.92,1,0.64,1.93,1.26,2.86,1.92s1.84,1.34,2.74,2c1.8,1.38,3.54,2.8,5.25,4.27s3.36,3,5,4.54l-2.63-.31c1.32-.68,2.61-1.28,3.93-1.87s2.66-1.15,4-1.66a38.15,38.15,0,0,1,4.23-1.37,19.11,19.11,0,0,1,2.31-.45l2.15-.19c1.47-.1,2.91-0.18,4.35-0.2s2.89,0,4.32.12,2.87,0.23,4.29.43a33.37,33.37,0,0,1,4.21.84c-1.43,0-2.84.06-4.25,0.14s-2.81.24-4.21,0.37-2.78.35-4.16,0.57-2.75.46-4.09,0.72l-2.05.45c-0.59.16-1.2,0.34-1.81,0.58-1.23.46-2.48,1-3.72,1.62s-2.47,1.23-3.7,1.88-2.45,1.34-3.63,2l-1.34.76-1.28-1.08c-1.66-1.39-3.36-2.81-5.06-4.19l-2.56-2.06-2.58-2c-0.86-.67-1.72-1.33-2.6-2s-1.75-1.29-2.61-1.87c-0.44-.29-0.83-0.58-1.31-0.88l-0.7-.45-0.35-.23-0.3-.18c-0.9-.54-1.83-1.06-2.79-1.56s-1.92-1-2.89-1.48-2-1-3-1.41c-2-.94-4-1.83-6-2.75l-6.09-2.68c-1-.43-2-0.91-3.06-1.36S331.63,2583.16,330.61,2582.69Z" transform="translate(-330.61 -2582.69)"/></svg>