<svg id="Livello_1" data-name="Livello 1" xmlns="http://www.w3.org/2000/svg" viewBox="0 0 73.74 9.38"><defs><style>.cls-1{fill:#fff;}</style></defs><title>bird-1</title><path class="cls-1" d="M219.42,2559.58a41.69,41.69,0,0,1,5.2-1.63,54.19,54.19,0,0,1,5.37-1c0.91-.13,1.81-0.25,2.73-0.33s1.83-.13,2.75-0.18,1.84,0,2.77-.05,1.85,0.05,2.78.11,1.85,0.16,2.77.3,1.85,0.26,2.77.45,1.84,0.42,2.7.64,1.77,0.48,2.65.74c1.76,0.5,3.47,1.11,5.18,1.72s3.4,1.24,5.09,2l-1.32,0c2.59-1.05,5.14-2.1,7.8-3,1.32-.45,2.65-0.88,4-1.26a18.15,18.15,0,0,1,2.17-.48c0.83-.08,1.38-0.13,2.16-0.15a21.86,21.86,0,0,1,2.2.06c0.72,0,1.43.13,2.13,0.23s1.4,0.26,2.09.4,1.37,0.33,2,.54a33.62,33.62,0,0,1,3.95,1.41,30.84,30.84,0,0,1,3.73,1.85c-1.31-.45-2.64-0.8-4-1.14s-2.67-.58-4-0.79a32.66,32.66,0,0,0-4-.38c-0.67,0-1.33,0-2,0s-1.3.08-1.92,0.14-1.41.22-1.94,0.33-1.2.33-1.82,0.56c-1.25.44-2.51,1-3.76,1.48-2.49,1.09-5,2.17-7.47,3.32l-0.59.28-0.73-.25-5-1.71-5.07-1.64c-0.84-.27-1.69-0.53-2.53-0.77s-1.63-.45-2.53-0.68-1.68-.38-2.53-0.57-1.71-.28-2.57-0.43l-2.6-.31c-0.87-.07-1.74-0.18-2.62-0.21-1.76-.09-3.52-0.16-5.3-0.15-0.89,0-1.78,0-2.67,0s-1.78.06-2.68,0.12C223,2559.25,221.22,2559.39,219.42,2559.58Z" transform="translate(-219.42 -2556.34)"/></svg>