<?xml version="1.0" encoding="utf-8"?>
<!-- Generator: Adobe Illustrator 19.2.1, SVG Export Plug-In . SVG Version: 6.00 Build 0)  -->
<svg version="1.1" id="Livello_1" xmlns="http://www.w3.org/2000/svg" xmlns:xlink="http://www.w3.org/1999/xlink" x="0px" y="0px"
	 viewBox="0 0 594 103" width="594" height="103" style="enable-background:new 0 0 594 103;" xml:space="preserve">
<style type="text/css">
	.st0{fill:#2B4125;}
	.st1{fill:#9DA04E;}
	.st2{fill:#2A3D22;}
	.st3{fill:#25371F;}
	.st4{fill:#EC881B;}
	.st5{fill:#E55F1C;}
	.st6{fill:#E9AB21;}
	.st7{fill:#EC8B1B;}
	.st8{fill:#DE1922;}
	.st9{fill:#B1151A;}
	.st10{fill:#2B3D23;}
	.st11{fill:#2B4226;}
	.st12{fill:#F0B957;}
	.st13{fill:#9AA44E;}
	.st14{fill:#9D9D4D;}
	.st15{fill:#769548;}
	.st16{fill:#FFFFFF;}
	.st17{fill:#C4A74F;}
	.st18{fill:#809A49;}
	.st19{fill:#DE1B22;}
	.st20{fill:#EFB355;}
	.st21{fill:#2B3F24;}
	.st22{fill:#4F6439;}
	.st23{fill:#135A30;}
	.st24{fill:#366C37;}
	.st25{fill:#B98419;}
	.st26{fill:#E8A520;}
	.st27{fill:#B11219;}
	.st28{fill:#DC1320;}
	.st29{fill:#B1131A;}
	.st30{fill:#DD1821;}
	.st31{fill:#F0BB59;}
	.st32{fill:#9AA64E;}
	.st33{fill:#929548;}
	.st34{fill:#6E743A;}
	.st35{fill:#AEA54E;}
	.st36{fill:#B1171B;}
	.st37{fill:#23351E;}
</style>
<g>
	<g>
		<g>
			<g>
				<rect x="356.2" y="62.4" class="st0" width="54" height="17.3"/>
				<rect x="357.1" y="63.2" class="st1" width="0.9" height="15.6"/>
				<rect x="358.8" y="63.2" class="st1" width="0.9" height="15.6"/>
				<rect x="360.5" y="63.2" class="st1" width="0.9" height="15.6"/>
				<rect x="362.2" y="63.2" class="st1" width="0.9" height="15.6"/>
				<rect x="363.9" y="63.2" class="st1" width="0.9" height="15.6"/>
				<rect x="365.6" y="63.2" class="st1" width="0.9" height="15.6"/>
				<rect x="367.3" y="63.2" class="st1" width="0.9" height="15.6"/>
				<rect x="369.1" y="63.2" class="st1" width="0.9" height="15.6"/>
				<rect x="370.8" y="63.2" class="st1" width="0.9" height="15.6"/>
				<rect x="372.5" y="63.2" class="st1" width="0.9" height="15.6"/>
				<rect x="374.2" y="63.2" class="st1" width="0.9" height="15.6"/>
				<rect x="375.9" y="63.2" class="st1" width="0.9" height="15.6"/>
				<rect x="377.6" y="63.2" class="st1" width="0.9" height="15.6"/>
				<rect x="379.4" y="63.2" class="st1" width="0.9" height="15.6"/>
				<rect x="381.1" y="63.2" class="st1" width="0.9" height="15.6"/>
				<rect x="382.8" y="63.2" class="st1" width="0.9" height="15.6"/>
				<rect x="384.5" y="63.2" class="st1" width="0.9" height="15.6"/>
				<rect x="386.2" y="63.2" class="st1" width="0.9" height="15.6"/>
				<rect x="387.9" y="63.2" class="st1" width="0.9" height="15.6"/>
				<rect x="389.7" y="63.2" class="st1" width="0.9" height="15.6"/>
				<rect x="391.4" y="63.2" class="st1" width="0.9" height="15.6"/>
				<rect x="393.1" y="63.2" class="st1" width="0.9" height="15.6"/>
				<rect x="394.8" y="63.2" class="st1" width="0.9" height="15.6"/>
				<rect x="396.5" y="63.2" class="st1" width="0.9" height="15.6"/>
				<rect x="398.2" y="63.2" class="st1" width="0.9" height="15.6"/>
				<rect x="399.9" y="63.2" class="st1" width="0.9" height="15.6"/>
				<rect x="401.7" y="63.2" class="st1" width="0.9" height="15.6"/>
				<rect x="403.4" y="63.2" class="st1" width="0.9" height="15.6"/>
				<rect x="405.1" y="63.2" class="st1" width="0.9" height="15.6"/>
				<rect x="406.8" y="63.2" class="st1" width="0.9" height="15.6"/>
				<rect x="408.5" y="63.2" class="st1" width="0.9" height="15.6"/>
			</g>
			<g>
				<rect x="437.3" y="50" class="st2" width="54" height="12.4"/>
				<rect x="438.1" y="50.9" class="st3" width="0.9" height="10.7"/>
				<rect x="439.8" y="50.9" class="st3" width="0.9" height="10.7"/>
				<rect x="441.6" y="50.9" class="st3" width="0.9" height="10.7"/>
				<rect x="443.3" y="50.9" class="st3" width="0.9" height="10.7"/>
				<rect x="445" y="50.9" class="st3" width="0.9" height="10.7"/>
				<rect x="446.7" y="50.9" class="st3" width="0.9" height="10.7"/>
				<rect x="448.4" y="50.9" class="st3" width="0.9" height="10.7"/>
				<rect x="450.1" y="50.9" class="st3" width="0.9" height="10.7"/>
				<rect x="451.8" y="50.9" class="st3" width="0.9" height="10.7"/>
				<rect x="453.6" y="50.9" class="st3" width="0.9" height="10.7"/>
				<rect x="455.3" y="50.9" class="st3" width="0.9" height="10.7"/>
				<rect x="457" y="50.9" class="st3" width="0.9" height="10.7"/>
				<rect x="458.7" y="50.9" class="st3" width="0.9" height="10.7"/>
				<rect x="460.4" y="50.9" class="st3" width="0.9" height="10.7"/>
				<rect x="462.1" y="50.9" class="st3" width="0.9" height="10.7"/>
				<rect x="463.9" y="50.9" class="st3" width="0.9" height="10.7"/>
				<rect x="465.6" y="50.9" class="st3" width="0.9" height="10.7"/>
				<rect x="467.3" y="50.9" class="st3" width="0.9" height="10.7"/>
				<rect x="469" y="50.9" class="st3" width="0.9" height="10.7"/>
				<rect x="470.7" y="50.9" class="st3" width="0.9" height="10.7"/>
				<rect x="472.4" y="50.9" class="st3" width="0.9" height="10.7"/>
				<rect x="474.2" y="50.9" class="st3" width="0.9" height="10.7"/>
				<rect x="475.9" y="50.9" class="st3" width="0.9" height="10.7"/>
				<rect x="477.6" y="50.9" class="st3" width="0.9" height="10.7"/>
				<rect x="479.3" y="50.9" class="st3" width="0.9" height="10.7"/>
				<rect x="481" y="50.9" class="st3" width="0.9" height="10.7"/>
				<rect x="482.7" y="50.9" class="st3" width="0.9" height="10.7"/>
				<rect x="484.4" y="50.9" class="st3" width="0.9" height="10.7"/>
				<rect x="486.2" y="50.9" class="st3" width="0.9" height="10.7"/>
				<rect x="487.9" y="50.9" class="st3" width="0.9" height="10.7"/>
				<rect x="489.6" y="50.9" class="st3" width="0.9" height="10.7"/>
			</g>
			<g>
				<rect x="383.2" y="50" class="st4" width="54" height="12.4"/>
				<rect x="384.1" y="50.9" class="st5" width="0.9" height="10.7"/>
				<rect x="385.8" y="50.9" class="st5" width="0.9" height="10.7"/>
				<rect x="387.5" y="50.9" class="st5" width="0.9" height="10.7"/>
				<rect x="389.2" y="50.9" class="st5" width="0.9" height="10.7"/>
				<rect x="390.9" y="50.9" class="st5" width="0.9" height="10.7"/>
				<rect x="392.7" y="50.9" class="st5" width="0.9" height="10.7"/>
				<rect x="394.4" y="50.9" class="st5" width="0.9" height="10.7"/>
				<rect x="396.1" y="50.9" class="st5" width="0.9" height="10.7"/>
				<rect x="397.8" y="50.9" class="st5" width="0.9" height="10.7"/>
				<rect x="399.5" y="50.9" class="st5" width="0.9" height="10.7"/>
				<rect x="401.2" y="50.9" class="st5" width="0.9" height="10.7"/>
				<rect x="402.9" y="50.9" class="st5" width="0.9" height="10.7"/>
				<rect x="404.7" y="50.9" class="st5" width="0.9" height="10.7"/>
				<rect x="406.4" y="50.9" class="st5" width="0.9" height="10.7"/>
				<rect x="408.1" y="50.9" class="st5" width="0.9" height="10.7"/>
				<rect x="409.8" y="50.9" class="st5" width="0.9" height="10.7"/>
				<rect x="411.5" y="50.9" class="st5" width="0.9" height="10.7"/>
				<rect x="413.2" y="50.9" class="st5" width="0.9" height="10.7"/>
				<rect x="415" y="50.9" class="st5" width="0.9" height="10.7"/>
				<rect x="416.7" y="50.9" class="st5" width="0.9" height="10.7"/>
				<rect x="418.4" y="50.9" class="st5" width="0.9" height="10.7"/>
				<rect x="420.1" y="50.9" class="st5" width="0.9" height="10.7"/>
				<rect x="421.8" y="50.9" class="st5" width="0.9" height="10.7"/>
				<rect x="423.5" y="50.9" class="st5" width="0.9" height="10.7"/>
				<rect x="425.3" y="50.9" class="st5" width="0.9" height="10.7"/>
				<rect x="427" y="50.9" class="st5" width="0.9" height="10.7"/>
				<rect x="428.7" y="50.9" class="st5" width="0.9" height="10.7"/>
				<rect x="430.4" y="50.9" class="st5" width="0.9" height="10.7"/>
				<rect x="432.1" y="50.9" class="st5" width="0.9" height="10.7"/>
				<rect x="433.8" y="50.9" class="st5" width="0.9" height="10.7"/>
				<rect x="435.5" y="50.9" class="st5" width="0.9" height="10.7"/>
			</g>
			<g>
				<rect x="410.2" y="62.4" class="st6" width="54" height="17.3"/>
				<rect x="411.1" y="63.2" class="st7" width="0.9" height="15.6"/>
				<rect x="412.8" y="63.2" class="st7" width="0.9" height="15.6"/>
				<rect x="414.5" y="63.2" class="st7" width="0.9" height="15.6"/>
				<rect x="416.2" y="63.2" class="st7" width="0.9" height="15.6"/>
				<rect x="418" y="63.2" class="st7" width="0.9" height="15.6"/>
				<rect x="419.7" y="63.2" class="st7" width="0.9" height="15.6"/>
				<rect x="421.4" y="63.2" class="st7" width="0.9" height="15.6"/>
				<rect x="423.1" y="63.2" class="st7" width="0.9" height="15.6"/>
				<rect x="424.8" y="63.2" class="st7" width="0.9" height="15.6"/>
				<rect x="426.5" y="63.2" class="st7" width="0.9" height="15.6"/>
				<rect x="428.3" y="63.2" class="st7" width="0.9" height="15.6"/>
				<rect x="430" y="63.2" class="st7" width="0.9" height="15.6"/>
				<rect x="431.7" y="63.2" class="st7" width="0.9" height="15.6"/>
				<rect x="433.4" y="63.2" class="st7" width="0.9" height="15.6"/>
				<rect x="435.1" y="63.2" class="st7" width="0.9" height="15.6"/>
				<rect x="436.8" y="63.2" class="st7" width="0.9" height="15.6"/>
				<rect x="438.6" y="63.2" class="st7" width="0.9" height="15.6"/>
				<rect x="440.3" y="63.2" class="st7" width="0.9" height="15.6"/>
				<rect x="442" y="63.2" class="st7" width="0.9" height="15.6"/>
				<rect x="443.7" y="63.2" class="st7" width="0.9" height="15.6"/>
				<rect x="445.4" y="63.2" class="st7" width="0.9" height="15.6"/>
				<rect x="447.1" y="63.2" class="st7" width="0.9" height="15.6"/>
				<rect x="448.8" y="63.2" class="st7" width="0.9" height="15.6"/>
				<rect x="450.6" y="63.2" class="st7" width="0.9" height="15.6"/>
				<rect x="452.3" y="63.2" class="st7" width="0.9" height="15.6"/>
				<rect x="454" y="63.2" class="st7" width="0.9" height="15.6"/>
				<rect x="455.7" y="63.2" class="st7" width="0.9" height="15.6"/>
				<rect x="457.4" y="63.2" class="st7" width="0.9" height="15.6"/>
				<rect x="459.1" y="63.2" class="st7" width="0.9" height="15.6"/>
				<rect x="460.9" y="63.2" class="st7" width="0.9" height="15.6"/>
				<rect x="462.6" y="63.2" class="st7" width="0.9" height="15.6"/>
			</g>
			<g>
				<rect x="464.3" y="62.4" class="st8" width="54" height="17.3"/>
				<rect x="465.1" y="63.2" class="st9" width="0.9" height="15.6"/>
				<rect x="466.9" y="63.2" class="st9" width="0.9" height="15.6"/>
				<rect x="468.6" y="63.2" class="st9" width="0.9" height="15.6"/>
				<rect x="470.3" y="63.2" class="st9" width="0.9" height="15.6"/>
				<rect x="472" y="63.2" class="st9" width="0.9" height="15.6"/>
				<rect x="473.7" y="63.2" class="st9" width="0.9" height="15.6"/>
				<rect x="475.4" y="63.2" class="st9" width="0.9" height="15.6"/>
				<rect x="477.2" y="63.2" class="st9" width="0.9" height="15.6"/>
				<rect x="478.9" y="63.2" class="st9" width="0.9" height="15.6"/>
				<rect x="480.6" y="63.2" class="st9" width="0.9" height="15.6"/>
				<rect x="482.3" y="63.2" class="st9" width="0.9" height="15.6"/>
				<rect x="484" y="63.2" class="st9" width="0.9" height="15.6"/>
				<rect x="485.7" y="63.2" class="st9" width="0.9" height="15.6"/>
				<rect x="487.4" y="63.2" class="st9" width="0.9" height="15.6"/>
				<rect x="489.2" y="63.2" class="st9" width="0.9" height="15.6"/>
				<rect x="490.9" y="63.2" class="st9" width="0.9" height="15.6"/>
				<rect x="492.6" y="63.2" class="st9" width="0.9" height="15.6"/>
				<rect x="494.3" y="63.2" class="st9" width="0.9" height="15.6"/>
				<rect x="496" y="63.2" class="st9" width="0.9" height="15.6"/>
				<rect x="497.7" y="63.2" class="st9" width="0.9" height="15.6"/>
				<rect x="499.5" y="63.2" class="st9" width="0.9" height="15.6"/>
				<rect x="501.2" y="63.2" class="st9" width="0.9" height="15.6"/>
				<rect x="502.9" y="63.2" class="st9" width="0.9" height="15.6"/>
				<rect x="504.6" y="63.2" class="st9" width="0.9" height="15.6"/>
				<rect x="506.3" y="63.2" class="st9" width="0.9" height="15.6"/>
				<rect x="508" y="63.2" class="st9" width="0.9" height="15.6"/>
				<rect x="509.8" y="63.2" class="st9" width="0.9" height="15.6"/>
				<rect x="511.5" y="63.2" class="st9" width="0.9" height="15.6"/>
				<rect x="513.2" y="63.2" class="st9" width="0.9" height="15.6"/>
				<rect x="514.9" y="63.2" class="st9" width="0.9" height="15.6"/>
				<rect x="516.6" y="63.2" class="st9" width="0.9" height="15.6"/>
			</g>
		</g>
		<rect x="316" y="31.6" class="st10" width="1" height="24.7"/>
		<path class="st11" d="M530.2,64.9c-1.3,2-4.7,6.5-8.1,6.5c-4.3,0-185-2.2-185-2.2l-10-13.3L297,52.1l24.8,50.9H580l7.2-16.7
			l6.7-21.4H530.2z"/>
		<rect x="535.4" y="57.8" class="st12" width="50.2" height="7.1"/>
		<polygon class="st13" points="585.6,64.9 577.2,64.9 585.6,57.8 		"/>
		<polygon class="st14" points="583.1,51.8 538.5,51.8 538.5,57.8 588.7,57.8 		"/>
		<polygon class="st15" points="583.1,51.8 572.8,57.8 588.7,57.8 		"/>
		<polygon class="st10" points="554.6,20.3 566.4,20.3 566.4,32.7 563.7,32.7 563.7,22.3 		"/>
		<polygon class="st16" points="560.5,25.8 574.3,29.5 583.1,51.8 560.5,51.8 		"/>
		<polygon class="st17" points="560.5,25.8 574.3,29.5 583.1,51.8 560.5,51.8 		"/>
		<polygon class="st18" points="574.3,29.5 583.1,51.8 571.3,51.8 		"/>
		<polygon class="st19" points="321.8,103 580,103 587.3,86.3 311.2,81.1 		"/>
		<polygon class="st20" points="527.3,37 528.9,41.3 563.6,41.3 563.6,48.3 531.6,48.3 532.9,51.8 571.3,51.8 571.3,37 		"/>
		<polygon class="st21" points="533.4,48.3 563.6,48.3 563.6,41.3 530.7,41.3 		"/>
		<polygon class="st22" points="532.3,41.3 534.9,48.3 540.2,48.3 537.5,41.3 		"/>
		<polygon class="st22" points="538.2,41.3 540.9,48.3 541.9,48.3 539.3,41.3 		"/>
		<rect x="548.1" y="40.5" class="st12" width="1.7" height="8.4"/>
		<g>
			<rect x="537.2" y="59.8" class="st10" width="4.3" height="2.7"/>
			<rect x="543.8" y="59.8" class="st10" width="4.3" height="2.7"/>
			<rect x="550.5" y="59.8" class="st10" width="4.3" height="5.1"/>
			<rect x="557.2" y="59.8" class="st10" width="4.3" height="2.7"/>
			<rect x="563.9" y="59.8" class="st10" width="4.3" height="2.7"/>
			<rect x="570.6" y="59.8" class="st10" width="4.3" height="2.7"/>
		</g>
		<g>
			<rect x="540.6" y="53.7" class="st10" width="2.1" height="2.1"/>
			<rect x="544.6" y="53.7" class="st10" width="2.1" height="2.1"/>
			<rect x="548.7" y="53.7" class="st10" width="2.1" height="2.1"/>
			<rect x="552.7" y="53.7" class="st10" width="2.1" height="2.1"/>
			<rect x="556.7" y="53.7" class="st10" width="2.1" height="2.1"/>
			<rect x="560.8" y="53.7" class="st10" width="2.1" height="2.1"/>
			<rect x="564.8" y="53.7" class="st10" width="2.1" height="2.1"/>
			<rect x="568.9" y="53.7" class="st10" width="2.1" height="2.1"/>
			<rect x="572.9" y="53.7" class="st10" width="2.1" height="2.1"/>
		</g>
		<rect x="564.3" class="st10" width="1" height="20.3"/>
		<rect x="557.2" y="16.2" class="st10" width="1" height="4.1"/>
		<rect x="529.3" y="32.9" class="st10" width="1" height="4.1"/>
		<rect x="531.4" y="32.9" class="st10" width="1" height="4.1"/>
		<rect x="533.5" y="32.9" class="st10" width="1" height="4.1"/>
		<rect x="559.3" y="17.4" class="st10" width="1" height="2.8"/>
		<rect x="561.1" y="17.4" class="st10" width="1" height="2.8"/>
		<rect x="554.9" y="15.8" class="st10" width="5.6" height="0.4"/>
		<polygon class="st23" points="557.7,37 543.9,37 549.3,33.8 557.7,33.8 		"/>
		<polygon class="st24" points="552.7,37 543.9,37 549.3,33.8 		"/>
		<g>
			<polygon class="st25" points="316.9,38.9 328.2,38.9 316.9,35.9 			"/>
			<polygon class="st26" points="316.9,35.9 328.2,35.9 316.9,38.9 			"/>
		</g>
		<g>
			<polygon class="st27" points="565.3,3 576.5,3 565.3,0 			"/>
			<polygon class="st28" points="565.3,0 576.5,0 565.3,3 			"/>
		</g>
		<g>
			<polygon class="st29" points="316.9,43.3 328.2,43.3 316.9,40.3 			"/>
			<polygon class="st30" points="316.9,40.3 328.2,40.3 316.9,43.3 			"/>
		</g>
		<g>
			<g>
				<g>
					<g>
						<path class="st31" d="M566.8,72.6c-0.8-0.8-0.8-2.2,0-3c0.8-0.8,2.2-0.8,3,0c0.8,0.8,0.8,2.2,0,3
							C569,73.4,567.6,73.4,566.8,72.6z M569.1,70.3c-0.4-0.4-1.1-0.4-1.5,0c-0.4,0.4-0.4,1.1,0,1.5c0.4,0.4,1.1,0.4,1.5,0
							C569.5,71.4,569.5,70.7,569.1,70.3z"/>
					</g>
				</g>
				<path class="st32" d="M569.1,71.8c-0.4,0.4-1.1,0.4-1.5,0l-0.7,0.7c0.8,0.8,2.2,0.8,3,0c0.8-0.8,0.8-2.2,0-3l-0.7,0.7
					C569.5,70.7,569.5,71.4,569.1,71.8z"/>
			</g>
			<g>
				<g>
					<g>
						<path class="st31" d="M573.4,72.6c-0.8-0.8-0.8-2.2,0-3c0.8-0.8,2.2-0.8,3,0c0.8,0.8,0.8,2.2,0,3
							C575.5,73.4,574.2,73.4,573.4,72.6z M575.6,70.3c-0.4-0.4-1.1-0.4-1.5,0s-0.4,1.1,0,1.5c0.4,0.4,1.1,0.4,1.5,0
							C576.1,71.4,576.1,70.7,575.6,70.3z"/>
					</g>
				</g>
				<path class="st32" d="M575.6,71.8c-0.4,0.4-1.1,0.4-1.5,0l-0.7,0.7c0.8,0.8,2.2,0.8,3,0c0.8-0.8,0.8-2.2,0-3l-0.7,0.7
					C576.1,70.7,576.1,71.4,575.6,71.8z"/>
			</g>
			<g>
				<g>
					<g>
						<path class="st31" d="M580,72.6c-0.8-0.8-0.8-2.2,0-3c0.8-0.8,2.2-0.8,3,0c0.8,0.8,0.8,2.2,0,3
							C582.1,73.4,580.8,73.4,580,72.6z M582.2,70.3c-0.4-0.4-1.1-0.4-1.5,0c-0.4,0.4-0.4,1.1,0,1.5c0.4,0.4,1.1,0.4,1.5,0
							C582.6,71.4,582.6,70.7,582.2,70.3z"/>
					</g>
				</g>
				<path class="st32" d="M582.2,71.8c-0.4,0.4-1.1,0.4-1.5,0l-0.7,0.7c0.8,0.8,2.2,0.8,3,0c0.8-0.8,0.8-2.2,0-3l-0.7,0.7
					C582.6,70.7,582.6,71.4,582.2,71.8z"/>
			</g>
		</g>
		<g>
			<g>
				
					<ellipse transform="matrix(0.7063 -0.7079 0.7079 0.7063 109.8948 400.1798)" class="st33" cx="537.3" cy="67.6" rx="0.8" ry="0.8"/>
				<path class="st34" d="M537.8,67.1L537.8,67.1l-1.2,1.2l0,0c0.3,0.3,0.8,0.3,1.2,0C538.2,67.9,538.2,67.4,537.8,67.1z"/>
			</g>
			<g>
				
					<ellipse transform="matrix(0.7064 -0.7079 0.7079 0.7064 110.6684 402.0546)" class="st33" cx="539.9" cy="67.6" rx="0.8" ry="0.8"/>
				<path class="st34" d="M540.5,67.1L540.5,67.1l-1.2,1.2l0,0c0.3,0.3,0.8,0.3,1.2,0C540.8,67.9,540.8,67.4,540.5,67.1z"/>
			</g>
			<g>
				
					<ellipse transform="matrix(0.7062 -0.708 0.708 0.7062 111.5394 404.0543)" class="st33" cx="542.6" cy="67.6" rx="0.8" ry="0.8"/>
				<path class="st34" d="M543.2,67.1L543.2,67.1l-1.2,1.2l0,0c0.3,0.3,0.8,0.3,1.2,0C543.5,67.9,543.5,67.4,543.2,67.1z"/>
			</g>
			<g>
				
					<ellipse transform="matrix(0.7065 -0.7077 0.7077 0.7065 112.1533 405.7247)" class="st33" cx="545.3" cy="67.6" rx="0.8" ry="0.8"/>
				<path class="st34" d="M545.8,67.1L545.8,67.1l-1.2,1.2l0,0c0.3,0.3,0.8,0.3,1.2,0C546.2,67.9,546.2,67.4,545.8,67.1z"/>
			</g>
		</g>
		<polygon class="st35" points="571.3,51.8 571.3,37 562.1,51.8 		"/>
	</g>
	<g>
		<polygon class="st36" points="574.9,86.1 535.8,103 553.8,103 587.3,86.3 574.9,86.1 		"/>
		<polygon class="st37" points="574.9,86.1 587.3,86.3 594,64.9 		"/>
	</g>
	<g>
		
			<ellipse transform="matrix(0.7065 -0.7077 0.7077 0.7065 50.368 238.9957)" class="st33" cx="313.3" cy="58.8" rx="1.4" ry="1.4"/>
		<path class="st34" d="M314.3,57.8L314.3,57.8l-2,2l0,0c0.5,0.5,1.4,0.5,2,0C314.9,59.2,314.9,58.3,314.3,57.8z"/>
	</g>
	<g>
		
			<ellipse transform="matrix(0.7065 -0.7077 0.7077 0.7065 51.7108 242.2336)" class="st33" cx="317.9" cy="58.8" rx="1.4" ry="1.4"/>
		<path class="st34" d="M318.9,57.8L318.9,57.8l-2,2l0,0c0.5,0.5,1.4,0.5,2,0C319.5,59.2,319.5,58.3,318.9,57.8z"/>
	</g>
</g>
<g>
	<g>
		<g>
			<g>
				<rect x="183.8" y="62.4" class="st0" width="54" height="17.3"/>
				<rect x="236.1" y="63.2" class="st1" width="0.9" height="15.6"/>
				<rect x="234.4" y="63.2" class="st1" width="0.9" height="15.6"/>
				<rect x="232.7" y="63.2" class="st1" width="0.9" height="15.6"/>
				<rect x="230.9" y="63.2" class="st1" width="0.9" height="15.6"/>
				<rect x="229.2" y="63.2" class="st1" width="0.9" height="15.6"/>
				<rect x="227.5" y="63.2" class="st1" width="0.9" height="15.6"/>
				<rect x="225.8" y="63.2" class="st1" width="0.9" height="15.6"/>
				<rect x="224.1" y="63.2" class="st1" width="0.9" height="15.6"/>
				<rect x="222.4" y="63.2" class="st1" width="0.9" height="15.6"/>
				<rect x="220.6" y="63.2" class="st1" width="0.9" height="15.6"/>
				<rect x="218.9" y="63.2" class="st1" width="0.9" height="15.6"/>
				<rect x="217.2" y="63.2" class="st1" width="0.9" height="15.6"/>
				<rect x="215.5" y="63.2" class="st1" width="0.9" height="15.6"/>
				<rect x="213.8" y="63.2" class="st1" width="0.9" height="15.6"/>
				<rect x="212.1" y="63.2" class="st1" width="0.9" height="15.6"/>
				<rect x="210.4" y="63.2" class="st1" width="0.9" height="15.6"/>
				<rect x="208.6" y="63.2" class="st1" width="0.9" height="15.6"/>
				<rect x="206.9" y="63.2" class="st1" width="0.9" height="15.6"/>
				<rect x="205.2" y="63.2" class="st1" width="0.9" height="15.6"/>
				<rect x="203.5" y="63.2" class="st1" width="0.9" height="15.6"/>
				<rect x="201.8" y="63.2" class="st1" width="0.9" height="15.6"/>
				<rect x="200.1" y="63.2" class="st1" width="0.9" height="15.6"/>
				<rect x="198.3" y="63.2" class="st1" width="0.9" height="15.6"/>
				<rect x="196.6" y="63.2" class="st1" width="0.9" height="15.6"/>
				<rect x="194.9" y="63.2" class="st1" width="0.9" height="15.6"/>
				<rect x="193.2" y="63.2" class="st1" width="0.9" height="15.6"/>
				<rect x="191.5" y="63.2" class="st1" width="0.9" height="15.6"/>
				<rect x="189.8" y="63.2" class="st1" width="0.9" height="15.6"/>
				<rect x="188" y="63.2" class="st1" width="0.9" height="15.6"/>
				<rect x="186.3" y="63.2" class="st1" width="0.9" height="15.6"/>
				<rect x="184.6" y="63.2" class="st1" width="0.9" height="15.6"/>
			</g>
			<g>
				<rect x="102.7" y="50" class="st2" width="54" height="12.4"/>
				<rect x="155" y="50.9" class="st3" width="0.9" height="10.7"/>
				<rect x="153.3" y="50.9" class="st3" width="0.9" height="10.7"/>
				<rect x="151.6" y="50.9" class="st3" width="0.9" height="10.7"/>
				<rect x="149.9" y="50.9" class="st3" width="0.9" height="10.7"/>
				<rect x="148.2" y="50.9" class="st3" width="0.9" height="10.7"/>
				<rect x="146.4" y="50.9" class="st3" width="0.9" height="10.7"/>
				<rect x="144.7" y="50.9" class="st3" width="0.9" height="10.7"/>
				<rect x="143" y="50.9" class="st3" width="0.9" height="10.7"/>
				<rect x="141.3" y="50.9" class="st3" width="0.9" height="10.7"/>
				<rect x="139.6" y="50.9" class="st3" width="0.9" height="10.7"/>
				<rect x="137.9" y="50.9" class="st3" width="0.9" height="10.7"/>
				<rect x="136.1" y="50.9" class="st3" width="0.9" height="10.7"/>
				<rect x="134.4" y="50.9" class="st3" width="0.9" height="10.7"/>
				<rect x="132.7" y="50.9" class="st3" width="0.9" height="10.7"/>
				<rect x="131" y="50.9" class="st3" width="0.9" height="10.7"/>
				<rect x="129.3" y="50.9" class="st3" width="0.9" height="10.7"/>
				<rect x="127.6" y="50.9" class="st3" width="0.9" height="10.7"/>
				<rect x="125.9" y="50.9" class="st3" width="0.9" height="10.7"/>
				<rect x="124.1" y="50.9" class="st3" width="0.9" height="10.7"/>
				<rect x="122.4" y="50.9" class="st3" width="0.9" height="10.7"/>
				<rect x="120.7" y="50.9" class="st3" width="0.9" height="10.7"/>
				<rect x="119" y="50.9" class="st3" width="0.9" height="10.7"/>
				<rect x="117.3" y="50.9" class="st3" width="0.9" height="10.7"/>
				<rect x="115.6" y="50.9" class="st3" width="0.9" height="10.7"/>
				<rect x="113.8" y="50.9" class="st3" width="0.9" height="10.7"/>
				<rect x="112.1" y="50.9" class="st3" width="0.9" height="10.7"/>
				<rect x="110.4" y="50.9" class="st3" width="0.9" height="10.7"/>
				<rect x="108.7" y="50.9" class="st3" width="0.9" height="10.7"/>
				<rect x="107" y="50.9" class="st3" width="0.9" height="10.7"/>
				<rect x="105.3" y="50.9" class="st3" width="0.9" height="10.7"/>
				<rect x="103.5" y="50.9" class="st3" width="0.9" height="10.7"/>
			</g>
			<g>
				<rect x="156.7" y="50" class="st4" width="54" height="12.4"/>
				<rect x="209.1" y="50.9" class="st5" width="0.9" height="10.7"/>
				<rect x="207.4" y="50.9" class="st5" width="0.9" height="10.7"/>
				<rect x="205.6" y="50.9" class="st5" width="0.9" height="10.7"/>
				<rect x="203.9" y="50.9" class="st5" width="0.9" height="10.7"/>
				<rect x="202.2" y="50.9" class="st5" width="0.9" height="10.7"/>
				<rect x="200.5" y="50.9" class="st5" width="0.9" height="10.7"/>
				<rect x="198.8" y="50.9" class="st5" width="0.9" height="10.7"/>
				<rect x="197.1" y="50.9" class="st5" width="0.9" height="10.7"/>
				<rect x="195.3" y="50.9" class="st5" width="0.9" height="10.7"/>
				<rect x="193.6" y="50.9" class="st5" width="0.9" height="10.7"/>
				<rect x="191.9" y="50.9" class="st5" width="0.9" height="10.7"/>
				<rect x="190.2" y="50.9" class="st5" width="0.9" height="10.7"/>
				<rect x="188.5" y="50.9" class="st5" width="0.9" height="10.7"/>
				<rect x="186.8" y="50.9" class="st5" width="0.9" height="10.7"/>
				<rect x="185" y="50.9" class="st5" width="0.9" height="10.7"/>
				<rect x="183.3" y="50.9" class="st5" width="0.9" height="10.7"/>
				<rect x="181.6" y="50.9" class="st5" width="0.9" height="10.7"/>
				<rect x="179.9" y="50.9" class="st5" width="0.9" height="10.7"/>
				<rect x="178.2" y="50.9" class="st5" width="0.9" height="10.7"/>
				<rect x="176.5" y="50.9" class="st5" width="0.9" height="10.7"/>
				<rect x="174.8" y="50.9" class="st5" width="0.9" height="10.7"/>
				<rect x="173" y="50.9" class="st5" width="0.9" height="10.7"/>
				<rect x="171.3" y="50.9" class="st5" width="0.9" height="10.7"/>
				<rect x="169.6" y="50.9" class="st5" width="0.9" height="10.7"/>
				<rect x="167.9" y="50.9" class="st5" width="0.9" height="10.7"/>
				<rect x="166.2" y="50.9" class="st5" width="0.9" height="10.7"/>
				<rect x="164.5" y="50.9" class="st5" width="0.9" height="10.7"/>
				<rect x="162.7" y="50.9" class="st5" width="0.9" height="10.7"/>
				<rect x="161" y="50.9" class="st5" width="0.9" height="10.7"/>
				<rect x="159.3" y="50.9" class="st5" width="0.9" height="10.7"/>
				<rect x="157.6" y="50.9" class="st5" width="0.9" height="10.7"/>
			</g>
			<g>
				<rect x="129.7" y="62.4" class="st6" width="54" height="17.3"/>
				<rect x="182" y="63.2" class="st7" width="0.9" height="15.6"/>
				<rect x="180.3" y="63.2" class="st7" width="0.9" height="15.6"/>
				<rect x="178.6" y="63.2" class="st7" width="0.9" height="15.6"/>
				<rect x="176.9" y="63.2" class="st7" width="0.9" height="15.6"/>
				<rect x="175.2" y="63.2" class="st7" width="0.9" height="15.6"/>
				<rect x="173.5" y="63.2" class="st7" width="0.9" height="15.6"/>
				<rect x="171.7" y="63.2" class="st7" width="0.9" height="15.6"/>
				<rect x="170" y="63.2" class="st7" width="0.9" height="15.6"/>
				<rect x="168.3" y="63.2" class="st7" width="0.9" height="15.6"/>
				<rect x="166.6" y="63.2" class="st7" width="0.9" height="15.6"/>
				<rect x="164.9" y="63.2" class="st7" width="0.9" height="15.6"/>
				<rect x="163.2" y="63.2" class="st7" width="0.9" height="15.6"/>
				<rect x="161.5" y="63.2" class="st7" width="0.9" height="15.6"/>
				<rect x="159.7" y="63.2" class="st7" width="0.9" height="15.6"/>
				<rect x="158" y="63.2" class="st7" width="0.9" height="15.6"/>
				<rect x="156.3" y="63.2" class="st7" width="0.9" height="15.6"/>
				<rect x="154.6" y="63.2" class="st7" width="0.9" height="15.6"/>
				<rect x="152.9" y="63.2" class="st7" width="0.9" height="15.6"/>
				<rect x="151.2" y="63.2" class="st7" width="0.9" height="15.6"/>
				<rect x="149.4" y="63.2" class="st7" width="0.9" height="15.6"/>
				<rect x="147.7" y="63.2" class="st7" width="0.9" height="15.6"/>
				<rect x="146" y="63.2" class="st7" width="0.9" height="15.6"/>
				<rect x="144.3" y="63.2" class="st7" width="0.9" height="15.6"/>
				<rect x="142.6" y="63.2" class="st7" width="0.9" height="15.6"/>
				<rect x="140.9" y="63.2" class="st7" width="0.9" height="15.6"/>
				<rect x="139.1" y="63.2" class="st7" width="0.9" height="15.6"/>
				<rect x="137.4" y="63.2" class="st7" width="0.9" height="15.6"/>
				<rect x="135.7" y="63.2" class="st7" width="0.9" height="15.6"/>
				<rect x="134" y="63.2" class="st7" width="0.9" height="15.6"/>
				<rect x="132.3" y="63.2" class="st7" width="0.9" height="15.6"/>
				<rect x="130.6" y="63.2" class="st7" width="0.9" height="15.6"/>
			</g>
			<g>
				<rect x="75.7" y="62.4" class="st8" width="54" height="17.3"/>
				<rect x="128" y="63.2" class="st9" width="0.9" height="15.6"/>
				<rect x="126.3" y="63.2" class="st9" width="0.9" height="15.6"/>
				<rect x="124.6" y="63.2" class="st9" width="0.9" height="15.6"/>
				<rect x="122.8" y="63.2" class="st9" width="0.9" height="15.6"/>
				<rect x="121.1" y="63.2" class="st9" width="0.9" height="15.6"/>
				<rect x="119.4" y="63.2" class="st9" width="0.9" height="15.6"/>
				<rect x="117.7" y="63.2" class="st9" width="0.9" height="15.6"/>
				<rect x="116" y="63.2" class="st9" width="0.9" height="15.6"/>
				<rect x="114.3" y="63.2" class="st9" width="0.9" height="15.6"/>
				<rect x="112.6" y="63.2" class="st9" width="0.9" height="15.6"/>
				<rect x="110.8" y="63.2" class="st9" width="0.9" height="15.6"/>
				<rect x="109.1" y="63.2" class="st9" width="0.9" height="15.6"/>
				<rect x="107.4" y="63.2" class="st9" width="0.9" height="15.6"/>
				<rect x="105.7" y="63.2" class="st9" width="0.9" height="15.6"/>
				<rect x="104" y="63.2" class="st9" width="0.9" height="15.6"/>
				<rect x="102.3" y="63.2" class="st9" width="0.9" height="15.6"/>
				<rect x="100.5" y="63.2" class="st9" width="0.9" height="15.6"/>
				<rect x="98.8" y="63.2" class="st9" width="0.9" height="15.6"/>
				<rect x="97.1" y="63.2" class="st9" width="0.9" height="15.6"/>
				<rect x="95.4" y="63.2" class="st9" width="0.9" height="15.6"/>
				<rect x="93.7" y="63.2" class="st9" width="0.9" height="15.6"/>
				<rect x="92" y="63.2" class="st9" width="0.9" height="15.6"/>
				<rect x="90.3" y="63.2" class="st9" width="0.9" height="15.6"/>
				<rect x="88.5" y="63.2" class="st9" width="0.9" height="15.6"/>
				<rect x="86.8" y="63.2" class="st9" width="0.9" height="15.6"/>
				<rect x="85.1" y="63.2" class="st9" width="0.9" height="15.6"/>
				<rect x="83.4" y="63.2" class="st9" width="0.9" height="15.6"/>
				<rect x="81.7" y="63.2" class="st9" width="0.9" height="15.6"/>
				<rect x="80" y="63.2" class="st9" width="0.9" height="15.6"/>
				<rect x="78.2" y="63.2" class="st9" width="0.9" height="15.6"/>
				<rect x="76.5" y="63.2" class="st9" width="0.9" height="15.6"/>
			</g>
		</g>
		<rect x="277.1" y="31.6" class="st10" width="1" height="24.7"/>
		<path class="st11" d="M63.8,64.9c1.3,2,4.7,6.5,8.1,6.5c4.3,0,185-2.2,185-2.2l10-13.3l30.1-3.9L272.2,103H14L6.7,86.3L0,64.9
			H63.8z"/>
		<rect x="8.4" y="57.8" class="st12" width="50.2" height="7.1"/>
		<polygon class="st13" points="8.4,64.9 16.8,64.9 8.4,57.8 		"/>
		<polygon class="st14" points="10.9,51.8 55.5,51.8 55.5,57.8 5.3,57.8 		"/>
		<polygon class="st15" points="10.9,51.8 21.2,57.8 5.3,57.8 		"/>
		<polygon class="st10" points="39.4,20.3 27.6,20.3 27.6,32.7 30.3,32.7 30.3,22.3 		"/>
		<polygon class="st16" points="33.5,25.8 19.7,29.5 10.9,51.8 33.5,51.8 		"/>
		<polygon class="st17" points="33.5,25.8 19.7,29.5 10.9,51.8 33.5,51.8 		"/>
		<polygon class="st18" points="19.7,29.5 10.9,51.8 22.7,51.8 		"/>
		<polygon class="st19" points="272.2,103 14,103 6.7,86.3 282.8,81.1 		"/>
		<polygon class="st20" points="66.7,37 65.1,41.3 30.4,41.3 30.4,48.3 62.4,48.3 61.1,51.8 22.7,51.8 22.7,37 		"/>
		<polygon class="st21" points="60.6,48.3 30.4,48.3 30.4,41.3 63.3,41.3 		"/>
		<polygon class="st22" points="61.7,41.3 59.1,48.3 53.8,48.3 56.5,41.3 		"/>
		<polygon class="st22" points="55.8,41.3 53.1,48.3 52.1,48.3 54.7,41.3 		"/>
		<rect x="44.2" y="40.5" class="st12" width="1.7" height="8.4"/>
		<g>
			<rect x="52.6" y="59.8" class="st10" width="4.3" height="2.7"/>
			<rect x="45.9" y="59.8" class="st10" width="4.3" height="2.7"/>
			<rect x="39.2" y="59.8" class="st10" width="4.3" height="5.1"/>
			<rect x="32.5" y="59.8" class="st10" width="4.3" height="2.7"/>
			<rect x="25.8" y="59.8" class="st10" width="4.3" height="2.7"/>
			<rect x="19.1" y="59.8" class="st10" width="4.3" height="2.7"/>
		</g>
		<g>
			<rect x="51.3" y="53.7" class="st10" width="2.1" height="2.1"/>
			<rect x="47.3" y="53.7" class="st10" width="2.1" height="2.1"/>
			<rect x="43.2" y="53.7" class="st10" width="2.1" height="2.1"/>
			<rect x="39.2" y="53.7" class="st10" width="2.1" height="2.1"/>
			<rect x="35.2" y="53.7" class="st10" width="2.1" height="2.1"/>
			<rect x="31.1" y="53.7" class="st10" width="2.1" height="2.1"/>
			<rect x="27.1" y="53.7" class="st10" width="2.1" height="2.1"/>
			<rect x="23" y="53.7" class="st10" width="2.1" height="2.1"/>
			<rect x="19" y="53.7" class="st10" width="2.1" height="2.1"/>
		</g>
		<rect x="28.7" y="0" class="st10" width="1" height="20.3"/>
		<rect x="35.8" y="16.2" class="st10" width="1" height="4.1"/>
		<rect x="63.7" y="32.9" class="st10" width="1" height="4.1"/>
		<rect x="61.6" y="32.9" class="st10" width="1" height="4.1"/>
		<rect x="59.5" y="32.9" class="st10" width="1" height="4.1"/>
		<rect x="33.8" y="17.4" class="st10" width="1" height="2.8"/>
		<rect x="31.9" y="17.4" class="st10" width="1" height="2.8"/>
		<rect x="33.5" y="15.8" class="st10" width="5.6" height="0.4"/>
		<polygon class="st23" points="36.3,37 50.1,37 44.7,33.8 36.3,33.8 		"/>
		<polygon class="st24" points="41.3,37 50.1,37 44.7,33.8 		"/>
		<g>
			<polygon class="st25" points="277.1,38.9 265.8,38.9 277.1,35.9 			"/>
			<polygon class="st26" points="277.1,35.9 265.8,35.9 277.1,38.9 			"/>
		</g>
		<g>
			<polygon class="st27" points="28.7,3 17.5,3 28.7,0 			"/>
			<polygon class="st28" points="28.7,0 17.5,0 28.7,3 			"/>
		</g>
		<g>
			<polygon class="st29" points="277.1,43.3 265.8,43.3 277.1,40.3 			"/>
			<polygon class="st30" points="277.1,40.3 265.8,40.3 277.1,43.3 			"/>
		</g>
		<g>
			<g>
				<g>
					<g>
						<path class="st31" d="M24.2,72.6c-0.8-0.8-0.8-2.2,0-3c0.8-0.8,2.2-0.8,3,0c0.8,0.8,0.8,2.2,0,3C26.4,73.4,25,73.4,24.2,72.6z
							 M24.9,71.8c0.4,0.4,1.1,0.4,1.5,0c0.4-0.4,0.4-1.1,0-1.5c-0.4-0.4-1.1-0.4-1.5,0C24.5,70.7,24.5,71.4,24.9,71.8z"/>
					</g>
				</g>
				<path class="st32" d="M24.9,71.8c0.4,0.4,1.1,0.4,1.5,0l0.7,0.7c-0.8,0.8-2.2,0.8-3,0c-0.8-0.8-0.8-2.2,0-3l0.7,0.7
					C24.5,70.7,24.5,71.4,24.9,71.8z"/>
			</g>
			<g>
				<g>
					<g>
						<path class="st31" d="M17.6,72.6c-0.8-0.8-0.8-2.2,0-3c0.8-0.8,2.2-0.8,3,0c0.8,0.8,0.8,2.2,0,3
							C19.8,73.4,18.5,73.4,17.6,72.6z M18.4,71.8c0.4,0.4,1.1,0.4,1.5,0c0.4-0.4,0.4-1.1,0-1.5c-0.4-0.4-1.1-0.4-1.5,0
							C17.9,70.7,17.9,71.4,18.4,71.8z"/>
					</g>
				</g>
				<path class="st32" d="M18.4,71.8c0.4,0.4,1.1,0.4,1.5,0l0.7,0.7c-0.8,0.8-2.2,0.8-3,0c-0.8-0.8-0.8-2.2,0-3l0.7,0.7
					C17.9,70.7,17.9,71.4,18.4,71.8z"/>
			</g>
			<g>
				<g>
					<g>
						<path class="st31" d="M11.1,72.6c-0.8-0.8-0.8-2.2,0-3c0.8-0.8,2.2-0.8,3,0c0.8,0.8,0.8,2.2,0,3
							C13.2,73.4,11.9,73.4,11.1,72.6z M11.8,71.8c0.4,0.4,1.1,0.4,1.5,0c0.4-0.4,0.4-1.1,0-1.5c-0.4-0.4-1.1-0.4-1.5,0
							C11.4,70.7,11.4,71.4,11.8,71.8z"/>
					</g>
				</g>
				<path class="st32" d="M11.8,71.8c0.4,0.4,1.1,0.4,1.5,0l0.7,0.7c-0.8,0.8-2.2,0.8-3,0c-0.8-0.8-0.8-2.2,0-3l0.7,0.7
					C11.4,70.7,11.4,71.4,11.8,71.8z"/>
			</g>
		</g>
		<g>
			<g>
				
					<ellipse transform="matrix(0.7079 -0.7063 0.7063 0.7079 -31.2026 59.831)" class="st33" cx="56.7" cy="67.6" rx="0.8" ry="0.8"/>
				<path class="st34" d="M56.2,67.1L56.2,67.1l1.2,1.2l0,0c-0.3,0.3-0.8,0.3-1.2,0C55.8,67.9,55.8,67.4,56.2,67.1z"/>
			</g>
			<g>
				
					<ellipse transform="matrix(0.7079 -0.7064 0.7064 0.7079 -31.9812 57.9512)" class="st33" cx="54.1" cy="67.6" rx="0.8" ry="0.8"/>
				<path class="st34" d="M53.5,67.1L53.5,67.1l1.2,1.2l0,0c-0.3,0.3-0.8,0.3-1.2,0C53.2,67.9,53.2,67.4,53.5,67.1z"/>
			</g>
			<g>
				
					<ellipse transform="matrix(0.708 -0.7062 0.7062 0.708 -32.7566 56.0469)" class="st33" cx="51.4" cy="67.6" rx="0.8" ry="0.8"/>
				<path class="st34" d="M50.8,67.1L50.8,67.1l1.2,1.2l0,0c-0.3,0.3-0.8,0.3-1.2,0C50.5,67.9,50.5,67.4,50.8,67.1z"/>
			</g>
			<g>
				
					<ellipse transform="matrix(0.7077 -0.7065 0.7065 0.7077 -33.5415 54.2059)" class="st33" cx="48.7" cy="67.6" rx="0.8" ry="0.8"/>
				<path class="st34" d="M48.2,67.1L48.2,67.1l1.2,1.2l0,0c-0.3,0.3-0.8,0.3-1.2,0C47.8,67.9,47.8,67.4,48.2,67.1z"/>
			</g>
		</g>
		<polygon class="st35" points="22.7,51.8 22.7,37 31.9,51.8 		"/>
	</g>
	<g>
		<polygon class="st36" points="19.1,86.1 58.2,103 40.2,103 6.7,86.3 19.1,86.1 		"/>
		<polygon class="st37" points="19.1,86.1 6.7,86.3 0,64.9 		"/>
	</g>
	<g>
		
			<ellipse transform="matrix(0.7077 -0.7065 0.7065 0.7077 40.5182 215.4705)" class="st33" cx="280.7" cy="58.8" rx="1.4" ry="1.4"/>
		<path class="st34" d="M279.7,57.8L279.7,57.8l2,2l0,0c-0.5,0.5-1.4,0.5-2,0C279.1,59.2,279.1,58.3,279.7,57.8z"/>
	</g>
	<g>
		
			<ellipse transform="matrix(0.7077 -0.7065 0.7065 0.7077 39.1807 212.2379)" class="st33" cx="276.1" cy="58.8" rx="1.4" ry="1.4"/>
		<path class="st34" d="M275.1,57.8L275.1,57.8l2,2l0,0c-0.5,0.5-1.4,0.5-2,0C274.5,59.2,274.5,58.3,275.1,57.8z"/>
	</g>
</g>
</svg>
