<?xml version="1.0" encoding="utf-8"?>
<!-- Generator: Adobe Illustrator 19.2.1, SVG Export Plug-In . SVG Version: 6.00 Build 0)  -->
<svg version="1.1" id="Livello_1" xmlns="http://www.w3.org/2000/svg" xmlns:xlink="http://www.w3.org/1999/xlink" x="0px" y="0px"
	 viewBox="0 0 538.6 652" style="enable-background:new 0 0 538.6 652;" xml:space="preserve">
<style type="text/css">
	.st0{fill:#F4F1EB;}
	.st1{fill:#E4DECB;}
	.st2{fill:#E75857;}
	.st3{fill:#FFFFFF;}
	.st4{fill:#CA5255;}
	.st5{fill:#E7F2F5;}
	.st6{fill:#425B78;}
	.st7{fill:#394C63;}
	.st8{fill:#E8E8E6;}
	.st9{fill:#D3D3D0;}
	.st10{fill:#808080;}
	.st11{fill:#666666;}
	.st12{fill:#999999;}
	.st13{fill:#425C79;}
	.st14{fill:#F2F8F7;}
	.st15{opacity:0.5;fill:#FFFFFF;enable-background:new    ;}
</style>
<title>faro</title>
<polygon class="st0" points="342.4,503.9 266.3,504 268.9,410.7 334.8,410.7 "/>
<polygon class="st1" points="195.6,503.9 269.1,504 268.9,410.7 203.1,410.7 "/>
<polygon class="st2" points="320.3,337.9 326.3,406.8 268.9,406.8 268.9,405.6 268.9,337.9 "/>
<polygon class="st3" points="314.5,271.4 320.3,337.9 268.9,337.9 268.8,271.4 314.4,271.4 "/>
<polygon class="st2" points="308.6,202.7 314.5,271.4 314.4,271.4 268.8,271.4 268.7,202.7 308.3,202.7 "/>
<polygon class="st3" points="303.3,142 308.6,202.7 308.3,202.7 268.7,202.7 268.6,142 "/>
<polygon class="st4" points="268.9,405.6 268.9,406.8 211,406.8 216.8,337.9 216.8,337.9 268.9,337.9 "/>
<polygon class="st5" points="268.8,271.4 268.9,337.9 216.8,337.9 216.8,337.9 222.4,271.4 222.6,271.4 "/>
<polygon class="st4" points="268.7,202.7 268.8,271.4 222.6,271.4 222.4,271.4 228.2,202.7 228.5,202.7 268.6,202.7 "/>
<polygon class="st5" points="268.6,202.7 228.5,202.7 228.2,202.7 233.3,142 268.6,142 268.7,202.7 "/>
<rect x="203.1" y="405.5" class="st4" width="65.9" height="5.2"/>
<rect x="268.9" y="405.5" class="st2" width="65.9" height="5.2"/>
<ellipse class="st4" cx="203.1" cy="408.1" rx="2.2" ry="2.6"/>
<ellipse class="st2" cx="334.8" cy="408.1" rx="2.2" ry="2.6"/>
<path class="st6" d="M283.9,447.9v54.8H269v-47.1C277.2,455.5,283.9,452.1,283.9,447.9z"/>
<path class="st6" d="M283.9,447.9H269v-7.6C277.2,440.3,283.9,443.7,283.9,447.9z"/>
<path class="st6" d="M269,447.9h14.9c0,4.2-6.7,7.6-14.9,7.6V447.9z"/>
<path class="st7" d="M269,455.5v47.1h-14.9v-54.8C254.1,452.1,260.8,455.5,269,455.5z"/>
<path class="st7" d="M269,447.9v7.6c-8.2,0-14.9-3.4-14.9-7.6H269z"/>
<path class="st7" d="M269,440.3v7.6h-14.9C254.1,443.7,260.8,440.3,269,440.3z"/>
<path class="st8" d="M351.4,544.1h-82.6v-41.4h78.3c4.6,0,8.3,3.7,8.3,8.3l0,0v29.1C355.4,542.3,353.6,530.1,351.4,544.1z"/>
<path class="st9" d="M186.6,544.2h82.6v-41.4h-78.3c-4.6,0-8.3,3.7-8.3,8.3l0,0v29.1C182.5,542.4,184.3,530.2,186.6,544.2z"/>
<polyline class="st10" points="71.8,576 95.3,555.5 123.8,551.5 129.8,596.5 "/>
<polygon class="st10" points="296.3,578 270.8,554 237.8,526.5 190.3,521.5 160.8,551.5 170.8,593.5 "/>
<polygon class="st11" points="223.8,558 252.3,528.5 314.8,533.5 353.3,590.5 293.8,609 223.3,608 "/>
<path class="st12" d="M409.2,557.4L396.7,586l11.5,30.4c0,0,117.6-12.5,117.6-13.9s-27-34.5-27-34.5l-43.5-25.5L409.2,557.4z"/>
<polygon class="st12" points="329.3,522 296.8,545 288.8,566 312.8,611.5 407.3,610 376.3,534.5 "/>
<polygon class="st10" points="257.8,569.5 373.3,545 408.3,560.5 439.8,563.5 465.3,590.5 372.3,607 235.3,601.5 "/>
<path class="st12" d="M129.2,544.4L116.7,573l11.5,30.4c0,0,105.6-3.7,105.6-5.1s-3.1-23.9-3.1-23.9l-56-54.5L129.2,544.4z"/>
<path class="st3" d="M314.5,420.3h21.1v0.5h-12V431h9v0.5h-22.5v10.3h27.2v0.5h-35.2v10.8h-0.5v-10.8h-7.8v-0.5h15.8v-10.3h-9.8V431
	H323v-10.2h-8.6L314.5,420.3L314.5,420.3z M336.6,466.3v0.5h-8.1v-0.5H336.6z M334.5,464.7v-10.6h0.5v10.6H334.5z M303.3,453.5V453
	h33.3v0.5H303.3z M292.8,466.9v-0.5h34.1v0.3h0.3v10.8h-0.5V467L292.8,466.9L292.8,466.9z M287.3,454.2h0.5V465h-0.5V454.2
	L287.3,454.2z M285.4,453.5V453h14.4v0.5H285.4L285.4,453.5z M287.4,479.6h10.8v0.5h-10.8V479.6L287.4,479.6z M295.1,478.8V468h0.5
	v10.8H295.1L295.1,478.8z M309.6,465v-10.8h0.5V465H309.6z M293.8,431.1v0.5l-13.6,0.1v-0.5l10.8-0.1v-9.6h0.5v9.6H293.8
	L293.8,431.1z M274.3,420.3h33.1v0.5h-33.1V420.3z M230.5,420.4h33.1v0.5h-33.2L230.5,420.4L230.5,420.4z M257.5,431.2v0.5
	l-13.4-0.1v-0.5h2.3v-9.6h0.5v9.6L257.5,431.2z M200.5,442h27.2v-10.3h-22.4v-0.5h9V421h-12v-0.5h21.1v0.5h-8.6v10.2H238v0.5h-9.7
	V442h15.8v0.5h-7.8v10.8h-0.5v-10.8h-35.2L200.5,442L200.5,442z M209.3,466.4v0.6h-8.1v-0.5L209.3,466.4L209.3,466.4z M202.8,464.9
	v-10.6h0.5v10.6H202.8L202.8,464.9z M201.2,453.6V453h33.3v0.5L201.2,453.6L201.2,453.6z M228.3,454.3v10.8h-0.5v-10.8H228.3z
	 M211,466.6L211,466.6L211,466.6l34.1-0.1v0.6h-33.6v10.3H211V466.6L211,466.6z M242.7,468.1v10.8h-0.5v-10.8H242.7z M239.7,479.7
	h10.8v0.5h-10.8V479.7z M250,465.1v-10.8h0.5v10.8H250z M238,453.6V453h14.4v0.5L238,453.6L238,453.6z M197.5,479.7h34.1v0.5h-34.1
	V479.7L197.5,479.7z M217.4,491h-2.6v10.5h-0.5V491h-14.4v-0.5h17.6L217.4,491L217.4,491z M245.5,501.8H245V491h0.5V501.8z M254,491
	h-28.2v-0.5h9.9V480h0.6v10.5h17.8L254,491L254,491z M254.3,444.6l-4.5-5.3l0.4-0.3l4.5,5.3L254.3,444.6z M259.1,441.3l-3.1-7
	l0.5-0.2l3.1,7L259.1,441.3z M265.6,439.6l-1.5-7.8l0.5-0.1l1.5,7.8L265.6,439.6z M249.9,438.6l-0.4-0.4c5-5.4,11.1-7.9,19.4-7.9
	h0.1c8.3,0,14.5,2.5,19.4,7.9l-0.4,0.4c-4.9-5.3-10.9-7.8-19.1-7.8S254.8,433.3,249.9,438.6L249.9,438.6z M271.7,439.6l-0.5-0.1
	l1.6-7.7l0.5,0.1L271.7,439.6z M278.4,441.4l-0.5-0.2l3.1-7l0.5,0.2L278.4,441.4z M282.6,444.3l4.5-5.3l0.4,0.3l-4.5,5.3
	L282.6,444.3z M292.9,501.8h-0.6V491h0.5L292.9,501.8L292.9,501.8z M312.1,490.9h-28.2v-0.5h17.8v-10.5h0.5v10.5h9.9V490.9
	L312.1,490.9z M337.9,490.9h-14.4v10.5H323v-10.5h-2.6v-0.5H338L337.9,490.9L337.9,490.9z M340.3,480.1h-34v-0.5h34V480.1z"/>
<path d="M277.3,76v24.4c0,0-13-0.2-14-0.2c-2.7,0-5-5.5-5-12.1s2.2-12.1,4.9-12.1L277.3,76L277.3,76z"/>
<path class="st3" d="M282.2,88.4c0,6.6-2.2,12-5,12s-5-5.4-5-12s2.3-12.4,5-12.4S282.2,81.8,282.2,88.4z"/>
<path class="st13" d="M269.3,37.8c3.4-0.2,6.4,2.4,6.6,5.9c0.2,3.4-2.4,6.4-5.9,6.6c-0.2,0-0.5,0-0.7,0L269.3,37.8L269.3,37.8z"/>
<path class="st7" d="M269.3,37.8v12.4l0,0c-3.4,0.2-6.4-2.4-6.6-5.9c-0.2-3.4,2.4-6.4,5.9-6.6C268.8,37.8,269.1,37.8,269.3,37.8
	L269.3,37.8z"/>
<path class="st13" d="M296.4,68.6h-27.1V48.2c1.3,0.1,2.5,0.6,3.5,1.4L296.4,68.6z"/>
<path class="st7" d="M269.3,48.3v20.3h-28l23.5-19C266.1,48.6,267.7,48.1,269.3,48.3L269.3,48.3L269.3,48.3z"/>
<rect x="239.6" y="106.8" class="st14" width="29.2" height="36.3"/>
<rect x="268.6" y="106.8" class="st3" width="29" height="36.3"/>
<path class="st7" d="M262.3,135v-18h6v-3h-51v21h-0.2l4.9,7h46.3v-7H262.3z M220.3,135v-18h9v18H220.3z M232.3,135v-18h12v18H232.3z
	 M247.3,135v-18h12v18H247.3z"/>
<path class="st13" d="M320,114h-51.7v3h7v18h-7v7h47l5-6.9V114H320z M278.3,135v-18h12v18H278.3z M293.3,135v-18h12v18H293.3z
	 M308.3,135v-18h9v18H308.3z"/>
<path class="st15" d="M294.5,70l-7,16.3l-5.7-13.4l1.3-2.9H294.5L294.5,70z M287,87.6l-5.7,13.4l-5.7-13.4l5.7-13.4L287,87.6z
	 M282,70.1l-0.7,1.7l-0.7-1.7H282z M279.5,70l1.3,3l-5.7,13.4L269.4,73l1.3-2.9L279.5,70L279.5,70z M274.5,87.6l-5.7,13.4l-5.7-13.4
	l5.7-13.4L274.5,87.6z M268.6,70.1h1l-0.7,1.7l-0.7-1.7H268.6L268.6,70.1z M267.1,70l1.3,3l-5.7,13.4L257,73l1.3-2.9L267.1,70
	L267.1,70z M262.1,87.6l-5.7,13.4l-5.7-13.4l5.7-13.4L262.1,87.6z M257.1,70.1l-0.7,1.7l-0.7-1.7H257.1z M254.6,70l1.3,3l-5.5,13.3
	l-7-16.3h11.4H254.6z M242.2,70.3l7.4,17.3l-7.2,17.3V70.3L242.2,70.3L242.2,70.3z M243.2,105l7-16.3l5.7,13.3l-1.3,3H243.2
	L243.2,105z M255.6,105.1l0.8-1.8l0.8,1.8h-1.4H255.6z M258.3,105l-1.3-2.9l5.7-13.3l5.7,13.3l-1.3,3L258.3,105L258.3,105z
	 M269,105.1h-0.8l0.8-1.8l0.8,1.8H269z M270.7,105l-1.3-2.9l5.7-13.3l5.7,13.3l-1.3,3L270.7,105L270.7,105z M280.6,105.1l0.8-1.8
	l0.8,1.8H280.6L280.6,105.1z M283.2,105l-1.3-2.9l5.7-13.4l7,16.3H283.2L283.2,105z M295.4,104.7l-7.3-17.2l7.3-17.2V104.7
	L295.4,104.7z"/>
</svg>
