<?xml version="1.0" encoding="utf-8"?>
<!-- Generator: Adobe Illustrator 19.2.1, SVG Export Plug-In . SVG Version: 6.00 Build 0)  -->
<svg version="1.1" id="Livello_1" xmlns="http://www.w3.org/2000/svg" xmlns:xlink="http://www.w3.org/1999/xlink" x="0px" y="0px"
	 viewBox="0 0 500 600" width="500" height="600" style="enable-background:new 0 0 500 600;" xml:space="preserve">
<style type="text/css">
	.st0{fill:#E7EDF5;}
	.st1{fill:#FFFFFF;}
	.st2{fill:#F4F1EB;}
	.st3{fill:#E4DECB;}
	.st4{fill:#425B78;}
	.st5{fill:#E8E8E6;}
	.st6{fill:#D3D3D0;}
	.st7{fill:#F2F8F7;}
	.st8{fill:#394C63;}
	.st9{fill:#425C79;}
	.st10{fill:#E75857;}
	.st11{fill:#CA5255;}
	.st12{fill:#E30613;}
	.st13{fill:#C80613;}
	.st14{opacity:0.5;fill:#FFFFFF;}
	.st15{fill:#CCCCCC;}
	.st16{fill:#AC6680;}
	.st17{fill:#8A5466;}
	.st18{fill:#CC9999;}
</style>
<g>
	<polygon class="st0" points="233.5,369.8 233.5,106.2 199.1,106.2 176.2,369.8 	"/>
	<polygon class="st1" points="290.9,369.8 268,106.2 233.5,106.2 233.5,369.8 	"/>
</g>
<polygon class="st2" points="307.1,468.2 233.5,468.2 233.5,374.9 299.5,374.9 "/>
<polygon class="st3" points="160.3,468.2 233.5,468.2 233.5,374.9 167.8,374.9 "/>
<g id="XMLID_2_">
	<g>
		<path class="st4" d="M248.6,412.1V467h-15v-62.8C246.2,404.1,248.6,412.1,248.6,412.1z"/>
	</g>
	<g>
	</g>
</g>
<path class="st5" d="M233.5,508.3v-41.4l78.2,0c4.6,0,8.3,3.7,8.3,8.3v33.2L233.5,508.3z"/>
<path class="st6" d="M233.5,508.4V467h-78c-4.6,0-8.3,3.7-8.3,8.3v33.1H233.5z"/>
<path class="st1" d="M279.2,384.6h21.1v0.5h-12v10.2h9v0.5h-22.5v10.3H302v0.5h-35.2v10.8h-0.5v-10.8h-7.8v-0.5h15.8v-10.3h-9.7
	v-0.5h23.2v-10.2h-8.6V384.6z M301.4,430.6v0.5h-8.1v-0.5H301.4z M299.2,429v-10.6h0.5V429H299.2z M268,417.7v-0.5h33.3v0.5H268z
	 M257.5,431.1v-0.5h34.1v0.3h0.3v10.8h-0.5v-10.5H257.5z M252,418.4h0.5v10.8H252V418.4z M250.1,417.7v-0.5h14.4v0.5H250.1z
	 M252.1,443.8h10.8v0.5h-10.8V443.8z M259.9,443v-10.8h0.5V443H259.9z M274.3,429.2v-10.8h0.5v10.8H274.3z M258.5,395.3l0,0.5
	l-13.6,0.1l0-0.5l10.8-0.1v-9.6h0.5v9.6L258.5,395.3z M239,384.6h33.1v0.5H239V384.6z M195.2,384.6h33.1v0.5h-33.1V384.6z
	 M222.2,395.5l0,0.5l-13.4-0.1l0-0.5l2.3,0v-9.6h0.5v9.6L222.2,395.5z M165.2,406.2h27.2v-10.3H170v-0.5h9v-10.2h-12v-0.5h21.1v0.5
	h-8.6v10.2h23.2v0.5H193v10.3h15.8v0.5H201v10.8h-0.5v-10.8h-35.2V406.2z M174,430.7v0.5h-8.1v-0.5H174z M167.5,429.1v-10.6h0.5
	v10.6H167.5z M165.9,417.8v-0.5h33.3v0.5H165.9z M193,418.5v10.8h-0.5v-10.8H193z M175.7,430.8L175.7,430.8L175.7,430.8l34.1-0.1
	v0.5h-33.6v10.3h-0.5V430.8z M207.4,432.3v10.8h-0.5v-10.8H207.4z M204.4,443.9h10.8v0.5h-10.8V443.9z M214.7,429.3v-10.8h0.5v10.8
	H214.7z M202.7,417.8v-0.5h14.4v0.5H202.7z M162.3,443.9h34.1v0.5h-34.1V443.9z M182.2,455.2h-2.6v10.5H179v-10.5h-14.4v-0.5h17.6
	V455.2z M210.2,466h-0.5v-10.8h0.5V466z M218.7,455.2h-28.2v-0.5h9.9v-10.5h0.5v10.5h17.8V455.2z M219,408.8l-4.5-5.3l0.4-0.3
	l4.5,5.3L219,408.8z M223.8,405.5l-3.1-7l0.5-0.2l3.1,7L223.8,405.5z M230.3,403.8l-1.5-7.8l0.5-0.1l1.5,7.8L230.3,403.8z
	 M214.6,402.8l-0.4-0.4c5-5.4,11.1-7.9,19.4-7.9v0c0,0,0,0,0,0s0,0,0,0v0c8.3,0,14.5,2.5,19.4,7.9l-0.4,0.4
	c-4.9-5.3-10.9-7.8-19.1-7.8C225.6,395.1,219.5,397.5,214.6,402.8z M236.4,403.8l-0.5-0.1l1.6-7.7l0.5,0.1L236.4,403.8z
	 M243.1,405.5l-0.5-0.2l3.1-7l0.5,0.2L243.1,405.5z M247.3,408.5l4.5-5.3l0.4,0.3l-4.5,5.3L247.3,408.5z M257.6,466h-0.5v-10.8h0.5
	V466z M276.8,455.1h-28.2v-0.5h17.8v-10.5h0.5v10.5h9.9V455.1z M302.7,455.1h-14.4v10.5h-0.5v-10.5h-2.6v-0.5h17.6V455.1z
	 M305,444.3h-34.1v-0.5H305V444.3z"/>
<rect x="204.3" y="71" class="st7" width="29.3" height="35.3"/>
<rect x="233.5" y="71" class="st1" width="28.6" height="35.3"/>
<path class="st8" d="M233.6,32.9h-27.5l23.5-19c1.1-0.9,2.6-1.4,4-1.4V32.9z"/>
<path class="st9" d="M233.6,32.9h27.5l-23.5-19c-1.1-0.9-2.6-1.4-4-1.4V32.9z"/>
<path class="st8" d="M233.6,0c-3.6,0-6.5,2.8-6.5,6.2c0,3.4,2.9,6.2,6.5,6.2V0z"/>
<path class="st9" d="M233.6,0c3.6,0,6.5,2.8,6.5,6.2c0,3.4-2.9,6.2-6.5,6.2V0z"/>
<path class="st8" d="M227.1,99.2v-18h6.5v-3h-51.5v21h0.1l4.9,7h46.5v-7H227.1z M194.1,99.2h-9v-18h9V99.2z M209.1,99.2h-12v-18h12
	V99.2z M224.1,99.2h-12v-18h12V99.2z"/>
<path class="st8" d="M233.5,99.2v7H280l4.9-7h0.1v-21h-51.5v3h6.5v18H233.5z M273,81.2h9v18h-9V81.2z M258,81.2h12v18h-12V81.2z
	 M243,81.2h12v18h-12V81.2z"/>
<path class="st8" d="M233.5,404.1c-12.4,0.1-14.7,8-14.7,8V467h14.7V404.1z"/>
<g>
	<polygon class="st10" points="273.5,169.9 233.5,169.9 233.5,235.6 279.1,235.6 	"/>
	<polygon class="st11" points="193.6,169.9 188,235.6 233.5,235.6 233.5,169.9 	"/>
</g>
<g>
	<polygon class="st10" points="290.9,369.8 284.9,301.1 233.5,301.1 233.5,369.8 	"/>
	<polygon class="st11" points="233.5,301.1 182.2,301.1 176.2,369.8 233.5,369.8 	"/>
</g>
<path class="st12" d="M276.7,169.9c0.8,0,1.5-0.6,1.5-1.5s-0.7-1.5-1.5-1.5l-3.4,0l-39.7,0v2.9H276.7z"/>
<path class="st13" d="M233.5,167h-43.2c-0.8,0-1.5,0.6-1.5,1.5s0.7,1.5,1.5,1.5h43.2V167z"/>
<path class="st12" d="M299.5,369.8h-66v5.1h66c1.2,0,2.2-1.2,2.2-2.6S300.7,369.8,299.5,369.8z"/>
<path class="st13" d="M167.6,369.8c-1.2,0-2.2,1.2-2.2,2.6s1,2.6,2.2,2.6h66v-5.1H167.6z"/>
<path d="M242.1,40c0,4.2,0,24.4,0,24.4s-13-0.2-14.1-0.2c-2.7,0-5-5.5-5-12.1s2.2-12.1,4.9-12.1C230.7,40,242.1,40,242.1,40z"/>
<path class="st1" d="M246.9,52.4c0,6.6-2.2,12-5,12c-2.7,0-5-5.4-5-12s2.3-12.4,5-12.4S246.9,45.8,246.9,52.4z"/>
<polygon class="st14" points="259.2,34 252.2,50.3 246.5,36.9 247.8,34 "/>
<polygon class="st14" points="251.7,51.5 246,64.9 240.3,51.5 246,38.2 "/>
<polygon class="st14" points="244.3,34 245.5,37 239.8,50.3 234.1,36.9 235.4,34 "/>
<polygon class="st14" points="239.3,51.5 233.6,64.9 227.9,51.5 233.6,38.2 "/>
<polygon class="st14" points="231.8,34 233.1,37 227.4,50.3 221.7,36.9 222.9,34 "/>
<polygon class="st14" points="226.9,51.5 221.2,64.9 215.5,51.5 221.2,38.2 "/>
<polygon class="st14" points="219.4,34 220.7,37 215,50.3 208,34 "/>
<polygon class="st14" points="207.1,34.3 214.4,51.5 207.1,68.8 "/>
<polygon class="st14" points="208,69 215,52.7 220.7,66 219.4,69 "/>
<polygon class="st14" points="223,69 221.7,66.1 227.4,52.7 233.1,66 231.8,69 "/>
<polygon class="st14" points="235.4,69 234.1,66.1 239.8,52.7 245.5,66 244.2,69 "/>
<polygon class="st14" points="247.8,69 246.5,66.1 252.2,52.7 259.2,69 "/>
<polygon class="st14" points="260.1,68.7 252.7,51.5 260.1,34.4 "/>
<polygon class="st14" points="246.8,34 246,35.7 245.3,34 "/>
<polygon class="st14" points="234.3,34 233.6,35.7 232.9,34 "/>
<polygon class="st14" points="221.9,34 221.2,35.7 220.4,34 "/>
<polygon class="st14" points="220.4,69 221.2,67.2 221.9,69 "/>
<polygon class="st14" points="232.8,69 233.6,67.2 234.4,69 "/>
<polygon class="st14" points="245.3,69 246,67.2 246.8,69 "/>
<g>
	<rect x="268.9" y="384.6" class="st12" width="24.4" height="17.2"/>
	<g>
		<polygon class="st1" points="277.7,388.6 277.7,389.8 277.7,398.1 278.8,398.1 278.8,389.8 278.8,388.6 		"/>
		
			<rect x="276.3" y="388.9" transform="matrix(0.708 -0.7062 0.7062 0.708 -194.1776 309.2085)" class="st1" width="1.2" height="1.2"/>
		<polygon class="st1" points="281.1,388.6 281.1,389.8 284.7,389.8 281.1,398.1 282.4,398.1 286.4,388.6 		"/>
	</g>
	<circle class="st15" cx="271" cy="386.7" r="1.1"/>
	<circle class="st15" cx="271" cy="399.6" r="1.1"/>
	<circle class="st15" cx="291.1" cy="386.7" r="1.1"/>
	<circle class="st15" cx="291.1" cy="399.6" r="1.1"/>
</g>
<polygon class="st16" points="26,540.2 59.8,519.7 91.4,515.7 97.6,600 0,600 "/>
<polygon class="st16" points="261,542.2 235.5,518.2 202.5,490.7 155,485.7 125.4,515.7 135.5,557.7 "/>
<polygon class="st17" points="188.5,522.2 217,492.7 279.5,497.7 318,554.7 258.5,593.2 188,592.2 "/>
<polygon class="st18" points="373.9,521.7 361.4,550.3 372.9,600 500,600 483.9,557.7 463.3,532.3 420,506.8 "/>
<polygon class="st18" points="294,486.2 261.5,509.2 253.5,530.2 279.8,600 372.9,600 372,594.2 341,498.7 "/>
<polygon class="st16" points="222.5,533.7 338,509.2 373,524.7 404.5,527.7 430,554.7 447.5,600 189,600 "/>
<polygon class="st18" points="93.9,508.7 81.4,537.3 82.6,600 201,600 195.5,538.7 139.5,484.2 "/>
</svg>
