<svg id="Livello_1" data-name="Livello 1" xmlns="http://www.w3.org/2000/svg" viewBox="0 0 71.23 37.88"><defs><style>.cls-1{fill:#fff;}</style></defs><title>bird-3</title><path class="cls-1" d="M436.32,2525.24q1.82-.92,3.7-1.72c1.25-.53,2.51-1.07,3.78-1.54,2.55-1,5.13-1.86,7.78-2.58a45.29,45.29,0,0,1,8.22-1.62,18.94,18.94,0,0,1,4.53.06,11.69,11.69,0,0,1,1.25.29l0.65,0.24,0.16,0.06,0.24,0.12,0.23,0.12,0.46,0.24,0.59,0.38a10.42,10.42,0,0,1,1,.77,22.55,22.55,0,0,1,3.1,3.26,39.14,39.14,0,0,1,2.47,3.48,77.17,77.17,0,0,1,4.08,7.26c0.62,1.23,1.2,2.48,1.77,3.72s1.13,2.5,1.64,3.77,1,2.53,1.52,3.81,0.95,2.55,1.41,3.88l-4.15-.28c0.73-1.3,1.48-2.53,2.25-3.77s1.57-2.46,2.41-3.66,1.7-2.39,2.61-3.55c0.47-.58.91-1.17,1.42-1.72s1-1.11,1.55-1.65c0.26-.27.56-0.53,0.85-0.79a8.62,8.62,0,0,1,.93-0.76,6.17,6.17,0,0,1,2.43-1.2l0.27,0h0.38l0.79,0c0.4,0.08.82,0.13,1.2,0.25a17.36,17.36,0,0,1,2.16.75,32.21,32.21,0,0,1,3.92,2,42.08,42.08,0,0,1,3.64,2.37c-1.35-.53-2.7-1-4.05-1.47s-2.72-.86-4.06-1.18a15.36,15.36,0,0,0-2-.34c-0.33,0-.63,0-0.93,0l-0.29,0a0.61,0.61,0,0,0-.16,0l-0.26.08a4,4,0,0,0-1.26.91,6.4,6.4,0,0,0-.65.69c-0.21.25-.43,0.48-0.63,0.76-0.83,1.05-1.58,2.22-2.35,3.38s-1.47,2.38-2.16,3.6l-2,3.7c-0.66,1.24-1.31,2.51-1.94,3.74l-2.27,4.47-1.89-4.75c-0.48-1.21-1-2.45-1.52-3.67s-1-2.45-1.59-3.67q-1.62-3.65-3.36-7.22c-1.17-2.37-2.4-4.7-3.73-6.92-0.67-1.1-1.36-2.19-2.09-3.2a20.14,20.14,0,0,0-2.33-2.73,7.1,7.1,0,0,0-.56-0.5l-0.23-.2-0.42-.26-0.22-.13-0.05,0,0,0,0.11,0.06h0l-0.07,0-0.29-.13c-0.22-.07-0.45-0.16-0.71-0.22a15.11,15.11,0,0,0-3.54-.36,61,61,0,0,0-7.8.68c-1.32.18-2.63,0.42-4,.64s-2.64.46-4,.73l-4,.79Z" transform="translate(-436.32 -2517.68)"/></svg>