<svg id="Livello_1" data-name="Livello 1" xmlns="http://www.w3.org/2000/svg" viewBox="0 0 206.61 97.31"><defs><style>.cls-1{fill:#fff;}</style></defs><title>cloud-3</title><path class="cls-1" d="M1292.54,2480.66a6.13,6.13,0,0,1-6.13-6.13,29.34,29.34,0,0,1,24.2-28.88,53,53,0,0,1,92.29-10.35,40.32,40.32,0,0,1,31.24,17c2,2.77,1.11,6.35-1.47,8.55-16.5,14.08-6.59,22.57-8.55,19.8" transform="translate(-1286.41 -2412.92)"/><path class="cls-1" d="M1372.6,2510.23a6.13,6.13,0,0,1-6.13-6.13,24.55,24.55,0,0,1,19.72-24.2,43.68,43.68,0,0,1,75.37-8.39,33.47,33.47,0,0,1,31.46,32.4,6.13,6.13,0,0,1-5.95,6.32h-0.19" transform="translate(-1286.41 -2412.92)"/></svg>