<svg id="Livello_1" data-name="Livello 1" xmlns="http://www.w3.org/2000/svg" viewBox="0 0 454 578.7"><defs><style>.cls-1{fill:#f4f1eb;}.cls-2{fill:#e4decb;}.cls-3{fill:#e75857;}.cls-16,.cls-4{fill:#fff;}.cls-5{fill:#ca5255;}.cls-6{fill:#e7f2f5;}.cls-7{fill:#425b78;}.cls-8{fill:#394c63;}.cls-9{fill:#e8e8e6;}.cls-10{fill:#d3d3d0;}.cls-11{fill:gray;}.cls-12{fill:#666;}.cls-13{fill:#999;}.cls-14{fill:#425c79;}.cls-15{fill:#f2f8f7;}.cls-16{opacity:0.5;isolation:isolate;}</style></defs><title>lighthouse</title><polygon class="cls-1" points="270.6 466.2 194.5 466.3 197.1 373 263 373 270.6 466.2"/><polygon class="cls-2" points="123.8 466.2 197.3 466.3 197.1 373 131.3 373 123.8 466.2"/><polygon class="cls-3" points="248.5 300.2 254.5 369.1 197.1 369.1 197.1 367.9 197.1 300.2 248.5 300.2"/><polygon class="cls-4" points="242.7 233.7 248.5 300.2 197.1 300.2 197 233.7 242.6 233.7 242.7 233.7"/><polygon class="cls-3" points="236.8 165 242.7 233.7 242.6 233.7 197 233.7 196.9 165 236.5 165 236.8 165"/><polygon class="cls-4" points="231.5 104.3 236.8 165 236.5 165 196.9 165 196.8 104.3 231.5 104.3"/><polygon class="cls-5" points="197.1 367.9 197.1 369.1 139.2 369.1 145 300.2 145 300.2 197.1 300.2 197.1 367.9"/><polygon class="cls-6" points="197 233.7 197.1 300.2 145 300.2 145 300.2 150.6 233.7 150.8 233.7 197 233.7"/><polygon class="cls-5" points="196.9 165 197 233.7 150.8 233.7 150.6 233.7 156.4 165 156.7 165 196.8 165 196.9 165"/><polygon class="cls-6" points="196.8 165 156.7 165 156.4 165 161.5 104.3 196.8 104.3 196.9 165 196.8 165"/><rect class="cls-5" x="131.3" y="367.8" width="65.9" height="5.2"/><rect class="cls-3" x="197.1" y="367.8" width="65.9" height="5.2"/><ellipse class="cls-5" cx="131.3" cy="370.4" rx="2.2" ry="2.6"/><ellipse class="cls-3" cx="263" cy="370.4" rx="2.2" ry="2.6"/><path class="cls-7" d="M283.9,447.9v54.8H269V455.6C277.2,455.5,283.9,452.1,283.9,447.9Z" transform="translate(-71.8 -37.7)"/><path class="cls-7" d="M283.9,447.9H269v-7.6C277.2,440.3,283.9,443.7,283.9,447.9Z" transform="translate(-71.8 -37.7)"/><path class="cls-7" d="M269,447.9h14.9c0,4.2-6.7,7.6-14.9,7.6v-7.6Z" transform="translate(-71.8 -37.7)"/><path class="cls-8" d="M269,455.5v47.1H254.1V447.8C254.1,452.1,260.8,455.5,269,455.5Z" transform="translate(-71.8 -37.7)"/><path class="cls-8" d="M269,447.9v7.6c-8.2,0-14.9-3.4-14.9-7.6H269Z" transform="translate(-71.8 -37.7)"/><path class="cls-8" d="M269,440.3v7.6H254.1C254.1,443.7,260.8,440.3,269,440.3Z" transform="translate(-71.8 -37.7)"/><path class="cls-9" d="M351.4,544.1H268.8V502.7h78.3a8.28,8.28,0,0,1,8.3,8.3h0v29.1C355.4,542.3,353.6,530.1,351.4,544.1Z" transform="translate(-71.8 -37.7)"/><path class="cls-10" d="M186.6,544.2h82.6V502.8H190.9a8.28,8.28,0,0,0-8.3,8.3h0v29.1C182.5,542.4,184.3,530.2,186.6,544.2Z" transform="translate(-71.8 -37.7)"/><polyline class="cls-11" points="0 538.3 23.5 517.8 52 513.8 58 558.8"/><polygon class="cls-11" points="224.5 540.3 199 516.3 166 488.8 118.5 483.8 89 513.8 99 555.8 224.5 540.3"/><polygon class="cls-12" points="152 520.3 180.5 490.8 243 495.8 281.5 552.8 222 571.3 151.5 570.3 152 520.3"/><path class="cls-13" d="M409.2,557.4L396.7,586l11.5,30.4s117.6-12.5,117.6-13.9-27-34.5-27-34.5l-43.5-25.5Z" transform="translate(-71.8 -37.7)"/><polygon class="cls-13" points="257.5 484.3 225 507.3 217 528.3 241 573.8 335.5 572.3 304.5 496.8 257.5 484.3"/><polygon class="cls-11" points="186 531.8 301.5 507.3 336.5 522.8 368 525.8 393.5 552.8 300.5 569.3 163.5 563.8 186 531.8"/><path class="cls-13" d="M129.2,544.4L116.7,573l11.5,30.4s105.6-3.7,105.6-5.1-3.1-23.9-3.1-23.9l-56-54.5Z" transform="translate(-71.8 -37.7)"/><path class="cls-4" d="M314.5,420.3h21.1v0.5h-12V431h9v0.5H310.1v10.3h27.2v0.5H302.1v10.8h-0.5V442.3h-7.8v-0.5h15.8V431.5h-9.8V431H323V420.8h-8.6l0.1-.5h0Zm22.1,46v0.5h-8.1v-0.5h8.1Zm-2.1-1.6V454.1H335v10.6h-0.5Zm-31.2-11.2V453h33.3v0.5H303.3Zm-10.5,13.4v-0.5h34.1v0.3h0.3v10.8h-0.5V467l-33.9-.1h0Zm-5.5-12.7h0.5V465h-0.5V454.2h0Zm-1.9-.7V453h14.4v0.5H285.4Zm2,26.1h10.8v0.5H287.4v-0.5h0Zm7.7-.8V468h0.5v10.8h-0.5ZM309.6,465V454.2h0.5V465h-0.5Zm-15.8-33.9v0.5l-13.6.1v-0.5l10.8-.1v-9.6h0.5v9.6h2.3Zm-19.5-10.8h33.1v0.5H274.3v-0.5Zm-43.8.1h33.1v0.5H230.4l0.1-.5h0Zm27,10.8v0.5l-13.4-.1v-0.5h2.3v-9.6h0.5v9.6Zm-57,10.8h27.2V431.7H205.3v-0.5h9V421h-12v-0.5h21.1V421h-8.6v10.2H238v0.5h-9.7V442h15.8v0.5h-7.8v10.8h-0.5V442.5H200.6l-0.1-.5h0Zm8.8,24.4V467h-8.1v-0.5l8.1-.1h0Zm-6.5-1.5V454.3h0.5v10.6h-0.5Zm-1.6-11.3V453h33.3v0.5l-33.3.1h0Zm27.1,0.7v10.8h-0.5V454.3h0.5ZM211,466.6h0l34.1-.1v0.6H211.5v10.3H211V466.6h0Zm31.7,1.5v10.8h-0.5V468.1h0.5Zm-3,11.6h10.8v0.5H239.7v-0.5ZM250,465.1V454.3h0.5v10.8H250Zm-12-11.5V453h14.4v0.5l-14.4.1h0Zm-40.5,26.1h34.1v0.5H197.5v-0.5h0ZM217.4,491h-2.6v10.5h-0.5V491H199.9v-0.5h17.6l-0.1.5h0Zm28.1,10.8H245V491h0.5v10.8ZM254,491H225.8v-0.5h9.9V480h0.6v10.5h17.8l-0.1.5h0Zm0.3-46.4-4.5-5.3,0.4-.3,4.5,5.3Zm4.8-3.3-3.1-7,0.5-.2,3.1,7Zm6.5-1.7-1.5-7.8,0.5-.1,1.5,7.8Zm-15.7-1-0.4-.4c5-5.4,11.1-7.9,19.4-7.9H269c8.3,0,14.5,2.5,19.4,7.9l-0.4.4c-4.9-5.3-10.9-7.8-19.1-7.8s-14.1,2.5-19,7.8h0Zm21.8,1-0.5-.1,1.6-7.7,0.5,0.1Zm6.7,1.8-0.5-.2,3.1-7,0.5,0.2Zm4.2,2.9,4.5-5.3,0.4,0.3-4.5,5.3Zm10.3,57.5h-0.6V491h0.5l0.1,10.8h0Zm19.2-10.9H283.9v-0.5h17.8V479.9h0.5v10.5h9.9v0.5h0Zm25.8,0H323.5v10.5H323V490.9h-2.6v-0.5H338l-0.1.5h0Zm2.4-10.8h-34v-0.5h34v0.5Z" transform="translate(-71.8 -37.7)"/><path d="M277.3,76v24.4s-13-.2-14-0.2c-2.7,0-5-5.5-5-12.1S260.5,76,263.2,76h14.1Z" transform="translate(-71.8 -37.7)"/><path class="cls-4" d="M282.2,88.4c0,6.6-2.2,12-5,12s-5-5.4-5-12,2.3-12.4,5-12.4S282.2,81.8,282.2,88.4Z" transform="translate(-71.8 -37.7)"/><path class="cls-14" d="M269.3,37.8a6.26,6.26,0,0,1,.7,12.5h-0.7V37.8h0Z" transform="translate(-71.8 -37.7)"/><path class="cls-8" d="M269.3,37.8V50.2h0a6.26,6.26,0,0,1-.7-12.5,1.7,1.7,0,0,0,.7.1h0Z" transform="translate(-71.8 -37.7)"/><path class="cls-14" d="M296.4,68.6H269.3V48.2a6.36,6.36,0,0,1,3.5,1.4Z" transform="translate(-71.8 -37.7)"/><path class="cls-8" d="M269.3,48.3V68.6h-28l23.5-19a6.15,6.15,0,0,1,4.5-1.3h0Z" transform="translate(-71.8 -37.7)"/><rect class="cls-15" x="167.8" y="69.1" width="29.2" height="36.3"/><rect class="cls-4" x="196.8" y="69.1" width="29" height="36.3"/><path class="cls-8" d="M262.3,135V117h6v-3h-51v21h-0.2l4.9,7h46.3v-7h-6Zm-42,0V117h9v18h-9Zm12,0V117h12v18h-12Zm15,0V117h12v18h-12Z" transform="translate(-71.8 -37.7)"/><path class="cls-14" d="M320,114H268.3v3h7v18h-7v7h47l5-6.9V114H320Zm-41.7,21V117h12v18h-12Zm15,0V117h12v18h-12Zm15,0V117h9v18h-9Z" transform="translate(-71.8 -37.7)"/><path class="cls-16" d="M294.5,70l-7,16.3-5.7-13.4,1.3-2.9h11.4ZM287,87.6L281.3,101l-5.7-13.4,5.7-13.4Zm-5-17.5-0.7,1.7-0.7-1.7H282Zm-2.5-.1,1.3,3-5.7,13.4L269.4,73l1.3-2.9,8.8-.1h0Zm-5,17.6L268.8,101l-5.7-13.4,5.7-13.4Zm-5.9-17.5h1l-0.7,1.7-0.7-1.7h0.4Zm-1.5-.1,1.3,3-5.7,13.4L257,73l1.3-2.9,8.8-.1h0Zm-5,17.6L256.4,101l-5.7-13.4,5.7-13.4Zm-5-17.5-0.7,1.7-0.7-1.7h1.4Zm-2.5-.1,1.3,3-5.5,13.3-7-16.3h11.2Zm-12.4.3,7.4,17.3-7.2,17.3V70.3h-0.2Zm1,34.7,7-16.3,5.7,13.3-1.3,3H243.2Zm12.4,0.1,0.8-1.8,0.8,1.8h-1.6Zm2.7-.1-1.3-2.9,5.7-13.3,5.7,13.3-1.3,3-8.8-.1h0Zm10.7,0.1h-0.8l0.8-1.8,0.8,1.8H269Zm1.7-.1-1.3-2.9,5.7-13.3,5.7,13.3-1.3,3-8.8-.1h0Zm9.9,0.1,0.8-1.8,0.8,1.8h-1.6Zm2.6-.1-1.3-2.9,5.7-13.4,7,16.3H283.2Zm12.2-.3-7.3-17.2,7.3-17.2v34.4h0Z" transform="translate(-71.8 -37.7)"/></svg>