<?xml version="1.0" encoding="utf-8"?>
<!-- Generator: Adobe Illustrator 19.2.1, SVG Export Plug-In . SVG Version: 6.00 Build 0)  -->
<svg version="1.1" id="Livello_1" xmlns="http://www.w3.org/2000/svg" xmlns:xlink="http://www.w3.org/1999/xlink" x="0px" y="0px"
	 viewBox="0 0 444 56" width="444" height="56" style="enable-background:new 0 0 444 56;" xml:space="preserve">
<style type="text/css">
	.st0{fill:#D0EFF2;}
	.st1{fill:#2C5871;}
	.st2{fill:#EF344D;}
	.st3{fill:#FFFFFF;}
	.st4{fill:#72D0D9;}
	.st5{fill:#89D7DF;}
	.st6{fill:#A5D9E7;}
	.st7{fill:#DBE7F4;}
	.st8{fill:#A7C8E6;}
	.st9{fill:#FDC00F;}
	.st10{fill:#F9EB2A;}
	.st11{fill:#528CB0;}
</style>
<g>
	<g>
		<g>
			<path class="st0" d="M389.8,9.4c0.8-1.5,1.6-2.9,2.3-4.2c0.8-1.4,1.7-3,2.2-4c-3,0.4-9.9,2.3-17.1,8.1H389.8z"/>
		</g>
	</g>
	<path class="st1" d="M335.6,4.9c-4.9-0.3-9.5-0.3-13.6,0l5.3-2.8c0,0,5.7-0.8,18.6,1.1c12.9,1.9,19,3.9,19,3.9l0.4,1.6
		C357.7,7.4,344.8,5.5,335.6,4.9z"/>
	<g>
		<path class="st2" d="M399.5,11.6V9.1c0-1.9-1.6-3.5-3.5-3.5h-36c-1.9,0-3.5,1.6-3.5,3.5v2.4h-0.8V9.1c0-2.3,1.9-4.2,4.2-4.2h36
			c2.3,0,4.2,1.9,4.2,4.2v2.4H399.5z"/>
		<g>
			<rect x="393.4" y="5.3" class="st2" width="0.8" height="7"/>
			<rect x="385.5" y="5.3" class="st2" width="0.8" height="7"/>
			<rect x="377.6" y="5.3" class="st2" width="0.8" height="7"/>
			<rect x="369.8" y="5.3" class="st2" width="0.8" height="7"/>
			<rect x="361.9" y="5.3" class="st2" width="0.8" height="7"/>
		</g>
	</g>
	<path class="st3" d="M238.1,33c17.5,3,40.8,6.4,56,6.4c29.2,0,92.6,0,129,0l2.2,2.9h6.1v9.2H271.8c-3.2-0.3-6.2-0.7-8.6-1.1
		c-6.5-3.5-12.3-7.9-16-10.6C245.2,38.2,241.7,35.6,238.1,33z"/>
	<rect x="325.9" y="23.4" class="st3" width="63.7" height="3.7"/>
	<rect x="325.9" y="23.4" class="st4" width="63.7" height="3.7"/>
	<rect x="325.9" y="23.4" class="st1" width="63.7" height="0.2"/>
	<polygon class="st3" points="373.3,13.3 389.6,23.4 316.2,23.4 335.9,15.2 	"/>
	<polygon class="st5" points="373.3,13.3 389.6,23.4 316.2,23.4 335.9,15.2 	"/>
	<polygon class="st1" points="357.8,14.9 369.7,23.4 316.2,23.4 332.3,16.7 	"/>
	<path class="st6" d="M248.1,23.4h74.4c0,0,5.3-3.5,18-5.3c12.9-1.8,65.8-5.3,65.8-5.3l-6.3-2.1l-29-1.2c0,0-21.9-3.8-35.5-4.8
		c-31.2-2.1-48.1,11-48.1,11s-8.6,1.4-22.4,3.4C251.3,21.3,248.1,23.4,248.1,23.4z"/>
	<path class="st3" d="M248.1,23.4h74.4c0,0,5.3-3.5,18-5.3c12.9-1.8,65.8-5.3,65.8-5.3l-6.3-2.1l-29-1.2c0,0-21.9-3.8-35.5-4.8
		c-31.2-2.1-48.1,11-48.1,11s-8.6,1.4-22.4,3.4C251.3,21.3,248.1,23.4,248.1,23.4z"/>
	<path class="st1" d="M274.8,23.4c5.1-1.1,12.4-2.4,14.9-2.1c3.3,0.4,4.3,1.7,4.6,2.1H274.8z"/>
	<path class="st0" d="M287.5,15.9c0,0,2.2-1.7,6.4-3.8h29.2h30.8l2,0.7h50.5c0,0-21.6,1.4-40.5,2.9c-19.6,0-43.7,0.5-58.7,1.3
		c-27.5,1.4-59,6.4-59,6.4s3.1-2.1,16.9-4.1C278.9,17.2,287.5,15.9,287.5,15.9z"/>
	<g>
		<g>
			<path class="st2" d="M335.6,18.2c9.2,0,17.7,3.3,24,9.3c0.1,0.1,0.3,0.3,0.4,0.4h-1.1c-6.1-5.8-14.4-8.9-23.3-8.9H222v-0.8H335.6
				z"/>
		</g>
		<g>
			<rect x="340.8" y="18.7" class="st2" width="0.8" height="9.1"/>
			<rect x="326.4" y="18.7" class="st2" width="0.8" height="9.1"/>
			<rect x="312" y="18.7" class="st2" width="0.8" height="9.1"/>
			<rect x="297.6" y="18.7" class="st2" width="0.8" height="9.1"/>
			<rect x="283.2" y="18.7" class="st2" width="0.8" height="9.1"/>
			<rect x="268.9" y="18.7" class="st2" width="0.8" height="9.1"/>
			<rect x="254.5" y="18.7" class="st2" width="0.8" height="9.1"/>
			<rect x="240.1" y="18.7" class="st2" width="0.8" height="9.1"/>
			<polygon class="st2" points="232.7,27.9 233.4,27.9 226.5,18.7 225.7,18.7 			"/>
		</g>
		<g>
			<rect x="409.4" y="25.2" class="st2" width="0.8" height="9.1"/>
			<rect x="395" y="25.2" class="st2" width="0.8" height="9.1"/>
			<rect x="380.6" y="25.2" class="st2" width="0.8" height="9.1"/>
			<rect x="366.2" y="25.2" class="st2" width="0.8" height="9.1"/>
		</g>
		<polygon class="st2" points="356.9,25.8 412.6,25.8 412.6,25.1 356.1,25.1 		"/>
	</g>
	<path class="st1" d="M297.9,15.3c-2.8,0.4-6.3,0.3-9.6,0c1.5-1,5-3.2,10.4-5.3c9.2-0.1,24.6-0.2,29.2,0.1c6.7,0.4,12.1,2,12.1,2
		S305.4,14.2,297.9,15.3z"/>
	<path class="st3" d="M274,54.6c-10.4-2.6-21.1-10.8-26.8-14.9c-3.7-2.7-11.7-8.7-16.9-12.7h183.4l11.5,15.2h6.1V56H283.2
		C279.5,55.6,276.3,55.2,274,54.6z"/>
	<path class="st7" d="M272.6,54.3c-10-2.9-20-10.6-25.4-14.5c-1.1-0.8-2.5-1.9-4.2-3.1c16.7,2.7,37.2,5.5,51.1,5.5
		c29.8,0,95.2,0,131.2,0l0,0h6.1v12.1H272.6z"/>
	<path class="st3" d="M246.4,39.1c14.4,2.6,39.9,6.8,55.3,6.8c35.1,0,129.6,0,129.6,0v10H283.2c-3.7-0.4-6.9-0.8-9.2-1.4
		c-10.4-2.6-21.1-10.8-26.8-14.9C247,39.5,246.7,39.3,246.4,39.1z"/>
	<path class="st8" d="M246.4,39.1c14.4,2.6,39.9,6.8,55.3,6.8c35.1,0,129.6,0,129.6,0v10H283.2c-3.7-0.4-6.9-0.8-9.2-1.4
		c-10.4-2.6-21.1-10.8-26.8-14.9C247,39.5,246.7,39.3,246.4,39.1z"/>
	<path class="st9" d="M444,42.2c0,0-35.2,0-39.7,0s-5.5-2.9-5.5-2.9H444V42.2z"/>
	<path class="st10" d="M398.8,39.3H444V41c0,0-35.2,0-39.7,0S398.8,39.3,398.8,39.3z"/>
	<path class="st3" d="M225.5,23.4h116.9l14,3.7H230.3C227.5,24.9,225.5,23.4,225.5,23.4z"/>
	<path class="st0" d="M225.5,23.4h116.9l14,3.7H230.3C227.5,24.9,225.5,23.4,225.5,23.4z"/>
	<g>
		<path class="st1" d="M328.4,35.8c0,0.8,0.6,1.4,1.4,1.4l0,0c0.8,0,1.4-0.6,1.4-1.4v-4c0-0.8-0.6-1.4-1.4-1.4l0,0
			c-0.8,0-1.4,0.6-1.4,1.4V35.8z"/>
		<path class="st1" d="M324.1,35.8c0,0.8,0.6,1.4,1.4,1.4l0,0c0.8,0,1.4-0.6,1.4-1.4v-4c0-0.8-0.6-1.4-1.4-1.4l0,0
			c-0.8,0-1.4,0.6-1.4,1.4V35.8z"/>
		<path class="st1" d="M319.8,35.8c0,0.8,0.6,1.4,1.4,1.4l0,0c0.8,0,1.4-0.6,1.4-1.4v-4c0-0.8-0.6-1.4-1.4-1.4l0,0
			c-0.8,0-1.4,0.6-1.4,1.4V35.8z"/>
		<path class="st1" d="M343,35.8c0,0.8,0.6,1.4,1.4,1.4l0,0c0.8,0,1.4-0.6,1.4-1.4v-4c0-0.8-0.6-1.4-1.4-1.4l0,0
			c-0.8,0-1.4,0.6-1.4,1.4V35.8z"/>
		<path class="st1" d="M338.7,35.8c0,0.8,0.6,1.4,1.4,1.4l0,0c0.8,0,1.4-0.6,1.4-1.4v-4c0-0.8-0.6-1.4-1.4-1.4l0,0
			c-0.8,0-1.4,0.6-1.4,1.4V35.8z"/>
	</g>
	<g>
		<g>
			<path class="st1" d="M303.4,28.5c-0.6,0-1.1,0.5-1.1,1.1l0,0c0,0.6,0.5,1.1,1.1,1.1h3c0.6,0,1.1-0.5,1.1-1.1l0,0
				c0-0.6-0.5-1.1-1.1-1.1H303.4z"/>
			<path class="st1" d="M296.8,28.5c-0.6,0-1.1,0.5-1.1,1.1l0,0c0,0.6,0.5,1.1,1.1,1.1h3c0.6,0,1.1-0.5,1.1-1.1l0,0
				c0-0.6-0.5-1.1-1.1-1.1H296.8z"/>
		</g>
		<g>
			<path class="st1" d="M260.3,28.5c-0.6,0-1.1,0.5-1.1,1.1l0,0c0,0.6,0.5,1.1,1.1,1.1h3c0.6,0,1.1-0.5,1.1-1.1l0,0
				c0-0.6-0.5-1.1-1.1-1.1H260.3z"/>
			<path class="st1" d="M282.5,28.5c-0.6,0-1.1,0.5-1.1,1.1l0,0c0,0.6,0.5,1.1,1.1,1.1h3c0.6,0,1.1-0.5,1.1-1.1l0,0
				c0-0.6-0.5-1.1-1.1-1.1H282.5z"/>
			<path class="st1" d="M253.6,28.5c-0.6,0-1.1,0.5-1.1,1.1l0,0c0,0.6,0.5,1.1,1.1,1.1h3c0.6,0,1.1-0.5,1.1-1.1l0,0
				c0-0.6-0.5-1.1-1.1-1.1H253.6z"/>
		</g>
	</g>
	<g>
		<path class="st1" d="M384.3,33.6c-0.6,0-1.1,0.5-1.1,1.1l0,0c0,0.6,0.5,1.1,1.1,1.1h3c0.6,0,1.1-0.5,1.1-1.1l0,0
			c0-0.6-0.5-1.1-1.1-1.1H384.3z"/>
		<path class="st1" d="M377.6,33.6c-0.6,0-1.1,0.5-1.1,1.1l0,0c0,0.6,0.5,1.1,1.1,1.1h3c0.6,0,1.1-0.5,1.1-1.1l0,0
			c0-0.6-0.5-1.1-1.1-1.1H377.6z"/>
	</g>
	<g>
		<path class="st1" d="M309.4,24.2c-0.4,0-0.8-0.4-0.8-0.8h1.6C310.2,23.8,309.8,24.2,309.4,24.2z"/>
		<path class="st1" d="M307,24.2c-0.4,0-0.8-0.4-0.8-0.8h1.6C307.8,23.8,307.4,24.2,307,24.2z"/>
	</g>
	<path class="st1" d="M289.4,24.8c-0.2,0-0.4,0.2-0.4,0.4l0,0c0,0.2,0.2,0.4,0.4,0.4h1.2c0.2,0,0.4-0.2,0.4-0.4l0,0
		c0-0.2-0.2-0.4-0.4-0.4H289.4z"/>
	<path class="st1" d="M286,24.8c-0.2,0-0.4,0.2-0.4,0.4l0,0c0,0.2,0.2,0.4,0.4,0.4h1.2c0.2,0,0.4-0.2,0.4-0.4l0,0
		c0-0.2-0.2-0.4-0.4-0.4H286z"/>
	<path class="st1" d="M273.2,24.8c-0.2,0-0.4,0.2-0.4,0.4l0,0c0,0.2,0.2,0.4,0.4,0.4h1.2c0.2,0,0.4-0.2,0.4-0.4l0,0
		c0-0.2-0.2-0.4-0.4-0.4H273.2z"/>
	<path class="st11" d="M301.8,10c1.5,0,3,0,4.6,0l-5,4.9c-1.5,0.1-2.7,0.3-3.6,0.4c-0.5,0.1-1.1,0.1-1.6,0.2L301.8,10z"/>
	<path class="st11" d="M305.2,14.5c-0.7,0.1-1.4,0.1-2,0.2l4.8-4.8c0.6,0,1.2,0,1.8,0L305.2,14.5z"/>
	<path class="st11" d="M330.3,1.9c0.8,0,1.8,0,3,0l-2.7,2.7c-1,0-2,0-3,0L330.3,1.9z"/>
</g>
<g>
	<g>
		<g>
			<path class="st0" d="M54.2,9.4c-0.8-1.5-1.6-2.9-2.3-4.2c-0.8-1.4-1.7-3-2.2-4c3,0.4,9.9,2.3,17.1,8.1H54.2z"/>
		</g>
	</g>
	<path class="st1" d="M108.4,4.9c4.9-0.3,9.5-0.3,13.6,0l-5.3-2.8c0,0-5.7-0.8-18.6,1.1C85.3,5,79.2,7,79.2,7l-0.4,1.6
		C86.3,7.4,99.2,5.5,108.4,4.9z"/>
	<g>
		<path class="st2" d="M44.5,11.6V9.1c0-1.9,1.6-3.5,3.5-3.5h36c1.9,0,3.5,1.6,3.5,3.5v2.4h0.8V9.1c0-2.3-1.9-4.2-4.2-4.2H48
			c-2.3,0-4.2,1.9-4.2,4.2v2.4H44.5z"/>
		<g>
			<rect x="49.8" y="5.3" class="st2" width="0.8" height="7"/>
			<rect x="57.7" y="5.3" class="st2" width="0.8" height="7"/>
			<rect x="65.6" y="5.3" class="st2" width="0.8" height="7"/>
			<rect x="73.5" y="5.3" class="st2" width="0.8" height="7"/>
			<rect x="81.4" y="5.3" class="st2" width="0.8" height="7"/>
		</g>
	</g>
	<path class="st3" d="M205.9,33c-17.5,3-40.8,6.4-56,6.4c-29.2,0-92.6,0-129,0l-2.2,2.9h-6.1v9.2h159.6c3.2-0.3,6.2-0.7,8.6-1.1
		c6.5-3.5,12.3-7.9,16-10.6C198.8,38.2,202.3,35.6,205.9,33z"/>
	<rect x="54.4" y="23.4" class="st3" width="63.7" height="3.7"/>
	<rect x="54.4" y="23.4" class="st4" width="63.7" height="3.7"/>
	<rect x="54.4" y="23.4" class="st1" width="63.7" height="0.2"/>
	<polygon class="st3" points="70.7,13.3 54.4,23.4 127.8,23.4 108.1,15.2 	"/>
	<polygon class="st5" points="70.7,13.3 54.4,23.4 127.8,23.4 108.1,15.2 	"/>
	<polygon class="st1" points="86.2,14.9 74.3,23.4 127.8,23.4 111.7,16.7 	"/>
	<path class="st6" d="M195.9,23.4h-74.4c0,0-5.3-3.5-18-5.3c-12.9-1.8-65.8-5.3-65.8-5.3l6.3-2.1l29-1.2c0,0,21.9-3.8,35.5-4.8
		c31.2-2.1,48.1,11,48.1,11s8.6,1.4,22.4,3.4C192.7,21.3,195.9,23.4,195.9,23.4z"/>
	<path class="st3" d="M195.9,23.4h-74.4c0,0-5.3-3.5-18-5.3c-12.9-1.8-65.8-5.3-65.8-5.3l6.3-2.1l29-1.2c0,0,21.9-3.8,35.5-4.8
		c31.2-2.1,48.1,11,48.1,11s8.6,1.4,22.4,3.4C192.7,21.3,195.9,23.4,195.9,23.4z"/>
	<path class="st1" d="M169.2,23.4c-5.1-1.1-12.4-2.4-14.9-2.1c-3.3,0.4-4.3,1.7-4.6,2.1H169.2z"/>
	<path class="st0" d="M156.5,15.9c0,0-2.2-1.7-6.4-3.8h-29.2H90.1l-2,0.7H37.6c0,0,21.6,1.4,40.5,2.9c19.6,0,43.7,0.5,58.7,1.3
		c27.5,1.4,59,6.4,59,6.4s-3.1-2.1-16.9-4.1C165.1,17.2,156.5,15.9,156.5,15.9z"/>
	<g>
		<g>
			<path class="st2" d="M108.4,18.2c-9.2,0-17.7,3.3-24,9.3c-0.1,0.1-0.3,0.3-0.4,0.4h1.1c6.1-5.8,14.4-8.9,23.3-8.9H222v-0.8H108.4
				z"/>
		</g>
		<g>
			<rect x="102.4" y="18.7" class="st2" width="0.8" height="9.1"/>
			<rect x="116.8" y="18.7" class="st2" width="0.8" height="9.1"/>
			<rect x="131.2" y="18.7" class="st2" width="0.8" height="9.1"/>
			<rect x="145.6" y="18.7" class="st2" width="0.8" height="9.1"/>
			<rect x="160" y="18.7" class="st2" width="0.8" height="9.1"/>
			<rect x="174.4" y="18.7" class="st2" width="0.8" height="9.1"/>
			<rect x="188.8" y="18.7" class="st2" width="0.8" height="9.1"/>
			<rect x="203.1" y="18.7" class="st2" width="0.8" height="9.1"/>
			<polygon class="st2" points="211.3,27.9 210.6,27.9 217.5,18.7 218.3,18.7 			"/>
		</g>
		<g>
			<rect x="33.8" y="25.2" class="st2" width="0.8" height="9.1"/>
			<rect x="48.2" y="25.2" class="st2" width="0.8" height="9.1"/>
			<rect x="62.6" y="25.2" class="st2" width="0.8" height="9.1"/>
			<rect x="77" y="25.2" class="st2" width="0.8" height="9.1"/>
		</g>
		<polygon class="st2" points="87.1,25.8 31.4,25.8 31.4,25.1 87.9,25.1 		"/>
	</g>
	<path class="st1" d="M146.1,15.3c2.8,0.4,6.3,0.3,9.6,0c-1.5-1-5-3.2-10.4-5.3c-9.2-0.1-24.6-0.2-29.2,0.1c-6.7,0.4-12.1,2-12.1,2
		S138.6,14.2,146.1,15.3z"/>
	<path class="st3" d="M170,54.6c10.4-2.6,21.1-10.8,26.8-14.9c3.7-2.7,11.7-8.7,16.9-12.7H30.2L18.7,42.2h-6.1V56h148.2
		C164.5,55.6,167.7,55.2,170,54.6z"/>
	<path class="st7" d="M171.4,54.3c10-2.9,20-10.6,25.4-14.5c1.1-0.8,2.5-1.9,4.2-3.1c-16.7,2.7-37.2,5.5-51.1,5.5
		c-29.8,0-95.2,0-131.2,0l0,0h-6.1v12.1H171.4z"/>
	<path class="st3" d="M197.6,39.1c-14.4,2.6-39.9,6.8-55.3,6.8c-35.1,0-129.6,0-129.6,0v10h148.2c3.7-0.4,6.9-0.8,9.2-1.4
		c10.4-2.6,21.1-10.8,26.8-14.9C197,39.5,197.3,39.3,197.6,39.1z"/>
	<path class="st8" d="M197.6,39.1c-14.4,2.6-39.9,6.8-55.3,6.8c-35.1,0-129.6,0-129.6,0v10h148.2c3.7-0.4,6.9-0.8,9.2-1.4
		c10.4-2.6,21.1-10.8,26.8-14.9C197,39.5,197.3,39.3,197.6,39.1z"/>
	<path class="st9" d="M0,42.2c0,0,35.2,0,39.7,0s5.5-2.9,5.5-2.9H0V42.2z"/>
	<path class="st10" d="M45.2,39.3H0L0,41c0,0,35.2,0,39.7,0S45.2,39.3,45.2,39.3z"/>
	<path class="st3" d="M218.5,23.4H101.6l-14,3.7h126.1C216.5,24.9,218.5,23.4,218.5,23.4z"/>
	<path class="st0" d="M218.5,23.4H101.6l-14,3.7h126.1C216.5,24.9,218.5,23.4,218.5,23.4z"/>
	<g>
		<path class="st1" d="M115.6,35.8c0,0.8-0.6,1.4-1.4,1.4l0,0c-0.8,0-1.4-0.6-1.4-1.4v-4c0-0.8,0.6-1.4,1.4-1.4l0,0
			c0.8,0,1.4,0.6,1.4,1.4V35.8z"/>
		<path class="st1" d="M119.9,35.8c0,0.8-0.6,1.4-1.4,1.4l0,0c-0.8,0-1.4-0.6-1.4-1.4v-4c0-0.8,0.6-1.4,1.4-1.4l0,0
			c0.8,0,1.4,0.6,1.4,1.4V35.8z"/>
		<path class="st1" d="M124.2,35.8c0,0.8-0.6,1.4-1.4,1.4l0,0c-0.8,0-1.4-0.6-1.4-1.4v-4c0-0.8,0.6-1.4,1.4-1.4l0,0
			c0.8,0,1.4,0.6,1.4,1.4V35.8z"/>
		<path class="st1" d="M101,35.8c0,0.8-0.6,1.4-1.4,1.4l0,0c-0.8,0-1.4-0.6-1.4-1.4v-4c0-0.8,0.6-1.4,1.4-1.4l0,0
			c0.8,0,1.4,0.6,1.4,1.4V35.8z"/>
		<path class="st1" d="M105.3,35.8c0,0.8-0.6,1.4-1.4,1.4l0,0c-0.8,0-1.4-0.6-1.4-1.4v-4c0-0.8,0.6-1.4,1.4-1.4l0,0
			c0.8,0,1.4,0.6,1.4,1.4V35.8z"/>
	</g>
	<g>
		<g>
			<path class="st1" d="M140.6,28.5c0.6,0,1.1,0.5,1.1,1.1l0,0c0,0.6-0.5,1.1-1.1,1.1h-3c-0.6,0-1.1-0.5-1.1-1.1l0,0
				c0-0.6,0.5-1.1,1.1-1.1H140.6z"/>
			<path class="st1" d="M147.2,28.5c0.6,0,1.1,0.5,1.1,1.1l0,0c0,0.6-0.5,1.1-1.1,1.1h-3c-0.6,0-1.1-0.5-1.1-1.1l0,0
				c0-0.6,0.5-1.1,1.1-1.1H147.2z"/>
		</g>
		<g>
			<path class="st1" d="M183.7,28.5c0.6,0,1.1,0.5,1.1,1.1l0,0c0,0.6-0.5,1.1-1.1,1.1h-3c-0.6,0-1.1-0.5-1.1-1.1l0,0
				c0-0.6,0.5-1.1,1.1-1.1H183.7z"/>
			<path class="st1" d="M161.5,28.5c0.6,0,1.1,0.5,1.1,1.1l0,0c0,0.6-0.5,1.1-1.1,1.1h-3c-0.6,0-1.1-0.5-1.1-1.1l0,0
				c0-0.6,0.5-1.1,1.1-1.1H161.5z"/>
			<path class="st1" d="M190.4,28.5c0.6,0,1.1,0.5,1.1,1.1l0,0c0,0.6-0.5,1.1-1.1,1.1h-3c-0.6,0-1.1-0.5-1.1-1.1l0,0
				c0-0.6,0.5-1.1,1.1-1.1H190.4z"/>
		</g>
	</g>
	<g>
		<path class="st1" d="M59.7,33.6c0.6,0,1.1,0.5,1.1,1.1l0,0c0,0.6-0.5,1.1-1.1,1.1h-3c-0.6,0-1.1-0.5-1.1-1.1l0,0
			c0-0.6,0.5-1.1,1.1-1.1H59.7z"/>
		<path class="st1" d="M66.4,33.6c0.6,0,1.1,0.5,1.1,1.1l0,0c0,0.6-0.5,1.1-1.1,1.1h-3c-0.6,0-1.1-0.5-1.1-1.1l0,0
			c0-0.6,0.5-1.1,1.1-1.1H66.4z"/>
	</g>
	<g>
		<path class="st1" d="M134.6,24.2c0.4,0,0.8-0.4,0.8-0.8h-1.6C133.8,23.8,134.2,24.2,134.6,24.2z"/>
		<path class="st1" d="M137,24.2c0.4,0,0.8-0.4,0.8-0.8h-1.6C136.2,23.8,136.6,24.2,137,24.2z"/>
	</g>
	<path class="st1" d="M154.6,24.8c0.2,0,0.4,0.2,0.4,0.4l0,0c0,0.2-0.2,0.4-0.4,0.4h-1.2c-0.2,0-0.4-0.2-0.4-0.4l0,0
		c0-0.2,0.2-0.4,0.4-0.4H154.6z"/>
	<path class="st1" d="M158,24.8c0.2,0,0.4,0.2,0.4,0.4l0,0c0,0.2-0.2,0.4-0.4,0.4h-1.2c-0.2,0-0.4-0.2-0.4-0.4l0,0
		c0-0.2,0.2-0.4,0.4-0.4H158z"/>
	<path class="st1" d="M170.8,24.8c0.2,0,0.4,0.2,0.4,0.4l0,0c0,0.2-0.2,0.4-0.4,0.4h-1.2c-0.2,0-0.4-0.2-0.4-0.4l0,0
		c0-0.2,0.2-0.4,0.4-0.4H170.8z"/>
	<path class="st11" d="M142.2,10c-1.5,0-3,0-4.6,0l5,4.9c1.5,0.1,2.7,0.3,3.6,0.4c0.5,0.1,1.1,0.1,1.6,0.2L142.2,10z"/>
	<path class="st11" d="M138.8,14.5c0.7,0.1,1.4,0.1,2,0.2L136,9.9c-0.6,0-1.2,0-1.8,0L138.8,14.5z"/>
	<path class="st11" d="M113.7,1.9c-0.8,0-1.8,0-3,0l2.7,2.7c1,0,2,0,3,0L113.7,1.9z"/>
</g>
</svg>
