<?xml version="1.0" encoding="utf-8"?>
<!-- Generator: Adobe Illustrator 19.2.1, SVG Export Plug-In . SVG Version: 6.00 Build 0)  -->
<svg version="1.1" id="bussola" xmlns="http://www.w3.org/2000/svg" xmlns:xlink="http://www.w3.org/1999/xlink" x="0px" y="0px"
	 viewBox="0 0 512 512" width="512" height="512" style="enable-background:new 0 0 512 512;" xml:space="preserve">
<style type="text/css">
	.st0{fill:#FFFFFF;stroke:#000000;stroke-width:3;stroke-miterlimit:10;}
	.st1{fill:#FFFFFF;stroke:#B2B2B2;stroke-width:2;stroke-miterlimit:10;}
	.st2{fill:#E30613;}
	.st3{fill:#FFFFFF;stroke:#E5E5E5;stroke-width:9;stroke-miterlimit:10;}
</style>
<line class="st0" x1="256" y1="58" x2="256" y2="86"/>
<line class="st1" x1="263.4" y1="58.1" x2="262.3" y2="86.1"/>
<line class="st1" x1="270.8" y1="58.6" x2="268.7" y2="86.5"/>
<line class="st1" x1="278.1" y1="59.4" x2="275" y2="87.2"/>
<line class="st1" x1="285.5" y1="60.4" x2="281.3" y2="88.1"/>
<line class="st1" x1="292.7" y1="61.7" x2="287.5" y2="89.2"/>
<line class="st1" x1="300" y1="63.2" x2="293.8" y2="90.5"/>
<line class="st1" x1="307.1" y1="65.1" x2="299.9" y2="92.1"/>
<line class="st1" x1="314.2" y1="67.2" x2="306" y2="93.9"/>
<line class="st1" x1="321.2" y1="69.5" x2="312" y2="96"/>
<line class="st1" x1="328.2" y1="72.1" x2="317.9" y2="98.2"/>
<line class="st1" x1="335" y1="75" x2="323.8" y2="100.7"/>
<line class="st1" x1="341.7" y1="78.2" x2="329.5" y2="103.4"/>
<line class="st1" x1="348.3" y1="81.5" x2="335.2" y2="106.3"/>
<line class="st0" x1="354.9" y1="84.5" x2="340.9" y2="108.7"/>
<line class="st1" x1="361.2" y1="88.3" x2="346.3" y2="112"/>
<line class="st1" x1="367.4" y1="92.4" x2="351.6" y2="115.5"/>
<line class="st1" x1="373.4" y1="96.7" x2="356.8" y2="119.2"/>
<line class="st1" x1="379.2" y1="101.2" x2="361.8" y2="123.1"/>
<line class="st1" x1="384.9" y1="106" x2="366.6" y2="127.2"/>
<line class="st1" x1="390.4" y1="110.9" x2="371.3" y2="131.5"/>
<line class="st1" x1="395.7" y1="116.1" x2="375.9" y2="135.9"/>
<line class="st1" x1="400.8" y1="121.5" x2="380.3" y2="140.5"/>
<line class="st1" x1="405.7" y1="127" x2="384.4" y2="145.3"/>
<line class="st1" x1="410.3" y1="132.8" x2="388.5" y2="150.2"/>
<line class="st1" x1="414.8" y1="138.6" x2="392.3" y2="155.3"/>
<line class="st1" x1="419" y1="144.7" x2="395.9" y2="160.5"/>
<line class="st1" x1="423.1" y1="150.9" x2="399.4" y2="165.9"/>
<line class="st0" x1="427.3" y1="156.8" x2="403.1" y2="170.8"/>
<line class="st1" x1="430.9" y1="163.2" x2="406.2" y2="176.3"/>
<line class="st1" x1="434.2" y1="169.9" x2="409" y2="182"/>
<line class="st1" x1="437.3" y1="176.6" x2="411.6" y2="187.8"/>
<line class="st1" x1="440" y1="183.4" x2="414" y2="193.7"/>
<line class="st1" x1="442.6" y1="190.4" x2="416.2" y2="199.7"/>
<line class="st1" x1="444.8" y1="197.4" x2="418.1" y2="205.7"/>
<line class="st1" x1="446.9" y1="204.6" x2="419.8" y2="211.8"/>
<line class="st1" x1="448.6" y1="211.7" x2="421.3" y2="218"/>
<line class="st1" x1="450.1" y1="219" x2="422.6" y2="224.3"/>
<line class="st1" x1="451.3" y1="226.3" x2="423.6" y2="230.5"/>
<line class="st1" x1="452.2" y1="233.6" x2="424.4" y2="236.8"/>
<line class="st1" x1="452.8" y1="241" x2="424.9" y2="243.2"/>
<line class="st1" x1="453.2" y1="248.4" x2="425.2" y2="249.5"/>
<line class="st0" x1="454" y1="255.6" x2="426" y2="255.6"/>
<line class="st1" x1="453.9" y1="263" x2="425.9" y2="262"/>
<line class="st1" x1="453.4" y1="270.4" x2="425.5" y2="268.3"/>
<line class="st1" x1="452.7" y1="277.7" x2="424.9" y2="274.7"/>
<line class="st1" x1="451.7" y1="285.1" x2="424" y2="280.9"/>
<line class="st1" x1="450.4" y1="292.3" x2="422.9" y2="287.2"/>
<line class="st1" x1="448.9" y1="299.6" x2="421.5" y2="293.4"/>
<line class="st1" x1="447" y1="306.7" x2="420" y2="299.6"/>
<line class="st1" x1="445" y1="313.8" x2="418.2" y2="305.7"/>
<line class="st1" x1="442.6" y1="320.9" x2="416.2" y2="311.7"/>
<line class="st1" x1="440" y1="327.8" x2="413.9" y2="317.6"/>
<line class="st1" x1="437.1" y1="334.6" x2="411.4" y2="323.5"/>
<line class="st1" x1="434" y1="341.3" x2="408.8" y2="329.2"/>
<line class="st1" x1="430.7" y1="347.9" x2="405.9" y2="334.9"/>
<line class="st0" x1="427.7" y1="354.5" x2="403.5" y2="340.6"/>
<line class="st1" x1="424" y1="360.9" x2="400.2" y2="346"/>
<line class="st1" x1="419.9" y1="367" x2="396.7" y2="351.3"/>
<line class="st1" x1="415.6" y1="373" x2="393" y2="356.5"/>
<line class="st1" x1="411" y1="378.9" x2="389.1" y2="361.5"/>
<line class="st1" x1="406.3" y1="384.6" x2="385" y2="366.4"/>
<line class="st1" x1="401.3" y1="390.1" x2="380.7" y2="371.1"/>
<line class="st1" x1="396.2" y1="395.4" x2="376.3" y2="375.6"/>
<line class="st1" x1="390.8" y1="400.5" x2="371.7" y2="380"/>
<line class="st1" x1="385.3" y1="405.4" x2="367" y2="384.2"/>
<line class="st1" x1="379.6" y1="410.1" x2="362" y2="388.2"/>
<line class="st1" x1="373.7" y1="414.6" x2="357" y2="392.1"/>
<line class="st1" x1="367.6" y1="418.8" x2="351.8" y2="395.7"/>
<line class="st1" x1="361.4" y1="422.8" x2="346.4" y2="399.2"/>
<line class="st0" x1="355.6" y1="427.1" x2="341.5" y2="402.9"/>
<line class="st1" x1="349.1" y1="430.7" x2="336" y2="406"/>
<line class="st1" x1="342.5" y1="434" x2="330.3" y2="408.8"/>
<line class="st1" x1="335.8" y1="437.1" x2="324.5" y2="411.5"/>
<line class="st1" x1="328.9" y1="439.9" x2="318.6" y2="413.9"/>
<line class="st1" x1="322" y1="442.4" x2="312.6" y2="416"/>
<line class="st1" x1="315" y1="444.7" x2="306.6" y2="418"/>
<line class="st1" x1="307.8" y1="446.7" x2="300.5" y2="419.7"/>
<line class="st1" x1="300.7" y1="448.5" x2="294.3" y2="421.2"/>
<line class="st1" x1="293.4" y1="450" x2="288.1" y2="422.5"/>
<line class="st1" x1="286.1" y1="451.2" x2="281.8" y2="423.5"/>
<line class="st1" x1="278.8" y1="452.1" x2="275.5" y2="424.3"/>
<line class="st1" x1="271.4" y1="452.8" x2="269.2" y2="424.9"/>
<line class="st1" x1="264" y1="453.2" x2="262.9" y2="425.2"/>
<line class="st0" x1="256.8" y1="454" x2="256.7" y2="426"/>
<line class="st1" x1="249.4" y1="453.9" x2="250.4" y2="425.9"/>
<line class="st1" x1="242.1" y1="453.5" x2="244" y2="425.5"/>
<line class="st1" x1="234.7" y1="452.7" x2="237.7" y2="424.9"/>
<line class="st1" x1="227.4" y1="451.7" x2="231.4" y2="424"/>
<line class="st1" x1="220.1" y1="450.5" x2="225.2" y2="423"/>
<line class="st1" x1="212.8" y1="449" x2="218.9" y2="421.6"/>
<line class="st1" x1="205.7" y1="447.2" x2="212.8" y2="420.1"/>
<line class="st1" x1="198.6" y1="445.1" x2="206.7" y2="418.3"/>
<line class="st1" x1="191.5" y1="442.7" x2="200.7" y2="416.3"/>
<line class="st1" x1="184.6" y1="440.2" x2="194.7" y2="414"/>
<line class="st1" x1="177.8" y1="437.3" x2="188.9" y2="411.6"/>
<line class="st1" x1="171.1" y1="434.2" x2="183.1" y2="408.9"/>
<line class="st1" x1="164.5" y1="430.8" x2="177.4" y2="406"/>
<line class="st0" x1="157.8" y1="428" x2="171.7" y2="403.6"/>
<line class="st1" x1="151.5" y1="424.2" x2="166.3" y2="400.4"/>
<line class="st1" x1="145.3" y1="420.1" x2="161" y2="396.9"/>
<line class="st1" x1="139.3" y1="415.8" x2="155.8" y2="393.2"/>
<line class="st1" x1="133.4" y1="411.3" x2="150.8" y2="389.3"/>
<line class="st1" x1="127.7" y1="406.6" x2="145.9" y2="385.2"/>
<line class="st1" x1="122.2" y1="401.6" x2="141.2" y2="381"/>
<line class="st1" x1="116.9" y1="396.5" x2="136.6" y2="376.6"/>
<line class="st1" x1="111.8" y1="391.1" x2="132.2" y2="372"/>
<line class="st1" x1="106.9" y1="385.6" x2="128" y2="367.2"/>
<line class="st1" x1="102.2" y1="379.9" x2="124" y2="362.3"/>
<line class="st1" x1="97.7" y1="374" x2="120.1" y2="357.3"/>
<line class="st1" x1="93.4" y1="368" x2="116.5" y2="352.1"/>
<line class="st1" x1="89.4" y1="361.8" x2="113" y2="346.7"/>
<line class="st0" x1="85.1" y1="356" x2="109.3" y2="341.8"/>
<line class="st1" x1="81.5" y1="349.5" x2="106.2" y2="336.3"/>
<line class="st1" x1="78.1" y1="342.9" x2="103.3" y2="330.6"/>
<line class="st1" x1="75.1" y1="336.2" x2="100.7" y2="324.8"/>
<line class="st1" x1="72.3" y1="329.3" x2="98.3" y2="318.9"/>
<line class="st1" x1="69.7" y1="322.4" x2="96.1" y2="313"/>
<line class="st1" x1="67.4" y1="315.4" x2="94.1" y2="306.9"/>
<line class="st1" x1="65.4" y1="308.2" x2="92.4" y2="300.8"/>
<line class="st1" x1="63.6" y1="301.1" x2="90.9" y2="294.7"/>
<line class="st1" x1="62.1" y1="293.8" x2="89.6" y2="288.4"/>
<line class="st1" x1="60.9" y1="286.5" x2="88.5" y2="282.2"/>
<line class="st1" x1="59.9" y1="279.2" x2="87.7" y2="275.9"/>
<line class="st1" x1="59.2" y1="271.8" x2="87.1" y2="269.6"/>
<line class="st1" x1="58.8" y1="264.4" x2="86.8" y2="263.2"/>
<line class="st0" x1="58" y1="257.2" x2="86" y2="257.1"/>
<line class="st1" x1="58.1" y1="249.8" x2="86.1" y2="250.7"/>
<line class="st1" x1="58.5" y1="242.5" x2="86.5" y2="244.4"/>
<line class="st1" x1="59.2" y1="235.1" x2="87.1" y2="238.1"/>
<line class="st1" x1="60.2" y1="227.8" x2="87.9" y2="231.8"/>
<line class="st1" x1="61.4" y1="220.5" x2="89" y2="225.5"/>
<line class="st1" x1="63" y1="213.2" x2="90.3" y2="219.3"/>
<line class="st1" x1="64.7" y1="206.1" x2="91.8" y2="213.1"/>
<line class="st1" x1="66.8" y1="199" x2="93.6" y2="207"/>
<line class="st1" x1="69.1" y1="191.9" x2="95.6" y2="201"/>
<line class="st1" x1="71.7" y1="185" x2="97.8" y2="195"/>
<line class="st1" x1="74.5" y1="178.2" x2="100.3" y2="189.2"/>
<line class="st1" x1="77.6" y1="171.4" x2="102.9" y2="183.4"/>
<line class="st1" x1="81" y1="164.8" x2="105.8" y2="177.8"/>
<line class="st0" x1="83.8" y1="158.2" x2="108.2" y2="172"/>
<line class="st1" x1="87.6" y1="151.8" x2="111.4" y2="166.6"/>
<line class="st1" x1="91.7" y1="145.7" x2="114.9" y2="161.3"/>
<line class="st1" x1="96" y1="139.6" x2="118.6" y2="156.1"/>
<line class="st1" x1="100.5" y1="133.8" x2="122.5" y2="151.1"/>
<line class="st1" x1="105.2" y1="128.1" x2="126.5" y2="146.2"/>
<line class="st1" x1="110.1" y1="122.5" x2="130.8" y2="141.4"/>
<line class="st1" x1="115.2" y1="117.2" x2="135.2" y2="136.9"/>
<line class="st1" x1="120.6" y1="112.1" x2="139.8" y2="132.5"/>
<line class="st1" x1="126.1" y1="107.2" x2="144.5" y2="128.2"/>
<line class="st1" x1="131.8" y1="102.4" x2="149.4" y2="124.2"/>
<line class="st1" x1="137.7" y1="97.9" x2="154.4" y2="120.3"/>
<line class="st1" x1="143.7" y1="93.7" x2="159.6" y2="116.7"/>
<line class="st1" x1="149.9" y1="89.6" x2="165" y2="113.2"/>
<line class="st0" x1="155.7" y1="85.3" x2="169.9" y2="109.4"/>
<line class="st1" x1="162.1" y1="81.7" x2="175.4" y2="106.3"/>
<line class="st1" x1="168.7" y1="78.3" x2="181.1" y2="103.5"/>
<line class="st1" x1="175.5" y1="75.2" x2="186.9" y2="100.8"/>
<line class="st1" x1="182.3" y1="72.4" x2="192.7" y2="98.4"/>
<line class="st1" x1="189.2" y1="69.8" x2="198.7" y2="96.2"/>
<line class="st1" x1="196.2" y1="67.5" x2="204.7" y2="94.2"/>
<line class="st1" x1="203.4" y1="65.5" x2="210.8" y2="92.5"/>
<line class="st1" x1="210.5" y1="63.7" x2="217" y2="90.9"/>
<line class="st1" x1="217.8" y1="62.2" x2="223.2" y2="89.6"/>
<line class="st1" x1="225.1" y1="60.9" x2="229.5" y2="88.6"/>
<line class="st1" x1="232.4" y1="60" x2="235.8" y2="87.8"/>
<line class="st1" x1="239.8" y1="59.3" x2="242.1" y2="87.2"/>
<line class="st1" x1="247.2" y1="58.8" x2="248.4" y2="86.8"/>
<g>
	<path d="M244.6,96.9h4l15,23.2h0.1V96.9h3.6v28.6h-4.2l-14.9-22.9h-0.1v22.9h-3.6V96.9z"/>
</g>
<g>
	<path d="M262.7,394.8c-0.4-4.1-3.2-5.8-7.1-5.8c-3.2,0-6.4,1.2-6.4,4.9c0,3.5,4.6,4,9.2,5.1c4.6,1,9.1,2.6,9.1,8.2
		c0,6.1-6,8.5-11.2,8.5c-6.4,0-11.8-3.1-11.8-10.1h3.6c0,4.8,4,6.9,8.3,6.9c3.4,0,7.2-1.1,7.2-5.2c0-3.9-4.6-4.6-9.1-5.6
		c-4.6-1-9.2-2.3-9.2-7.6c0-5.8,5.2-8.4,10.4-8.4c5.8,0,10.3,2.8,10.5,9H262.7z"/>
</g>
<g>
	<path d="M109.8,242.1c9.1,0,13.7,7.2,13.7,15c0,7.8-4.6,15-13.7,15c-9.1,0-13.7-7.2-13.7-15C96.1,249.3,100.7,242.1,109.8,242.1z
		 M109.8,268.8c7,0,9.9-6,9.9-11.8c0-5.8-2.9-11.8-9.9-11.8c-7,0-9.9,6-9.9,11.8C99.9,262.8,102.8,268.8,109.8,268.8z"/>
</g>
<g>
	<path d="M393.7,242.8h19.7v3.2h-15.9v9.1h14.8v3.2h-14.8v9.9h16v3.2h-19.8V242.8z"/>
</g>
<polygon class="st2" points="277.1,38.8 277.1,49.6 256.7,35.8 236.3,49.6 236.3,38.8 256.7,25 "/>
<path class="st3" d="M199.6,389.6c-17.3-7.3-33-18-46.1-31.1c-13.1-13.1-23.7-28.7-31.1-46.1"/>
<path class="st3" d="M389.6,312.4c-7.3,17.3-18,33-31.1,46.1c-13.1,13.1-28.7,23.7-46.1,31.1"/>
<path class="st3" d="M312.4,122.4c17.3,7.3,33,18,46.1,31.1c13.1,13.1,23.7,28.7,31.1,46.1"/>
<path class="st3" d="M122.4,199.6c7.3-17.3,18-33,31.1-46.1s28.7-23.7,46.1-31.1"/>
</svg>
