<?xml version="1.0" encoding="utf-8"?>
<!-- Generator: Adobe Illustrator 19.2.1, SVG Export Plug-In . SVG Version: 6.00 Build 0)  -->
<svg version="1.1" id="Livello_1" xmlns="http://www.w3.org/2000/svg" xmlns:xlink="http://www.w3.org/1999/xlink" x="0px" y="0px"
	 viewBox="0 0 365 94" width="365" height="94" style="enable-background:new 0 0 365 94;" xml:space="preserve">
<style type="text/css">
	.st0{fill:#FFFFFF;}
	.st1{fill:#E30613;}
</style>
<g>
	<path class="st0" d="M56.5,93.9c-2.3,0-4.2-1.2-4.9-3.1h1.1c0.6,1.5,2.2,2.2,3.8,2.2c1.8,0,4-0.6,4-2.9c0-1.6-1.2-2.7-3.9-2.7
		c-3.4,0-4.8-1.5-4.8-3.6c0-2.7,1.8-3.8,4.7-3.8c2.3,0,4,1.2,4.7,3.2h-1.1c-0.6-1.5-2-2.2-3.5-2.2c-1.8,0-3.6,0.5-3.6,2.8
		c0,1.6,1,2.5,3.7,2.5c3.4,0,5,1.5,5,3.8C61.7,92.7,59.5,93.9,56.5,93.9z"/>
	<path class="st0" d="M71.5,93.7V80.1h1.1v13.6H71.5z"/>
	<path class="st0" d="M92.8,93.7v-4.3L85,81.7v12h-1.1V80.1H85l7.9,7.9v-7.9h1.1v13.6H92.8z"/>
	<path class="st0" d="M109.4,93.9c-2.7,0-5.1-2.3-5.1-5.1v-3.9c0-2.8,2.4-5.1,5.1-5.1c2.2,0,4.2,1.5,4.9,3.5h-1.1
		c-0.6-1.5-2.1-2.5-3.7-2.5c-2.1,0-4,1.7-4,3.9V89c0,2.2,1.9,3.9,4,3.9c1.6,0,3.2-1.1,3.8-2.6h1.2C113.6,92.4,111.6,93.9,109.4,93.9
		z"/>
	<path class="st0" d="M124.2,93.7V80.1h8.4v1h-7.3v5h7.3v1h-7.3v5.6h7.3v1H124.2z"/>
	<path class="st0" d="M159.2,81.1v12.6h-1.1V81.1h-4.6v-1h10.4v1H159.2z"/>
	<path class="st0" d="M177,93.9c-2.7,0-5.1-2.3-5.1-5.1V85c0-2.8,2.4-5.1,5.1-5.1c2.7,0,5.1,2.3,5.1,5.1v3.9
		C182.2,91.6,179.8,93.9,177,93.9z M181,84.8c0-2.2-1.9-4-4-4c-2.1,0-4,1.7-4,3.9V89c0,2.2,1.9,3.9,4,3.9c2.1,0,4-1.7,4-3.9V84.8z"
		/>
	<path class="st0" d="M203.2,93.7V81.6l-4.8,5.4l-4.8-5.4v12.1h-1.1V80.1h1.3l4.6,5.3l4.6-5.3h1.3v13.6H203.2z"/>
	<path class="st0" d="M219.7,93.9c-2.7,0-5.1-2.3-5.1-5.1V85c0-2.8,2.4-5.1,5.1-5.1c2.7,0,5.1,2.3,5.1,5.1v3.9
		C224.9,91.6,222.5,93.9,219.7,93.9z M223.7,84.8c0-2.2-1.9-4-4-4c-2.1,0-4,1.7-4,3.9V89c0,2.2,1.9,3.9,4,3.9c2.1,0,4-1.7,4-3.9
		V84.8z"/>
	<path class="st0" d="M241.2,87.7l3,6H243l-3-5.9h-3.8v5.9h-1.1V80.1h5.6c2,0,3.6,1.8,3.6,3.8C244.4,85.6,243.1,87.5,241.2,87.7z
		 M240.5,81.1h-4.3v5.7h4.3c1.7,0,2.7-1.5,2.7-2.9C243.2,82.6,242.1,81.1,240.5,81.1z"/>
	<path class="st0" d="M261.1,87.7l3,6h-1.2l-3-5.9h-3.8v5.9H255V80.1h5.6c2,0,3.6,1.8,3.6,3.8C264.3,85.6,263,87.5,261.1,87.7z
		 M260.4,81.1h-4.3v5.7h4.3c1.7,0,2.7-1.5,2.7-2.9C263.1,82.6,262,81.1,260.4,81.1z"/>
	<path class="st0" d="M279.1,93.9c-2.8,0-5.2-2.3-5.2-5.1V85c0-2.8,2.4-5.1,5.2-5.1c2.7,0,5.1,2.3,5.1,5.1v3.9
		C284.2,91.6,281.8,93.9,279.1,93.9z M283.1,84.8c0-2.2-1.9-4-4-4c-2.1,0-4,1.7-4,3.9V89c0,2.2,1.9,3.9,4,3.9c2,0,4-1.7,4-3.9V84.8z
		"/>
	<path class="st0" d="M306.7,93.9c-2.1,0-3.6-1.4-4-3.1c-0.3,1.7-1.9,3.1-4,3.1c-2.8,0-4.4-2.1-4.4-4.9v-8.9h1.1V89
		c0,2.2,1.3,3.9,3.3,3.9c2.1,0,3.3-1.7,3.3-3.9v-8.9h1.1V89c0,2.2,1.2,3.9,3.3,3.9c2.1,0,3.3-1.7,3.3-3.9v-8.9h1.1V89
		C311.1,91.7,309.5,93.9,306.7,93.9z"/>
</g>
<g>
	<g>
		<polygon class="st1" points="219.4,52.4 241.7,0.1 248.4,0.1 226.1,52.4 		"/>
		<polygon class="st1" points="233.9,52.4 256.2,0.1 262.9,0.1 240.7,52.4 		"/>
	</g>
	<polygon class="st1" points="347.2,0.1 339.7,0.1 357.5,26.4 339.7,52.6 347.2,52.6 365,26.4 	"/>
	<polygon class="st1" points="17.8,0.1 25.3,0.1 7.5,26.4 25.3,52.6 17.8,52.6 0,26.4 	"/>
</g>
<rect x="314.2" y="23.2" transform="matrix(0.7071 -0.7071 0.7071 0.7071 74.3086 232.1256)" class="st0" width="6.4" height="6.4"/>
<polygon class="st0" points="274.6,0.1 274.6,6.3 280.8,6.3 280.8,52.4 287,52.4 287,6.3 287,0.1 "/>
<polygon class="st0" points="298.7,0.1 298.7,6.3 321.8,6.3 321.8,52.4 328,52.4 328,6.3 328,0.1 "/>
<g>
	<polygon class="st0" points="81.4,0.1 81.4,0.1 81.4,0.1 62.3,33.5 43.2,0.1 43.2,0.1 43.2,0.1 37,0.1 37,52.4 43.2,52.4 
		43.2,12.5 58.7,39.7 62.3,45.9 65.9,39.7 81.4,12.5 81.4,52.4 87.6,52.4 87.6,0.1 	"/>
	<path class="st0" d="M194.6,0.1c-7.9,0-14.2,6.4-14.2,14.2v23.8c0,7.9,6.4,14.2,14.2,14.2c7.9,0,14.2-6.4,14.2-14.2V14.4
		C208.9,6.5,202.5,0.1,194.6,0.1z M202.7,38.2c0,4.4-3.6,8.1-8.1,8.1c-4.4,0-8.1-3.6-8.1-8.1V14.4c0-4.4,3.6-8.1,8.1-8.1
		c4.4,0,8.1,3.6,8.1,8.1l0,0V38.2L202.7,38.2z"/>
	<polygon class="st0" points="146.4,0.1 146.4,0.1 140.3,0.1 140.3,52.4 168.7,52.4 168.7,46.2 146.4,46.2 	"/>
</g>
<path class="st0" d="M114.3,0.1c-7.9,0-14.2,6.4-14.2,14.2v23.8h6.2V14.4c0-4.4,3.6-8.1,8.1-8.1c4.4,0,8.1,3.6,8.1,8.1h0v23.8h0
	c0,4.4-3.6,8.1-8.1,8.1v6.2c7.9,0,14.2-6.4,14.2-14.2V14.4C128.5,6.5,122.2,0.1,114.3,0.1z"/>
</svg>
