<?xml version="1.0" encoding="utf-8"?>
<!-- Generator: Adobe Illustrator 19.2.1, SVG Export Plug-In . SVG Version: 6.00 Build 0)  -->
<svg version="1.1" xmlns="http://www.w3.org/2000/svg" xmlns:xlink="http://www.w3.org/1999/xlink" x="0px" y="0px"
	 viewBox="0 0 650 610" width="650" height="610" style="enable-background:new 0 0 650 610;" xml:space="preserve">
<style type="text/css">
	.st0{fill:#BCA780;}
	.st1{fill:#875A49;}
	.st2{fill:#E30613;}
	.st3{fill:#FFFFFF;}
	.st4{fill:#666666;}
	.st5{stroke:#000000;stroke-linecap:round;stroke-linejoin:round;stroke-miterlimit:10;}
	.st6{fill:#666666;stroke:#000000;stroke-linecap:round;stroke-linejoin:round;stroke-miterlimit:10;}
	.st7{fill:none;stroke:#000000;stroke-linejoin:round;stroke-miterlimit:10;}
	.st8{fill:#845727;}
	.st9{fill:#663909;}
	.st10{fill:#C00F11;}
	.st11{fill:#320200;}
	.st12{fill:#320200;stroke:#320200;stroke-miterlimit:10;}
	.st13{fill:#C00F11;stroke:#320200;stroke-miterlimit:10;}
	.st14{fill:none;stroke:#320200;stroke-linejoin:round;stroke-miterlimit:10;}
</style>
<g id="ormeggio1">
	<polygon class="st0" points="480.1,364.1 465.2,112.7 450.2,113.8 473.8,364.1 	"/>
	<polygon class="st1" points="465.2,112.7 450.2,113.8 455.4,168.7 468.2,162.8 	"/>
	<g>
		
			<rect x="308" y="10.2" transform="matrix(0.9976 -6.975647e-02 6.975647e-02 0.9976 -4.3739 32.0255)" class="st2" width="296.7" height="136.9"/>
		<g>
			<path class="st3" d="M599.1,127.9l-277.3,19.4l-8.2-117.9L590.9,10L599.1,127.9z"/>
		</g>
	</g>
	<g>
		<g>
			<g>
				<g>
					<g>
						<polygon class="st2" points="469.3,66.5 477.4,43.1 480.3,42.9 472.2,66.3 						"/>
						<polygon class="st2" points="475.6,66 483.7,42.6 486.6,42.4 478.5,65.8 						"/>
					</g>
					<polygon class="st2" points="523.3,39.9 520,40.1 528.5,51 521.6,62.9 524.9,62.7 531.8,50.7 					"/>
					<polygon class="st2" points="380.1,49.9 383.4,49.7 376.4,61.6 385,72.5 381.7,72.7 373.2,61.8 					"/>
				</g>
				<rect x="509.7" y="50.8" transform="matrix(0.656 -0.7547 0.7547 0.656 136.4158 403.676)" width="2.8" height="2.8"/>
				<polygon points="491.7,42.1 491.9,44.8 494.6,44.6 496,64.6 498.7,64.4 497.3,44.4 497.1,41.7 				"/>
				<polygon points="502.2,41.3 502.4,44 512.4,43.3 513.8,63.4 516.5,63.2 515.1,43.1 514.9,40.5 				"/>
				<g>
					<polygon points="407.8,47.9 407.8,47.9 407.8,47.9 400.5,63 391.1,49.1 391.1,49.1 391.1,49.1 388.5,49.3 390,72 392.7,71.8 
						391.5,54.5 399.1,65.8 400.8,68.4 402.2,65.6 408.1,53.3 409.4,70.7 412,70.5 410.5,47.8 					"/>
					<path d="M456.9,44.5c-3.4,0.2-6,3.2-5.8,6.6l0.7,10.3c0.2,3.4,3.2,6,6.6,5.8c3.4-0.2,6-3.2,5.8-6.6l-0.7-10.3
						C463.3,46.8,460.4,44.3,456.9,44.5z M461.6,60.8c0.1,1.9-1.3,3.6-3.3,3.7c-1.9,0.1-3.6-1.3-3.7-3.3l-0.7-10.3
						c-0.1-1.9,1.3-3.6,3.3-3.7c1.9-0.1,3.6,1.3,3.7,3.3l0,0L461.6,60.8L461.6,60.8z"/>
					<polygon points="436,46 436,46 433.3,46.2 434.9,68.9 447.3,68 447.1,65.3 437.4,66 					"/>
				</g>
				<path d="M422,46.9c-3.4,0.2-6,3.2-5.8,6.6l0.7,10.3l2.7-0.2L419,53.4c-0.1-1.9,1.3-3.6,3.3-3.7c1.9-0.1,3.6,1.3,3.7,3.3l0,0
					l0.7,10.3l0,0c0.1,1.9-1.3,3.6-3.3,3.7l0.2,2.7c3.4-0.2,6-3.2,5.8-6.6l-0.7-10.3C428.4,49.3,425.5,46.7,422,46.9z"/>
			</g>
		</g>
	</g>
	<g>
		<path class="st4" d="M561.2,303.6c0-14.9,0-66.8,0-66.8c0-28.8-18-39-34-39c-1.4,0-34.4,0-46.5,0c-14,0-20,4.5-28.5,13
			s-11.5,26-6,26h25l0,0c11.5,0,11.5,11.5,11.5,11.5s0,40.4,0,55.3s-18.5,1.4-18.5,14.1s0,41.4,0,41.4c0,3.6,0,4.4,12.6,4.4h45h45
			c12.9,0,12.9-0.9,12.9-4.4c0,0,0-28.8,0-41.4S561.2,318.5,561.2,303.6z"/>
	</g>
	<path d="M521.8,236.8c-5.3-0.3-63.7-4-68.6-7c-7.7-4.7-1-19-1-19c-8.5,8.5-11.5,26-6,26h25c11.5,0,11.5,11.5,11.5,11.5
		s0,40.4,0,55.3s-18.5,1.4-18.5,14.1s0,41.4,0,41.4c0,3.6,0,4.4,12.6,4.4h45V236.8L521.8,236.8z"/>
	<g>
		<path class="st5" d="M482.7,299.2c-1.9,0-3.5,1.6-3.5,3.5s1.6,3.5,3.5,3.5h39.1v-7H482.7z"/>
		<path class="st6" d="M561.2,299.2h-39.9v7h39.9c1.9,0,3.5-1.6,3.5-3.5S563.2,299.2,561.2,299.2z"/>
	</g>
	<line class="st7" x1="579.7" y1="317.6" x2="521.8" y2="317.6"/>
	<line class="st7" x1="579.7" y1="359" x2="521.8" y2="359"/>
	<rect y="363.5" class="st8" width="650" height="15"/>
	<rect x="580" y="378.5" class="st8" width="15" height="231.5"/>
	<rect x="580" y="378.5" class="st9" width="15" height="12.7"/>
	<g>
		<path d="M356.8,113.5c-0.1-1.2-0.5-2.1-1.1-2.7c-0.7-0.6-1.8-1.2-3.4-1.8c-3.3-0.9-5.7-1.9-7.4-3.2c-1.7-1.3-2.6-3.2-2.8-5.7
			c-0.2-2.5,0.6-4.6,2.3-6.3c1.7-1.7,4-2.7,6.9-2.9c2.9-0.2,5.3,0.5,7.3,2.1s3,3.8,3.1,6.4l0,0.1l-5.8,0.4c-0.1-1.4-0.5-2.5-1.3-3.3
			c-0.8-0.8-1.8-1.2-3-1.1c-1.2,0.1-2.1,0.5-2.7,1.3s-0.9,1.7-0.8,2.8c0.1,1,0.5,1.8,1.3,2.4c0.8,0.6,2.1,1.2,4,1.9
			c3,0.8,5.2,1.8,6.8,3.2c1.6,1.4,2.4,3.4,2.6,5.9c0.2,2.6-0.5,4.8-2.2,6.4s-3.9,2.5-6.8,2.8c-2.9,0.2-5.5-0.5-7.7-2
			c-2.3-1.5-3.5-3.9-3.6-7.1l0-0.1l5.8-0.4c0.1,1.9,0.6,3.2,1.5,4c0.9,0.8,2.1,1.1,3.7,1c1.3-0.1,2.2-0.5,2.7-1.2
			C356.6,115.6,356.8,114.7,356.8,113.5z"/>
		<path d="M374.6,115.9c0.8-0.1,1.4-0.4,1.8-1c0.4-0.6,0.5-1.5,0.4-2.6l5.4-0.4l0.1,0.1c0.2,2.4-0.4,4.4-1.8,6s-3.2,2.5-5.6,2.7
			c-2.9,0.2-5.3-0.6-7-2.4c-1.7-1.8-2.7-4.2-2.9-7.2l-0.2-2.9c-0.2-3,0.4-5.5,1.8-7.6s3.6-3.2,6.5-3.4c2.5-0.2,4.5,0.5,6,1.9
			c1.6,1.5,2.4,3.5,2.6,6.2l0,0.1l-5.4,0.4c-0.1-1.2-0.4-2.2-0.8-2.9c-0.5-0.7-1.1-1-2-1c-1.2,0.1-2,0.7-2.3,1.7
			c-0.4,1-0.5,2.4-0.4,4.1l0.2,2.9c0.1,1.7,0.4,3.1,1,4C372.5,115.5,373.4,116,374.6,115.9z"/>
		<path d="M384,106.7c-0.2-3,0.4-5.6,1.9-7.6c1.5-2.1,3.7-3.2,6.6-3.4c2.9-0.2,5.2,0.6,7,2.4c1.8,1.8,2.8,4.2,3,7.3l0.2,2.8
			c0.2,3.1-0.4,5.6-1.9,7.7c-1.5,2-3.7,3.2-6.6,3.4c-2.9,0.2-5.3-0.6-7-2.4c-1.8-1.8-2.7-4.2-3-7.3L384,106.7z M390.2,109.1
			c0.1,1.7,0.5,3.1,1,4.1c0.6,1,1.4,1.4,2.7,1.3c1.2-0.1,2-0.6,2.4-1.7c0.4-1,0.6-2.4,0.4-4.2l-0.2-2.8c-0.1-1.7-0.5-3-1-4
			c-0.6-1-1.4-1.4-2.6-1.3c-1.2,0.1-2,0.7-2.4,1.7c-0.4,1.1-0.6,2.4-0.4,4.1L390.2,109.1z"/>
		<path d="M423.6,107c0.2,3-0.3,5.5-1.4,7.4c-1.2,1.9-2.9,3-5.3,3.2c-0.9,0.1-1.8-0.1-2.5-0.4c-0.7-0.3-1.4-0.8-2-1.5l0.8,10.5
			l-5.9,0.4l-2.3-31.4l5.5-0.4l0.4,2.2c0.5-0.9,1.1-1.6,1.8-2.1c0.7-0.5,1.6-0.8,2.5-0.9c2.4-0.2,4.3,0.7,5.8,2.5
			c1.5,1.9,2.3,4.4,2.5,7.6L423.6,107z M417.4,104.6c-0.1-1.8-0.5-3.2-1.1-4.3c-0.6-1-1.4-1.5-2.5-1.5c-0.6,0-1.2,0.2-1.6,0.6
			c-0.4,0.3-0.8,0.8-1,1.4l0.8,10.7c0.3,0.5,0.7,0.8,1.2,1.1c0.5,0.2,1,0.3,1.7,0.3c1.1-0.1,1.9-0.6,2.3-1.6c0.4-1,0.6-2.3,0.4-3.9
			L417.4,104.6z"/>
		<path d="M436.8,98.3l-2.2,0.1c-0.6,0-1.1,0.2-1.5,0.6c-0.4,0.3-0.7,0.8-0.9,1.4l1.1,15.5l-5.9,0.4l-1.7-22.7l5.5-0.4l0.5,3l0.1,0
			c0.3-1.1,0.7-2,1.3-2.7c0.6-0.7,1.3-1,2.2-1.1c0.3,0,0.6,0,0.9,0c0.3,0,0.6,0.1,0.8,0.1L436.8,98.3z"/>
		<path d="M445.2,86.7l-5.9,0.4l-0.3-4.5l5.9-0.4L445.2,86.7z M447.3,114.9l-5.9,0.4l-1.7-22.7l5.9-0.4L447.3,114.9z"/>
		<path d="M459.2,102.7c-0.3-3.6,0.2-6.5,1.3-8.8c1.2-2.3,2.9-3.5,5.3-3.7c0.9-0.1,1.7,0.1,2.4,0.5c0.7,0.4,1.4,0.9,2,1.7l-0.9-12
			l5.9-0.4l2.4,32.7l-5.2,0.4l-0.6-2.4c-0.5,1-1.1,1.8-1.9,2.3c-0.7,0.6-1.6,0.9-2.6,0.9c-2.4,0.2-4.3-0.7-5.8-2.7
			c-1.5-1.9-2.3-4.6-2.6-8L459.2,102.7z M465.2,102.7c0.1,2,0.5,3.6,1,4.7c0.6,1.1,1.4,1.6,2.5,1.5c0.6,0,1.1-0.2,1.6-0.5
			s0.8-0.8,1.1-1.3l-0.8-10.3c-0.4-0.6-0.8-1.1-1.3-1.4c-0.5-0.3-1-0.5-1.6-0.4c-1.1,0.1-1.9,0.8-2.2,2.1c-0.4,1.3-0.5,3.1-0.4,5.2
			L465.2,102.7z"/>
		<path d="M485.8,83.8l-5.9,0.4l-0.3-4.5l5.9-0.4L485.8,83.8z M487.9,111.9l-5.9,0.4l-1.7-22.7l5.9-0.4L487.9,111.9z"/>
		<path d="M518.5,100c0.2,3-0.3,5.5-1.4,7.4c-1.2,1.9-2.9,3-5.3,3.2c-0.9,0.1-1.8-0.1-2.5-0.4c-0.7-0.3-1.4-0.8-2-1.5l0.8,10.5
			l-5.9,0.4l-2.3-31.4l5.5-0.4l0.4,2.2c0.5-0.9,1.1-1.6,1.8-2.1c0.7-0.5,1.6-0.8,2.5-0.9c2.4-0.2,4.3,0.7,5.8,2.5
			c1.5,1.9,2.3,4.4,2.5,7.6L518.5,100z M512.3,97.6c-0.1-1.8-0.5-3.2-1.1-4.3c-0.6-1-1.4-1.5-2.5-1.5c-0.6,0-1.2,0.2-1.6,0.6
			c-0.4,0.3-0.8,0.8-1,1.4l0.8,10.7c0.3,0.5,0.7,0.8,1.2,1.1c0.5,0.2,1,0.3,1.7,0.3c1.1-0.1,1.9-0.6,2.3-1.6c0.4-1,0.6-2.3,0.4-3.9
			L512.3,97.6z"/>
		<path d="M526.4,80.8l-5.9,0.4l-0.3-4.5l5.9-0.4L526.4,80.8z M528.5,108.9l-5.9,0.4l-1.7-22.7l5.9-0.4L528.5,108.9z"/>
		<path d="M543.9,105.1c-0.5,1-1.2,1.8-2.1,2.4c-0.8,0.6-1.8,0.9-2.9,1c-2,0.1-3.7-0.5-4.9-1.9c-1.2-1.4-2-3.8-2.2-7l-1-13.7
			l5.9-0.4l1,13.8c0.1,1.6,0.4,2.8,0.8,3.5c0.4,0.7,1.1,1,1.8,1c0.7,0,1.2-0.2,1.7-0.5c0.5-0.3,0.9-0.7,1.2-1.2l-1.2-16.9l6-0.4
			l1.7,22.7l-5.2,0.4L543.9,105.1z M542.2,82.3l-4.8,0.4l-5.6-5.1l0.1-0.1l6.2-0.5L542.2,82.3z"/>
		<path d="M560,106.6l-5.9,0.4l-0.4-5.4l5.9-0.4L560,106.6z"/>
		<path d="M571.4,105.8l-5.9,0.4l-0.4-5.4l5.9-0.4L571.4,105.8z"/>
		<path d="M582.8,104.9l-5.9,0.4l-0.4-5.4l5.9-0.4L582.8,104.9z"/>
	</g>
</g>
<g id="ormeggio2">
	<polygon class="st0" points="480.1,364.1 465.2,112.7 450.2,113.8 473.8,364.1 	"/>
	<polygon class="st1" points="465.2,112.7 450.2,113.8 455.4,168.7 468.2,162.8 	"/>
	<g>
		
			<rect x="308" y="10.2" transform="matrix(0.9976 -6.975647e-02 6.975647e-02 0.9976 -4.3739 32.0255)" class="st2" width="296.7" height="136.9"/>
	</g>
	<g>
		<g>
			<g>
				<g>
					<g>
						<polygon class="st3" points="469.3,66.5 477.4,43.1 480.3,42.9 472.2,66.3 						"/>
						<polygon class="st3" points="475.6,66 483.7,42.6 486.6,42.4 478.5,65.8 						"/>
					</g>
					<polygon class="st3" points="523.3,39.9 520,40.1 528.5,51 521.6,62.9 524.9,62.7 531.8,50.7 					"/>
					<polygon class="st3" points="380.1,49.9 383.4,49.7 376.4,61.6 385,72.5 381.7,72.7 373.2,61.8 					"/>
				</g>
				<rect x="509.7" y="50.8" transform="matrix(0.656 -0.7547 0.7547 0.656 136.4158 403.676)" width="2.8" height="2.8"/>
				<polygon points="491.7,42.1 491.9,44.8 494.6,44.6 496,64.6 498.7,64.4 497.3,44.4 497.1,41.7 				"/>
				<polygon points="502.2,41.3 502.4,44 512.4,43.3 513.8,63.4 516.5,63.2 515.1,43.1 514.9,40.5 				"/>
				<g>
					<polygon points="407.8,47.9 407.8,47.9 407.8,47.9 400.5,63 391.1,49.1 391.1,49.1 391.1,49.1 388.5,49.3 390,72 392.7,71.8 
						391.5,54.5 399.1,65.8 400.8,68.4 402.2,65.6 408.1,53.3 409.4,70.7 412,70.5 410.5,47.8 					"/>
					<path d="M456.9,44.5c-3.4,0.2-6,3.2-5.8,6.6l0.7,10.3c0.2,3.4,3.2,6,6.6,5.8c3.4-0.2,6-3.2,5.8-6.6l-0.7-10.3
						C463.3,46.8,460.4,44.3,456.9,44.5z M461.6,60.8c0.1,1.9-1.3,3.6-3.3,3.7c-1.9,0.1-3.6-1.3-3.7-3.3l-0.7-10.3
						c-0.1-1.9,1.3-3.6,3.3-3.7c1.9-0.1,3.6,1.3,3.7,3.3l0,0L461.6,60.8L461.6,60.8z"/>
					<polygon points="436,46 436,46 433.3,46.2 434.9,68.9 447.3,68 447.1,65.3 437.4,66 					"/>
				</g>
				<path d="M422,46.9c-3.4,0.2-6,3.2-5.8,6.6l0.7,10.3l2.7-0.2L419,53.4c-0.1-1.9,1.3-3.6,3.3-3.7c1.9-0.1,3.6,1.3,3.7,3.3l0,0
					l0.7,10.3l0,0c0.1,1.9-1.3,3.6-3.3,3.7l0.2,2.7c3.4-0.2,6-3.2,5.8-6.6l-0.7-10.3C428.4,49.3,425.5,46.7,422,46.9z"/>
			</g>
		</g>
	</g>
	<g>
		<path class="st10" d="M561.2,303.6c0-14.9,0-66.8,0-66.8c0-28.8-18-39-34-39c-1.4,0-34.4,0-46.5,0c-14,0-20,4.5-28.5,13
			s-11.5,26-6,26h25l0,0c11.5,0,11.5,11.5,11.5,11.5s0,40.4,0,55.3s-18.5,1.4-18.5,14.1s0,41.4,0,41.4c0,3.6,0,4.4,12.6,4.4h45h45
			c12.9,0,12.9-0.9,12.9-4.4c0,0,0-28.8,0-41.4S561.2,318.5,561.2,303.6z"/>
	</g>
	<path class="st11" d="M521.8,236.8c-5.3-0.3-63.7-4-68.6-7c-7.7-4.7-1-19-1-19c-8.5,8.5-11.5,26-6,26h25
		c11.5,0,11.5,11.5,11.5,11.5s0,40.4,0,55.3s-18.5,1.4-18.5,14.1s0,41.4,0,41.4c0,3.6,0,4.4,12.6,4.4h45V236.8L521.8,236.8z"/>
	<g>
		<path class="st12" d="M482.7,299.2c-1.9,0-3.5,1.6-3.5,3.5s1.6,3.5,3.5,3.5h39.1v-7H482.7z"/>
		<path class="st13" d="M561.2,299.2h-39.9v7h39.9c1.9,0,3.5-1.6,3.5-3.5S563.2,299.2,561.2,299.2z"/>
	</g>
	<line class="st14" x1="579.7" y1="317.6" x2="521.8" y2="317.6"/>
	<line class="st14" x1="579.7" y1="359" x2="521.8" y2="359"/>
	<rect y="363.5" class="st8" width="650" height="15"/>
	<rect x="580" y="378.5" class="st8" width="15" height="231.5"/>
	<rect x="580" y="378.5" class="st9" width="15" height="12.7"/>
	<g>
		<path class="st3" d="M356.8,113.5c-0.1-1.2-0.5-2.1-1.1-2.7c-0.7-0.6-1.8-1.2-3.4-1.8c-3.3-0.9-5.7-1.9-7.4-3.2
			c-1.7-1.3-2.6-3.2-2.8-5.7c-0.2-2.5,0.6-4.6,2.3-6.3c1.7-1.7,4-2.7,6.9-2.9c2.9-0.2,5.3,0.5,7.3,2.1s3,3.8,3.1,6.4l0,0.1l-5.8,0.4
			c-0.1-1.4-0.5-2.5-1.3-3.3c-0.8-0.8-1.8-1.2-3-1.1c-1.2,0.1-2.1,0.5-2.7,1.3s-0.9,1.7-0.8,2.8c0.1,1,0.5,1.8,1.3,2.4
			c0.8,0.6,2.1,1.2,4,1.9c3,0.8,5.2,1.8,6.8,3.2c1.6,1.4,2.4,3.4,2.6,5.9c0.2,2.6-0.5,4.8-2.2,6.4s-3.9,2.5-6.8,2.8
			c-2.9,0.2-5.5-0.5-7.7-2c-2.3-1.5-3.5-3.9-3.6-7.1l0-0.1l5.8-0.4c0.1,1.9,0.6,3.2,1.5,4c0.9,0.8,2.1,1.1,3.7,1
			c1.3-0.1,2.2-0.5,2.7-1.2C356.6,115.6,356.8,114.7,356.8,113.5z"/>
		<path class="st3" d="M374.6,115.9c0.8-0.1,1.4-0.4,1.8-1c0.4-0.6,0.5-1.5,0.4-2.6l5.4-0.4l0.1,0.1c0.2,2.4-0.4,4.4-1.8,6
			s-3.2,2.5-5.6,2.7c-2.9,0.2-5.3-0.6-7-2.4c-1.7-1.8-2.7-4.2-2.9-7.2l-0.2-2.9c-0.2-3,0.4-5.5,1.8-7.6s3.6-3.2,6.5-3.4
			c2.5-0.2,4.5,0.5,6,1.9c1.6,1.5,2.4,3.5,2.6,6.2l0,0.1l-5.4,0.4c-0.1-1.2-0.4-2.2-0.8-2.9c-0.5-0.7-1.1-1-2-1
			c-1.2,0.1-2,0.7-2.3,1.7c-0.4,1-0.5,2.4-0.4,4.1l0.2,2.9c0.1,1.7,0.4,3.1,1,4C372.5,115.5,373.4,116,374.6,115.9z"/>
		<path class="st3" d="M384,106.7c-0.2-3,0.4-5.6,1.9-7.6c1.5-2.1,3.7-3.2,6.6-3.4c2.9-0.2,5.2,0.6,7,2.4c1.8,1.8,2.8,4.2,3,7.3
			l0.2,2.8c0.2,3.1-0.4,5.6-1.9,7.7c-1.5,2-3.7,3.2-6.6,3.4c-2.9,0.2-5.3-0.6-7-2.4c-1.8-1.8-2.7-4.2-3-7.3L384,106.7z M390.2,109.1
			c0.1,1.7,0.5,3.1,1,4.1c0.6,1,1.4,1.4,2.7,1.3c1.2-0.1,2-0.6,2.4-1.7c0.4-1,0.6-2.4,0.4-4.2l-0.2-2.8c-0.1-1.7-0.5-3-1-4
			c-0.6-1-1.4-1.4-2.6-1.3c-1.2,0.1-2,0.7-2.4,1.7c-0.4,1.1-0.6,2.4-0.4,4.1L390.2,109.1z"/>
		<path class="st3" d="M423.6,107c0.2,3-0.3,5.5-1.4,7.4c-1.2,1.9-2.9,3-5.3,3.2c-0.9,0.1-1.8-0.1-2.5-0.4c-0.7-0.3-1.4-0.8-2-1.5
			l0.8,10.5l-5.9,0.4l-2.3-31.4l5.5-0.4l0.4,2.2c0.5-0.9,1.1-1.6,1.8-2.1c0.7-0.5,1.6-0.8,2.5-0.9c2.4-0.2,4.3,0.7,5.8,2.5
			c1.5,1.9,2.3,4.4,2.5,7.6L423.6,107z M417.4,104.6c-0.1-1.8-0.5-3.2-1.1-4.3c-0.6-1-1.4-1.5-2.5-1.5c-0.6,0-1.2,0.2-1.6,0.6
			c-0.4,0.3-0.8,0.8-1,1.4l0.8,10.7c0.3,0.5,0.7,0.8,1.2,1.1c0.5,0.2,1,0.3,1.7,0.3c1.1-0.1,1.9-0.6,2.3-1.6c0.4-1,0.6-2.3,0.4-3.9
			L417.4,104.6z"/>
		<path class="st3" d="M436.8,98.3l-2.2,0.1c-0.6,0-1.1,0.2-1.5,0.6c-0.4,0.3-0.7,0.8-0.9,1.4l1.1,15.5l-5.9,0.4l-1.7-22.7l5.5-0.4
			l0.5,3l0.1,0c0.3-1.1,0.7-2,1.3-2.7c0.6-0.7,1.3-1,2.2-1.1c0.3,0,0.6,0,0.9,0c0.3,0,0.6,0.1,0.8,0.1L436.8,98.3z"/>
		<path class="st3" d="M445.2,86.7l-5.9,0.4l-0.3-4.5l5.9-0.4L445.2,86.7z M447.3,114.9l-5.9,0.4l-1.7-22.7l5.9-0.4L447.3,114.9z"/>
		<path class="st3" d="M459.2,102.7c-0.3-3.6,0.2-6.5,1.3-8.8c1.2-2.3,2.9-3.5,5.3-3.7c0.9-0.1,1.7,0.1,2.4,0.5
			c0.7,0.4,1.4,0.9,2,1.7l-0.9-12l5.9-0.4l2.4,32.7l-5.2,0.4l-0.6-2.4c-0.5,1-1.1,1.8-1.9,2.3c-0.7,0.6-1.6,0.9-2.6,0.9
			c-2.4,0.2-4.3-0.7-5.8-2.7c-1.5-1.9-2.3-4.6-2.6-8L459.2,102.7z M465.2,102.7c0.1,2,0.5,3.6,1,4.7c0.6,1.1,1.4,1.6,2.5,1.5
			c0.6,0,1.1-0.2,1.6-0.5s0.8-0.8,1.1-1.3l-0.8-10.3c-0.4-0.6-0.8-1.1-1.3-1.4c-0.5-0.3-1-0.5-1.6-0.4c-1.1,0.1-1.9,0.8-2.2,2.1
			c-0.4,1.3-0.5,3.1-0.4,5.2L465.2,102.7z"/>
		<path class="st3" d="M485.8,83.8l-5.9,0.4l-0.3-4.5l5.9-0.4L485.8,83.8z M487.9,111.9l-5.9,0.4l-1.7-22.7l5.9-0.4L487.9,111.9z"/>
		<path class="st3" d="M518.5,100c0.2,3-0.3,5.5-1.4,7.4c-1.2,1.9-2.9,3-5.3,3.2c-0.9,0.1-1.8-0.1-2.5-0.4c-0.7-0.3-1.4-0.8-2-1.5
			l0.8,10.5l-5.9,0.4l-2.3-31.4l5.5-0.4l0.4,2.2c0.5-0.9,1.1-1.6,1.8-2.1c0.7-0.5,1.6-0.8,2.5-0.9c2.4-0.2,4.3,0.7,5.8,2.5
			c1.5,1.9,2.3,4.4,2.5,7.6L518.5,100z M512.3,97.6c-0.1-1.8-0.5-3.2-1.1-4.3c-0.6-1-1.4-1.5-2.5-1.5c-0.6,0-1.2,0.2-1.6,0.6
			c-0.4,0.3-0.8,0.8-1,1.4l0.8,10.7c0.3,0.5,0.7,0.8,1.2,1.1c0.5,0.2,1,0.3,1.7,0.3c1.1-0.1,1.9-0.6,2.3-1.6c0.4-1,0.6-2.3,0.4-3.9
			L512.3,97.6z"/>
		<path class="st3" d="M526.4,80.8l-5.9,0.4l-0.3-4.5l5.9-0.4L526.4,80.8z M528.5,108.9l-5.9,0.4l-1.7-22.7l5.9-0.4L528.5,108.9z"/>
		<path class="st3" d="M543.9,105.1c-0.5,1-1.2,1.8-2.1,2.4c-0.8,0.6-1.8,0.9-2.9,1c-2,0.1-3.7-0.5-4.9-1.9c-1.2-1.4-2-3.8-2.2-7
			l-1-13.7l5.9-0.4l1,13.8c0.1,1.6,0.4,2.8,0.8,3.5c0.4,0.7,1.1,1,1.8,1c0.7,0,1.2-0.2,1.7-0.5c0.5-0.3,0.9-0.7,1.2-1.2l-1.2-16.9
			l6-0.4l1.7,22.7l-5.2,0.4L543.9,105.1z M542.2,82.3l-4.8,0.4l-5.6-5.1l0.1-0.1l6.2-0.5L542.2,82.3z"/>
		<path class="st3" d="M560,106.6l-5.9,0.4l-0.4-5.4l5.9-0.4L560,106.6z"/>
		<path class="st3" d="M571.4,105.8l-5.9,0.4l-0.4-5.4l5.9-0.4L571.4,105.8z"/>
		<path class="st3" d="M582.8,104.9l-5.9,0.4l-0.4-5.4l5.9-0.4L582.8,104.9z"/>
	</g>
</g>
</svg>
