<?xml version="1.0" encoding="utf-8"?>
<!-- Generator: Adobe Illustrator 19.2.1, SVG Export Plug-In . SVG Version: 6.00 Build 0)  -->
<svg version="1.1" xmlns="http://www.w3.org/2000/svg" xmlns:xlink="http://www.w3.org/1999/xlink" x="0px" y="0px"
	 viewBox="0 0 650 610" width="650" height="610" style="enable-background:new 0 0 650 610;" xml:space="preserve">
<style type="text/css">
	.st0{fill:#BCA780;}
	.st1{fill:#875A49;}
	.st2{fill:#E30613;}
	.st3{fill:#FFFFFF;}
	.st4{fill:#666666;}
	.st5{stroke:#000000;stroke-linecap:round;stroke-linejoin:round;stroke-miterlimit:10;}
	.st6{fill:#666666;stroke:#000000;stroke-linecap:round;stroke-linejoin:round;stroke-miterlimit:10;}
	.st7{fill:none;stroke:#000000;stroke-linejoin:round;stroke-miterlimit:10;}
	.st8{fill:#845727;}
	.st9{fill:#663909;}
	.st10{fill:#C00F11;}
	.st11{fill:#320200;}
	.st12{fill:#320200;stroke:#320200;stroke-miterlimit:10;}
	.st13{fill:#C00F11;stroke:#320200;stroke-miterlimit:10;}
	.st14{fill:none;stroke:#320200;stroke-linejoin:round;stroke-miterlimit:10;}
</style>
<g id="ormeggio1">
	<polygon class="st0" points="480.1,364.1 465.2,112.7 450.2,113.8 473.8,364.1 	"/>
	<polygon class="st1" points="465.2,112.7 450.2,113.8 455.4,168.7 468.2,162.8 	"/>
	<g>
		
			<rect x="308" y="10.2" transform="matrix(0.9976 -6.975647e-02 6.975647e-02 0.9976 -4.3739 32.0255)" class="st2" width="296.7" height="136.9"/>
		<g>
			<path class="st3" d="M599.1,127.9l-277.3,19.4l-8.2-117.9L590.9,10L599.1,127.9z"/>
		</g>
	</g>
	<g>
		<g>
			<g>
				<g>
					<g>
						<polygon class="st2" points="469.3,66.5 477.4,43.1 480.3,42.9 472.2,66.3 						"/>
						<polygon class="st2" points="475.6,66 483.7,42.6 486.6,42.4 478.5,65.8 						"/>
					</g>
					<polygon class="st2" points="523.3,39.9 520,40.1 528.5,51 521.6,62.9 524.9,62.7 531.8,50.7 					"/>
					<polygon class="st2" points="380.1,49.9 383.4,49.7 376.4,61.6 385,72.5 381.7,72.7 373.2,61.8 					"/>
				</g>
				<rect x="509.7" y="50.8" transform="matrix(0.656 -0.7547 0.7547 0.656 136.4158 403.676)" width="2.8" height="2.8"/>
				<polygon points="491.7,42.1 491.9,44.8 494.6,44.6 496,64.6 498.7,64.4 497.3,44.4 497.1,41.7 				"/>
				<polygon points="502.2,41.3 502.4,44 512.4,43.3 513.8,63.4 516.5,63.2 515.1,43.1 514.9,40.5 				"/>
				<g>
					<polygon points="407.8,47.9 407.8,47.9 407.8,47.9 400.5,63 391.1,49.1 391.1,49.1 391.1,49.1 388.5,49.3 390,72 392.7,71.8 
						391.5,54.5 399.1,65.8 400.8,68.4 402.2,65.6 408.1,53.3 409.4,70.7 412,70.5 410.5,47.8 					"/>
					<path d="M456.9,44.5c-3.4,0.2-6,3.2-5.8,6.6l0.7,10.3c0.2,3.4,3.2,6,6.6,5.8c3.4-0.2,6-3.2,5.8-6.6l-0.7-10.3
						C463.3,46.8,460.4,44.3,456.9,44.5z M461.6,60.8c0.1,1.9-1.3,3.6-3.3,3.7c-1.9,0.1-3.6-1.3-3.7-3.3l-0.7-10.3
						c-0.1-1.9,1.3-3.6,3.3-3.7c1.9-0.1,3.6,1.3,3.7,3.3l0,0L461.6,60.8L461.6,60.8z"/>
					<polygon points="436,46 436,46 433.3,46.2 434.9,68.9 447.3,68 447.1,65.3 437.4,66 					"/>
				</g>
				<path d="M422,46.9c-3.4,0.2-6,3.2-5.8,6.6l0.7,10.3l2.7-0.2L419,53.4c-0.1-1.9,1.3-3.6,3.3-3.7c1.9-0.1,3.6,1.3,3.7,3.3l0,0
					l0.7,10.3l0,0c0.1,1.9-1.3,3.6-3.3,3.7l0.2,2.7c3.4-0.2,6-3.2,5.8-6.6l-0.7-10.3C428.4,49.3,425.5,46.7,422,46.9z"/>
			</g>
		</g>
	</g>
	<g>
		<path class="st4" d="M561.2,303.6c0-14.9,0-66.8,0-66.8c0-28.8-18-39-34-39c-1.4,0-34.4,0-46.5,0c-14,0-20,4.5-28.5,13
			s-11.5,26-6,26h25l0,0c11.5,0,11.5,11.5,11.5,11.5s0,40.4,0,55.3s-18.5,1.4-18.5,14.1s0,41.4,0,41.4c0,3.6,0,4.4,12.6,4.4h45h45
			c12.9,0,12.9-0.9,12.9-4.4c0,0,0-28.8,0-41.4S561.2,318.5,561.2,303.6z"/>
	</g>
	<path d="M521.8,236.8c-5.3-0.3-63.7-4-68.6-7c-7.7-4.7-1-19-1-19c-8.5,8.5-11.5,26-6,26h25c11.5,0,11.5,11.5,11.5,11.5
		s0,40.4,0,55.3s-18.5,1.4-18.5,14.1s0,41.4,0,41.4c0,3.6,0,4.4,12.6,4.4h45V236.8L521.8,236.8z"/>
	<g>
		<path class="st5" d="M482.7,299.2c-1.9,0-3.5,1.6-3.5,3.5s1.6,3.5,3.5,3.5h39.1v-7H482.7z"/>
		<path class="st6" d="M561.2,299.2h-39.9v7h39.9c1.9,0,3.5-1.6,3.5-3.5S563.2,299.2,561.2,299.2z"/>
	</g>
	<line class="st7" x1="579.7" y1="317.6" x2="521.8" y2="317.6"/>
	<line class="st7" x1="579.7" y1="359" x2="521.8" y2="359"/>
	<rect y="363.5" class="st8" width="650" height="15"/>
	<rect x="580" y="378.5" class="st8" width="15" height="231.5"/>
	<rect x="580" y="378.5" class="st9" width="15" height="12.7"/>
	<g>
		<path d="M352,91l6.2-0.5l1.9,25.6l10.9-0.8l0.4,5.1l-17.1,1.3L352,91z"/>
		<path d="M378.4,111c0.1,0.7,0.1,1.3,0.3,2c0.1,0.6,0.4,1.2,0.6,1.7c0.3,0.5,0.6,0.9,1,1.1c0.4,0.3,0.9,0.4,1.4,0.3
			c1-0.1,1.7-0.5,2.1-1.2c0.4-0.7,0.6-1.9,0.7-3.3l5.3-0.4c0.1,2.7-0.5,4.8-1.7,6.3c-1.2,1.5-3.2,2.3-6.1,2.6
			c-2.1,0.2-3.8-0.1-5.1-0.7c-1.3-0.6-2.2-1.5-2.9-2.6c-0.7-1.1-1.1-2.4-1.3-3.9c-0.2-1.4-0.4-2.9-0.5-4.4c-0.1-1.5-0.1-3,0-4.5
			c0.1-1.4,0.4-2.7,1-3.9c0.6-1.2,1.4-2.1,2.6-2.9c1.2-0.7,2.7-1.2,4.7-1.3c1.7-0.1,3.1,0.1,4.3,0.5c1.1,0.5,2.1,1.2,2.8,2.2
			c0.7,1,1.2,2.2,1.6,3.6c0.3,1.4,0.6,3,0.7,4.8l0.1,1.3l-11.7,0.9L378.4,111z M383.7,102.9c-0.1-0.7-0.3-1.2-0.6-1.7
			c-0.2-0.5-0.6-0.8-1-1c-0.4-0.2-0.9-0.3-1.5-0.3c-0.6,0-1.1,0.2-1.4,0.5c-0.4,0.3-0.6,0.7-0.8,1.1c-0.2,0.5-0.3,1-0.4,1.5
			c-0.1,0.6-0.1,1.1,0,1.6l0.1,0.9l6-0.4C383.9,104.3,383.8,103.6,383.7,102.9z"/>
		<path d="M392.6,102.2c-0.1-1.3,0-2.5,0.4-3.4c0.4-0.9,0.9-1.7,1.6-2.3c0.7-0.6,1.5-1.1,2.5-1.4c1-0.3,2-0.5,3.1-0.6
			c1.8-0.1,3.2-0.1,4.3,0.2c1.1,0.3,2,0.7,2.6,1.3c0.6,0.6,1.1,1.3,1.4,2.2c0.3,0.9,0.5,1.8,0.5,2.8l0.9,12.1
			c0.1,1.1,0.2,1.9,0.3,2.5c0.1,0.6,0.4,1.2,0.7,1.9l-5.7,0.4c-0.2-0.4-0.4-0.7-0.5-1.1c-0.1-0.4-0.3-0.8-0.4-1.2l-0.1,0
			c-0.6,1.3-1.3,2.1-2.2,2.5c-0.9,0.4-2,0.7-3.5,0.8c-1,0.1-1.9,0-2.7-0.3s-1.3-0.8-1.8-1.4c-0.5-0.6-0.8-1.3-1.1-2.1
			c-0.3-0.8-0.4-1.5-0.5-2.3c-0.1-1.1,0-2,0.1-2.8c0.2-0.8,0.5-1.5,0.9-2.1c0.4-0.6,1-1.1,1.7-1.5c0.7-0.4,1.6-0.8,2.6-1.2l3.3-1.1
			c0.9-0.3,1.5-0.7,1.8-1.1c0.3-0.4,0.4-1,0.4-1.8c-0.1-0.9-0.3-1.6-0.8-2c-0.5-0.5-1.2-0.7-2.2-0.6c-0.9,0.1-1.6,0.4-2,1
			c-0.4,0.6-0.6,1.3-0.5,2.2l0,0.6l-5.3,0.4L392.6,102.2z M402.5,107.2c-0.4,0.2-0.8,0.4-1.2,0.5c-1.2,0.3-2,0.8-2.5,1.5
			c-0.5,0.6-0.7,1.5-0.6,2.5c0.1,0.9,0.3,1.6,0.7,2.2c0.4,0.6,1,0.9,1.8,0.8c0.4,0,0.8-0.1,1.2-0.3c0.4-0.2,0.8-0.4,1.1-0.7
			c0.3-0.3,0.6-0.7,0.8-1.2c0.2-0.5,0.3-1,0.2-1.7l-0.3-4.5C403.4,106.7,402.9,107,402.5,107.2z"/>
		<path d="M418.4,93.7l0.2,3.1l0.1,0c0.5-1.2,1.2-2.1,2-2.8c0.8-0.7,1.8-1.1,3.1-1.2c0.2,0,0.4,0,0.5,0c0.2,0,0.4,0,0.5,0l0.4,5.7
			c-0.3,0-0.6,0-0.9,0c-0.3,0-0.6,0-0.9,0c-0.5,0-1,0.1-1.5,0.3c-0.5,0.2-1,0.5-1.4,0.8c-0.4,0.4-0.7,0.8-0.9,1.4
			c-0.2,0.5-0.3,1.2-0.2,2l1,13.9l-5.9,0.4l-1.7-23.1L418.4,93.7z"/>
		<path d="M432.7,92.7l0.2,2.7l0.1,0c0.5-1.2,1.3-2.1,2.3-2.7c1-0.6,2.1-1,3.4-1c1.9-0.1,3.4,0.3,4.5,1.2c1.1,1,1.7,2.6,1.9,4.9
			l1.3,17.1l-5.9,0.4l-1.2-15.9c-0.1-1.2-0.3-2-0.8-2.5c-0.4-0.4-1.1-0.6-2-0.6c-2.1,0.2-3,1.5-2.8,4l1.1,15.3l-5.9,0.4L427,93.1
			L432.7,92.7z"/>
		<path d="M464.4,90.3l0.2,2.4l0.1,0c0.7-1.1,1.4-1.9,2.3-2.5c0.9-0.5,2-0.8,3.3-0.9c1.4-0.1,2.5,0.1,3.5,0.7c1,0.6,1.7,1.4,2.1,2.6
			l0.1,0c0.4-1.3,1-2.2,2-2.9c1-0.7,2.2-1.1,3.6-1.2c2-0.1,3.5,0.3,4.5,1.5c1,1.1,1.6,2.8,1.8,5l1.2,16.8l-5.9,0.4L481.9,96
			c-0.1-1-0.3-1.7-0.7-2.2c-0.4-0.5-1-0.7-1.8-0.6c-0.9,0.1-1.7,0.4-2.2,1.1c-0.5,0.7-0.7,1.7-0.6,3.1l1.1,15.2l-5.9,0.4l-1.2-16.1
			c-0.1-1-0.3-1.7-0.7-2.2c-0.4-0.5-1-0.7-1.8-0.6c-0.9,0.1-1.7,0.4-2.2,1.1c-0.5,0.7-0.7,1.7-0.6,3.1l1.1,15.2l-5.9,0.4l-1.7-23.1
			L464.4,90.3z"/>
		<path d="M491.4,94.7c0.2-1.5,0.6-2.8,1.3-3.9c0.6-1.1,1.5-1.9,2.6-2.5c1.1-0.6,2.5-1,4.2-1.1c1.8-0.2,3.3,0,4.5,0.4
			c1.2,0.4,2.2,1.1,3,2.1c0.8,1,1.3,2.2,1.7,3.7c0.4,1.5,0.7,3.3,0.8,5.3c0.1,2,0.1,3.7-0.1,5.3c-0.2,1.5-0.6,2.8-1.3,3.9
			c-0.6,1.1-1.5,1.9-2.6,2.5c-1.1,0.6-2.5,0.9-4.2,1c-1.8,0.2-3.3,0-4.5-0.3c-1.2-0.4-2.2-1.1-3-2c-0.8-1-1.3-2.2-1.7-3.7
			c-0.4-1.5-0.7-3.3-0.8-5.3C491.2,98,491.2,96.2,491.4,94.7z M497.6,102.8c0.1,1,0.3,1.8,0.6,2.5c0.3,0.7,0.6,1.2,1.1,1.6
			c0.5,0.4,1,0.5,1.8,0.5c1.2-0.1,2-0.8,2.3-2.1c0.4-1.3,0.4-3.4,0.2-6.3c-0.2-2.9-0.6-4.9-1.1-6.2c-0.6-1.2-1.4-1.8-2.6-1.7
			c-0.7,0.1-1.3,0.3-1.7,0.7c-0.4,0.4-0.7,1-0.8,1.7c-0.2,0.7-0.2,1.6-0.2,2.6c0,1,0.1,2.1,0.2,3.3
			C497.3,100.7,497.5,101.8,497.6,102.8z"/>
		<path d="M517.5,86.4l0.2,3.1l0.1,0c0.5-1.2,1.2-2.1,2-2.8c0.8-0.7,1.8-1.1,3.1-1.2c0.2,0,0.4,0,0.5,0c0.2,0,0.4,0,0.5,0l0.4,5.7
			c-0.3,0-0.6,0-0.9,0c-0.3,0-0.6,0-0.9,0c-0.5,0-1,0.1-1.5,0.3c-0.5,0.2-1,0.5-1.4,0.8c-0.4,0.4-0.7,0.8-0.9,1.4
			c-0.2,0.5-0.3,1.2-0.2,2l1,13.9l-5.9,0.4l-1.7-23.1L517.5,86.4z"/>
		<path d="M532.2,99.7c0.1,0.7,0.1,1.3,0.3,2c0.1,0.6,0.4,1.2,0.6,1.7c0.3,0.5,0.6,0.9,1,1.1c0.4,0.3,0.9,0.4,1.4,0.3
			c1-0.1,1.7-0.5,2.1-1.2c0.4-0.7,0.6-1.9,0.7-3.3l5.3-0.4c0.1,2.7-0.5,4.8-1.7,6.3s-3.2,2.3-6.1,2.6c-2.1,0.2-3.8-0.1-5.1-0.7
			c-1.3-0.6-2.2-1.5-2.9-2.6c-0.7-1.1-1.1-2.4-1.3-3.9c-0.2-1.4-0.4-2.9-0.5-4.4c-0.1-1.5-0.1-3,0-4.5c0.1-1.4,0.4-2.7,1-3.9
			c0.6-1.2,1.4-2.1,2.6-2.9c1.2-0.7,2.7-1.2,4.7-1.3c1.7-0.1,3.1,0.1,4.3,0.5c1.1,0.5,2.1,1.2,2.8,2.2c0.7,1,1.2,2.2,1.6,3.6
			c0.3,1.4,0.6,3,0.7,4.8l0.1,1.3l-11.7,0.9L532.2,99.7z M537.6,91.6c-0.1-0.7-0.3-1.2-0.6-1.7c-0.2-0.5-0.6-0.8-1-1
			s-0.9-0.3-1.5-0.3c-0.6,0-1.1,0.2-1.4,0.5c-0.4,0.3-0.6,0.7-0.8,1.1c-0.2,0.5-0.3,1-0.4,1.5c-0.1,0.6-0.1,1.1,0,1.6l0.1,0.9l6-0.4
			C537.8,93,537.7,92.3,537.6,91.6z"/>
		<path d="M553.7,107l-5.7,0.4l-0.5-6.7l5.7-0.4L553.7,107z"/>
		<path d="M564,106.2l-5.7,0.4l-0.5-6.7l5.7-0.4L564,106.2z"/>
		<path d="M574.3,105.5l-5.7,0.4l-0.5-6.7l5.7-0.4L574.3,105.5z"/>
	</g>
</g>
<g id="ormeggio2">
	<polygon class="st0" points="480.1,364.1 465.2,112.7 450.2,113.8 473.8,364.1 	"/>
	<polygon class="st1" points="465.2,112.7 450.2,113.8 455.4,168.7 468.2,162.8 	"/>
	<g>
		
			<rect x="308" y="10.2" transform="matrix(0.9976 -6.975647e-02 6.975647e-02 0.9976 -4.3739 32.0255)" class="st2" width="296.7" height="136.9"/>
	</g>
	<g>
		<g>
			<g>
				<g>
					<g>
						<polygon class="st3" points="469.3,66.5 477.4,43.1 480.3,42.9 472.2,66.3 						"/>
						<polygon class="st3" points="475.6,66 483.7,42.6 486.6,42.4 478.5,65.8 						"/>
					</g>
					<polygon class="st3" points="523.3,39.9 520,40.1 528.5,51 521.6,62.9 524.9,62.7 531.8,50.7 					"/>
					<polygon class="st3" points="380.1,49.9 383.4,49.7 376.4,61.6 385,72.5 381.7,72.7 373.2,61.8 					"/>
				</g>
				<rect x="509.7" y="50.8" transform="matrix(0.656 -0.7547 0.7547 0.656 136.4158 403.676)" width="2.8" height="2.8"/>
				<polygon points="491.7,42.1 491.9,44.8 494.6,44.6 496,64.6 498.7,64.4 497.3,44.4 497.1,41.7 				"/>
				<polygon points="502.2,41.3 502.4,44 512.4,43.3 513.8,63.4 516.5,63.2 515.1,43.1 514.9,40.5 				"/>
				<g>
					<polygon points="407.8,47.9 407.8,47.9 407.8,47.9 400.5,63 391.1,49.1 391.1,49.1 391.1,49.1 388.5,49.3 390,72 392.7,71.8 
						391.5,54.5 399.1,65.8 400.8,68.4 402.2,65.6 408.1,53.3 409.4,70.7 412,70.5 410.5,47.8 					"/>
					<path d="M456.9,44.5c-3.4,0.2-6,3.2-5.8,6.6l0.7,10.3c0.2,3.4,3.2,6,6.6,5.8c3.4-0.2,6-3.2,5.8-6.6l-0.7-10.3
						C463.3,46.8,460.4,44.3,456.9,44.5z M461.6,60.8c0.1,1.9-1.3,3.6-3.3,3.7c-1.9,0.1-3.6-1.3-3.7-3.3l-0.7-10.3
						c-0.1-1.9,1.3-3.6,3.3-3.7c1.9-0.1,3.6,1.3,3.7,3.3l0,0L461.6,60.8L461.6,60.8z"/>
					<polygon points="436,46 436,46 433.3,46.2 434.9,68.9 447.3,68 447.1,65.3 437.4,66 					"/>
				</g>
				<path d="M422,46.9c-3.4,0.2-6,3.2-5.8,6.6l0.7,10.3l2.7-0.2L419,53.4c-0.1-1.9,1.3-3.6,3.3-3.7c1.9-0.1,3.6,1.3,3.7,3.3l0,0
					l0.7,10.3l0,0c0.1,1.9-1.3,3.6-3.3,3.7l0.2,2.7c3.4-0.2,6-3.2,5.8-6.6l-0.7-10.3C428.4,49.3,425.5,46.7,422,46.9z"/>
			</g>
		</g>
	</g>
	<g>
		<path class="st10" d="M561.2,303.6c0-14.9,0-66.8,0-66.8c0-28.8-18-39-34-39c-1.4,0-34.4,0-46.5,0c-14,0-20,4.5-28.5,13
			s-11.5,26-6,26h25l0,0c11.5,0,11.5,11.5,11.5,11.5s0,40.4,0,55.3s-18.5,1.4-18.5,14.1s0,41.4,0,41.4c0,3.6,0,4.4,12.6,4.4h45h45
			c12.9,0,12.9-0.9,12.9-4.4c0,0,0-28.8,0-41.4S561.2,318.5,561.2,303.6z"/>
	</g>
	<path class="st11" d="M521.8,236.8c-5.3-0.3-63.7-4-68.6-7c-7.7-4.7-1-19-1-19c-8.5,8.5-11.5,26-6,26h25
		c11.5,0,11.5,11.5,11.5,11.5s0,40.4,0,55.3s-18.5,1.4-18.5,14.1s0,41.4,0,41.4c0,3.6,0,4.4,12.6,4.4h45V236.8L521.8,236.8z"/>
	<g>
		<path class="st12" d="M482.7,299.2c-1.9,0-3.5,1.6-3.5,3.5s1.6,3.5,3.5,3.5h39.1v-7H482.7z"/>
		<path class="st13" d="M561.2,299.2h-39.9v7h39.9c1.9,0,3.5-1.6,3.5-3.5S563.2,299.2,561.2,299.2z"/>
	</g>
	<line class="st14" x1="579.7" y1="317.6" x2="521.8" y2="317.6"/>
	<line class="st14" x1="579.7" y1="359" x2="521.8" y2="359"/>
	<rect y="363.5" class="st8" width="650" height="15"/>
	<rect x="580" y="378.5" class="st8" width="15" height="231.5"/>
	<rect x="580" y="378.5" class="st9" width="15" height="12.7"/>
	<g>
		<path class="st3" d="M352,91l6.2-0.5l1.9,25.6l10.9-0.8l0.4,5.1l-17.1,1.3L352,91z"/>
		<path class="st3" d="M378.4,111c0.1,0.7,0.1,1.3,0.3,2c0.1,0.6,0.4,1.2,0.6,1.7c0.3,0.5,0.6,0.9,1,1.1c0.4,0.3,0.9,0.4,1.4,0.3
			c1-0.1,1.7-0.5,2.1-1.2c0.4-0.7,0.6-1.9,0.7-3.3l5.3-0.4c0.1,2.7-0.5,4.8-1.7,6.3c-1.2,1.5-3.2,2.3-6.1,2.6
			c-2.1,0.2-3.8-0.1-5.1-0.7c-1.3-0.6-2.2-1.5-2.9-2.6c-0.7-1.1-1.1-2.4-1.3-3.9c-0.2-1.4-0.4-2.9-0.5-4.4c-0.1-1.5-0.1-3,0-4.5
			c0.1-1.4,0.4-2.7,1-3.9c0.6-1.2,1.4-2.1,2.6-2.9c1.2-0.7,2.7-1.2,4.7-1.3c1.7-0.1,3.1,0.1,4.3,0.5c1.1,0.5,2.1,1.2,2.8,2.2
			c0.7,1,1.2,2.2,1.6,3.6c0.3,1.4,0.6,3,0.7,4.8l0.1,1.3l-11.7,0.9L378.4,111z M383.7,102.9c-0.1-0.7-0.3-1.2-0.6-1.7
			c-0.2-0.5-0.6-0.8-1-1c-0.4-0.2-0.9-0.3-1.5-0.3c-0.6,0-1.1,0.2-1.4,0.5c-0.4,0.3-0.6,0.7-0.8,1.1c-0.2,0.5-0.3,1-0.4,1.5
			c-0.1,0.6-0.1,1.1,0,1.6l0.1,0.9l6-0.4C383.9,104.3,383.8,103.6,383.7,102.9z"/>
		<path class="st3" d="M392.6,102.2c-0.1-1.3,0-2.5,0.4-3.4c0.4-0.9,0.9-1.7,1.6-2.3c0.7-0.6,1.5-1.1,2.5-1.4c1-0.3,2-0.5,3.1-0.6
			c1.8-0.1,3.2-0.1,4.3,0.2c1.1,0.3,2,0.7,2.6,1.3c0.6,0.6,1.1,1.3,1.4,2.2c0.3,0.9,0.5,1.8,0.5,2.8l0.9,12.1
			c0.1,1.1,0.2,1.9,0.3,2.5c0.1,0.6,0.4,1.2,0.7,1.9l-5.7,0.4c-0.2-0.4-0.4-0.7-0.5-1.1c-0.1-0.4-0.3-0.8-0.4-1.2l-0.1,0
			c-0.6,1.3-1.3,2.1-2.2,2.5c-0.9,0.4-2,0.7-3.5,0.8c-1,0.1-1.9,0-2.7-0.3s-1.3-0.8-1.8-1.4c-0.5-0.6-0.8-1.3-1.1-2.1
			c-0.3-0.8-0.4-1.5-0.5-2.3c-0.1-1.1,0-2,0.1-2.8c0.2-0.8,0.5-1.5,0.9-2.1c0.4-0.6,1-1.1,1.7-1.5c0.7-0.4,1.6-0.8,2.6-1.2l3.3-1.1
			c0.9-0.3,1.5-0.7,1.8-1.1c0.3-0.4,0.4-1,0.4-1.8c-0.1-0.9-0.3-1.6-0.8-2c-0.5-0.5-1.2-0.7-2.2-0.6c-0.9,0.1-1.6,0.4-2,1
			c-0.4,0.6-0.6,1.3-0.5,2.2l0,0.6l-5.3,0.4L392.6,102.2z M402.5,107.2c-0.4,0.2-0.8,0.4-1.2,0.5c-1.2,0.3-2,0.8-2.5,1.5
			c-0.5,0.6-0.7,1.5-0.6,2.5c0.1,0.9,0.3,1.6,0.7,2.2c0.4,0.6,1,0.9,1.8,0.8c0.4,0,0.8-0.1,1.2-0.3c0.4-0.2,0.8-0.4,1.1-0.7
			c0.3-0.3,0.6-0.7,0.8-1.2c0.2-0.5,0.3-1,0.2-1.7l-0.3-4.5C403.4,106.7,402.9,107,402.5,107.2z"/>
		<path class="st3" d="M418.4,93.7l0.2,3.1l0.1,0c0.5-1.2,1.2-2.1,2-2.8c0.8-0.7,1.8-1.1,3.1-1.2c0.2,0,0.4,0,0.5,0
			c0.2,0,0.4,0,0.5,0l0.4,5.7c-0.3,0-0.6,0-0.9,0c-0.3,0-0.6,0-0.9,0c-0.5,0-1,0.1-1.5,0.3c-0.5,0.2-1,0.5-1.4,0.8
			c-0.4,0.4-0.7,0.8-0.9,1.4c-0.2,0.5-0.3,1.2-0.2,2l1,13.9l-5.9,0.4l-1.7-23.1L418.4,93.7z"/>
		<path class="st3" d="M432.7,92.7l0.2,2.7l0.1,0c0.5-1.2,1.3-2.1,2.3-2.7c1-0.6,2.1-1,3.4-1c1.9-0.1,3.4,0.3,4.5,1.2
			c1.1,1,1.7,2.6,1.9,4.9l1.3,17.1l-5.9,0.4l-1.2-15.9c-0.1-1.2-0.3-2-0.8-2.5c-0.4-0.4-1.1-0.6-2-0.6c-2.1,0.2-3,1.5-2.8,4
			l1.1,15.3l-5.9,0.4L427,93.1L432.7,92.7z"/>
		<path class="st3" d="M464.4,90.3l0.2,2.4l0.1,0c0.7-1.1,1.4-1.9,2.3-2.5c0.9-0.5,2-0.8,3.3-0.9c1.4-0.1,2.5,0.1,3.5,0.7
			c1,0.6,1.7,1.4,2.1,2.6l0.1,0c0.4-1.3,1-2.2,2-2.9c1-0.7,2.2-1.1,3.6-1.2c2-0.1,3.5,0.3,4.5,1.5c1,1.1,1.6,2.8,1.8,5l1.2,16.8
			l-5.9,0.4L481.9,96c-0.1-1-0.3-1.7-0.7-2.2c-0.4-0.5-1-0.7-1.8-0.6c-0.9,0.1-1.7,0.4-2.2,1.1c-0.5,0.7-0.7,1.7-0.6,3.1l1.1,15.2
			l-5.9,0.4l-1.2-16.1c-0.1-1-0.3-1.7-0.7-2.2c-0.4-0.5-1-0.7-1.8-0.6c-0.9,0.1-1.7,0.4-2.2,1.1c-0.5,0.7-0.7,1.7-0.6,3.1l1.1,15.2
			l-5.9,0.4l-1.7-23.1L464.4,90.3z"/>
		<path class="st3" d="M491.4,94.7c0.2-1.5,0.6-2.8,1.3-3.9c0.6-1.1,1.5-1.9,2.6-2.5c1.1-0.6,2.5-1,4.2-1.1c1.8-0.2,3.3,0,4.5,0.4
			c1.2,0.4,2.2,1.1,3,2.1c0.8,1,1.3,2.2,1.7,3.7c0.4,1.5,0.7,3.3,0.8,5.3c0.1,2,0.1,3.7-0.1,5.3c-0.2,1.5-0.6,2.8-1.3,3.9
			c-0.6,1.1-1.5,1.9-2.6,2.5c-1.1,0.6-2.5,0.9-4.2,1c-1.8,0.2-3.3,0-4.5-0.3c-1.2-0.4-2.2-1.1-3-2c-0.8-1-1.3-2.2-1.7-3.7
			c-0.4-1.5-0.7-3.3-0.8-5.3C491.2,98,491.2,96.2,491.4,94.7z M497.6,102.8c0.1,1,0.3,1.8,0.6,2.5c0.3,0.7,0.6,1.2,1.1,1.6
			c0.5,0.4,1,0.5,1.8,0.5c1.2-0.1,2-0.8,2.3-2.1c0.4-1.3,0.4-3.4,0.2-6.3c-0.2-2.9-0.6-4.9-1.1-6.2c-0.6-1.2-1.4-1.8-2.6-1.7
			c-0.7,0.1-1.3,0.3-1.7,0.7c-0.4,0.4-0.7,1-0.8,1.7c-0.2,0.7-0.2,1.6-0.2,2.6c0,1,0.1,2.1,0.2,3.3
			C497.3,100.7,497.5,101.8,497.6,102.8z"/>
		<path class="st3" d="M517.5,86.4l0.2,3.1l0.1,0c0.5-1.2,1.2-2.1,2-2.8c0.8-0.7,1.8-1.1,3.1-1.2c0.2,0,0.4,0,0.5,0
			c0.2,0,0.4,0,0.5,0l0.4,5.7c-0.3,0-0.6,0-0.9,0c-0.3,0-0.6,0-0.9,0c-0.5,0-1,0.1-1.5,0.3c-0.5,0.2-1,0.5-1.4,0.8
			c-0.4,0.4-0.7,0.8-0.9,1.4c-0.2,0.5-0.3,1.2-0.2,2l1,13.9l-5.9,0.4l-1.7-23.1L517.5,86.4z"/>
		<path class="st3" d="M532.2,99.7c0.1,0.7,0.1,1.3,0.3,2c0.1,0.6,0.4,1.2,0.6,1.7c0.3,0.5,0.6,0.9,1,1.1c0.4,0.3,0.9,0.4,1.4,0.3
			c1-0.1,1.7-0.5,2.1-1.2c0.4-0.7,0.6-1.9,0.7-3.3l5.3-0.4c0.1,2.7-0.5,4.8-1.7,6.3s-3.2,2.3-6.1,2.6c-2.1,0.2-3.8-0.1-5.1-0.7
			c-1.3-0.6-2.2-1.5-2.9-2.6c-0.7-1.1-1.1-2.4-1.3-3.9c-0.2-1.4-0.4-2.9-0.5-4.4c-0.1-1.5-0.1-3,0-4.5c0.1-1.4,0.4-2.7,1-3.9
			c0.6-1.2,1.4-2.1,2.6-2.9c1.2-0.7,2.7-1.2,4.7-1.3c1.7-0.1,3.1,0.1,4.3,0.5c1.1,0.5,2.1,1.2,2.8,2.2c0.7,1,1.2,2.2,1.6,3.6
			c0.3,1.4,0.6,3,0.7,4.8l0.1,1.3l-11.7,0.9L532.2,99.7z M537.6,91.6c-0.1-0.7-0.3-1.2-0.6-1.7c-0.2-0.5-0.6-0.8-1-1
			s-0.9-0.3-1.5-0.3c-0.6,0-1.1,0.2-1.4,0.5c-0.4,0.3-0.6,0.7-0.8,1.1c-0.2,0.5-0.3,1-0.4,1.5c-0.1,0.6-0.1,1.1,0,1.6l0.1,0.9l6-0.4
			C537.8,93,537.7,92.3,537.6,91.6z"/>
		<path class="st3" d="M553.7,107l-5.7,0.4l-0.5-6.7l5.7-0.4L553.7,107z"/>
		<path class="st3" d="M564,106.2l-5.7,0.4l-0.5-6.7l5.7-0.4L564,106.2z"/>
		<path class="st3" d="M574.3,105.5l-5.7,0.4l-0.5-6.7l5.7-0.4L574.3,105.5z"/>
	</g>
</g>
</svg>
