<?xml version="1.0" encoding="utf-8"?>
<!-- Generator: Adobe Illustrator 19.2.1, SVG Export Plug-In . SVG Version: 6.00 Build 0)  -->
<svg version="1.1" id="Livello_1" xmlns="http://www.w3.org/2000/svg" xmlns:xlink="http://www.w3.org/1999/xlink" x="0px" y="0px"
	 viewBox="0 0 301 78" width="301" height="78" style="enable-background:new 0 0 301 78;" xml:space="preserve">
<style type="text/css">
	.st0{fill:#E30613;}
</style>
<g>
	<g>
		<polygon class="st0" points="180.8,43.5 199.1,0.5 204.6,0.5 186.4,43.5 		"/>
		<polygon class="st0" points="192.8,43.5 211.1,0.5 216.6,0.5 198.3,43.5 		"/>
	</g>
	<polygon class="st0" points="285.9,0.5 279.7,0.5 294.4,22 279.7,43.6 285.9,43.6 300.5,22 	"/>
	<polygon class="st0" points="15.1,0.5 21.3,0.5 6.6,22 21.3,43.6 15.1,43.6 0.5,22 	"/>
</g>
<g>
	<path d="M47,77.5c-1.9,0-3.5-1-4-2.6h0.9c0.5,1.2,1.8,1.8,3.1,1.8c1.5,0,3.3-0.5,3.3-2.4c0-1.3-1-2.2-3.2-2.2c-2.8,0-3.9-1.3-3.9-3
		c0-2.2,1.5-3.1,3.9-3.1c1.9,0,3.3,1,3.8,2.6h-0.9c-0.5-1.3-1.6-1.8-2.9-1.8c-1.5,0-3,0.4-3,2.3c0,1.3,0.8,2.1,3,2.1
		c2.8,0,4.1,1.2,4.1,3.2C51.2,76.6,49.4,77.5,47,77.5z"/>
	<path d="M59.2,77.3V66.2h0.9v11.2H59.2z"/>
	<path d="M76.8,77.3v-3.5l-6.4-6.3v9.9h-0.9V66.2h0.9l6.5,6.5v-6.5h0.9v11.2H76.8z"/>
	<path d="M90.4,77.5c-2.3,0-4.2-1.9-4.2-4.2v-3.2c0-2.3,2-4.2,4.2-4.2c1.8,0,3.4,1.2,4,2.9h-0.9c-0.5-1.2-1.8-2-3.1-2
		c-1.7,0-3.3,1.4-3.3,3.2v3.4c0,1.8,1.6,3.2,3.3,3.2c1.3,0,2.6-0.9,3.1-2.1h0.9C93.9,76.3,92.2,77.5,90.4,77.5z"/>
	<path d="M102.6,77.3V66.2h6.9V67h-6v4.1h6v0.8h-6v4.6h6v0.8H102.6z"/>
	<path d="M131.4,67v10.3h-0.9V67h-3.8v-0.8h8.5V67H131.4z"/>
	<path d="M146,77.5c-2.3,0-4.2-1.9-4.2-4.2v-3.2c0-2.3,2-4.2,4.2-4.2c2.2,0,4.2,1.9,4.2,4.2v3.2C150.2,75.6,148.3,77.5,146,77.5z
		 M149.3,70.1c0-1.8-1.6-3.2-3.3-3.2c-1.7,0-3.3,1.4-3.3,3.2v3.4c0,1.8,1.6,3.2,3.3,3.2c1.7,0,3.3-1.4,3.3-3.2V70.1z"/>
	<path d="M167.5,77.3v-9.9l-3.9,4.4l-3.9-4.4v9.9h-0.9V66.2h1.1l3.8,4.3l3.8-4.3h1.1v11.2H167.5z"/>
	<path d="M181.1,77.5c-2.3,0-4.2-1.9-4.2-4.2v-3.2c0-2.3,2-4.2,4.2-4.2c2.2,0,4.2,1.9,4.2,4.2v3.2C185.3,75.6,183.3,77.5,181.1,77.5
		z M184.4,70.1c0-1.8-1.6-3.2-3.3-3.2c-1.7,0-3.3,1.4-3.3,3.2v3.4c0,1.8,1.6,3.2,3.3,3.2c1.7,0,3.3-1.4,3.3-3.2V70.1z"/>
	<path d="M198.7,72.4l2.5,4.9h-1l-2.5-4.9h-3.1v4.9h-0.9V66.2h4.6c1.7,0,3,1.5,3,3.2C201.4,70.7,200.3,72.3,198.7,72.4z M198.2,67
		h-3.5v4.7h3.5c1.4,0,2.2-1.2,2.2-2.3C200.4,68.2,199.5,67,198.2,67z"/>
	<path d="M215.1,72.4l2.5,4.9h-1l-2.5-4.9H211v4.9h-0.9V66.2h4.6c1.7,0,3,1.5,3,3.2C217.7,70.7,216.7,72.3,215.1,72.4z M214.5,67
		H211v4.7h3.5c1.4,0,2.2-1.2,2.2-2.3C216.8,68.2,215.9,67,214.5,67z"/>
	<path d="M229.9,77.5c-2.3,0-4.2-1.9-4.2-4.2v-3.2c0-2.3,2-4.2,4.2-4.2c2.2,0,4.2,1.9,4.2,4.2v3.2C234.1,75.6,232.1,77.5,229.9,77.5
		z M233.2,70.1c0-1.8-1.6-3.2-3.3-3.2c-1.7,0-3.3,1.4-3.3,3.2v3.4c0,1.8,1.6,3.2,3.3,3.2c1.7,0,3.3-1.4,3.3-3.2V70.1z"/>
	<path d="M252.6,77.5c-1.7,0-3-1.2-3.2-2.5c-0.3,1.4-1.5,2.5-3.3,2.5c-2.3,0-3.6-1.8-3.6-4v-7.3h0.9v7.3c0,1.8,1.1,3.2,2.7,3.2
		c1.7,0,2.7-1.4,2.7-3.2v-7.3h0.9v7.3c0,1.8,1,3.2,2.7,3.2c1.7,0,2.7-1.4,2.7-3.2v-7.3h0.9v7.3C256.2,75.8,254.9,77.5,252.6,77.5z"
		/>
</g>
<rect x="258.7" y="19.4" transform="matrix(0.7071 -0.7071 0.7071 0.7071 60.9605 191.2501)" width="5.2" height="5.2"/>
<polygon points="226.2,0.5 226.2,5.6 231.3,5.6 231.3,43.5 236.4,43.5 236.4,5.6 236.4,0.5 "/>
<polygon points="246,0.5 246,5.6 265,5.6 265,43.5 270.1,43.5 270.1,5.6 270.1,0.5 "/>
<g>
	<polygon points="67.4,0.5 67.4,0.5 67.4,0.5 51.7,27.9 36,0.5 36,0.5 36,0.5 30.9,0.5 30.9,43.5 36,43.5 36,10.7 48.8,33 
		51.7,38.1 54.6,33 67.4,10.7 67.4,43.5 72.5,43.5 72.5,0.5 	"/>
	<path d="M160.5,0.5c-6.5,0-11.7,5.2-11.7,11.7v19.6c0,6.5,5.2,11.7,11.7,11.7c6.5,0,11.7-5.2,11.7-11.7V12.2
		C172.2,5.7,166.9,0.5,160.5,0.5z M167.1,31.8c0,3.7-3,6.6-6.6,6.6c-3.7,0-6.6-3-6.6-6.6V12.2c0-3.7,3-6.6,6.6-6.6
		c3.7,0,6.6,3,6.6,6.6l0,0V31.8L167.1,31.8z"/>
	<polygon points="120.9,0.5 120.9,0.5 115.8,0.5 115.8,43.5 139.1,43.5 139.1,38.4 120.9,38.4 	"/>
</g>
<path d="M94.4,0.5c-6.5,0-11.7,5.2-11.7,11.7v19.6h5.1V12.2c0-3.7,3-6.6,6.6-6.6c3.7,0,6.6,3,6.6,6.6h0v19.6h0c0,3.7-3,6.6-6.6,6.6
	v5.1c6.5,0,11.7-5.2,11.7-11.7V12.2C106.1,5.7,100.9,0.5,94.4,0.5z"/>
</svg>
