<svg id="Livello_1" data-name="Livello 1" xmlns="http://www.w3.org/2000/svg" xmlns:xlink="http://www.w3.org/1999/xlink" viewBox="0 0 228.53 249.24"><defs><style>.cls-1{fill:#f9eb2a;}.cls-2{fill:#2c5871;}.cls-3{fill:#a5d9e7;}.cls-4{opacity:0.2;}.cls-5{fill:#fdc13d;}.cls-6{fill:#ef344d;}.cls-7{clip-path:url(#clip-path);}.cls-8,.cls-9{fill:#fff;}.cls-8{opacity:0.3;}</style><clipPath id="clip-path" transform="translate(-1350.11 -2682.85)"><path class="cls-1" d="M1416,2896.2s-17.51-40.44,9.12-101.17c20.27-46.23,65.14-79.38,65.14-79.38s-15.24,105.5,0,180.55H1416Z"/></clipPath></defs><title>boat</title><rect class="cls-2" x="140.11" width="2.41" height="232.37"/><polygon class="cls-3" points="98.89 249.24 228.53 249.24 228.53 230.15 86.83 230.15 98.89 249.24"/><polygon class="cls-4" points="196.65 249.24 228.53 249.24 228.53 230.15 196.65 249.24"/><polygon class="cls-2" points="228.53 238.06 91.83 238.06 89.53 234.42 228.53 234.42 228.53 238.06"/><polygon class="cls-5" points="142.52 0 142.52 204.3 214.21 204.3 142.52 0"/><rect class="cls-6" x="212.45" y="223.87" width="12.23" height="6.28"/><path class="cls-1" d="M1416,2896.2s-17.51-40.44,9.12-101.17c20.27-46.23,65.14-79.38,65.14-79.38s-15.24,105.5,0,180.55H1416Z" transform="translate(-1350.11 -2682.85)"/><g class="cls-7"><path class="cls-5" d="M1402.24,2797.48l85.71,85.71c0.66,4.42,1.41,8.77,2.27,13H1350.11Z" transform="translate(-1350.11 -2682.85)"/></g><polygon class="cls-1" points="142.52 108.47 211.44 196.41 214.21 204.3 142.52 204.3 142.52 108.47"/><polygon class="cls-8" points="132.39 230.15 151.48 249.24 98.89 249.24 86.83 230.15 132.39 230.15"/><polygon class="cls-9" points="127.03 230.15 209.77 230.15 209.77 217.59 153.83 217.59 127.03 230.15"/><rect class="cls-6" x="188.52" y="221.27" width="16.25" height="5.19"/><rect class="cls-6" x="162.12" y="221.27" width="16.25" height="5.19"/></svg>