<svg version="1.1" id="Layer_1" xmlns="http://www.w3.org/2000/svg" xmlns:xlink="http://www.w3.org/1999/xlink" x="0px" y="0px"
	 width="110px" height="61px" viewBox="0 0 110 61" enable-background="new 0 0 110 61" xml:space="preserve">
<path fill-rule="evenodd" clip-rule="evenodd" fill="#FFFFFF" d="M87.3,60.684c0,0,22.701,1.608,22.701-14.61
	c0.389-16.479-14.229-21.49-14.229-21.49s0.323-6.004-5.088-11.341C85.273,7.905,75.602,9.83,75.602,9.83S61.978-4.378,44.623,1.304
	C29.22,6.327,28.278,17.72,28.278,17.72s-5.785,0.185-11.887,4.477c-6.102,4.292-4.972,13.455-4.972,13.455
	S0.047,37.177,0.047,47.567C-0.836,58.97,8.962,60.998,8.962,60.998s10.118,0,20.802,0C51.038,60.998,87.3,60.684,87.3,60.684z"/>
</svg>
