<svg id="Livello_1" data-name="Livello 1" xmlns="http://www.w3.org/2000/svg" viewBox="0 0 364.98 89.04"><defs><style>.cls-1{fill:#fff;}.cls-2{opacity:0.12;}.cls-3{fill:#e20613;}</style></defs><title>logo</title><g id="Livello_1-2" data-name="Livello 1"><path class="cls-1" d="M253.16,238.19a4.4,4.4,0,0,1-4.36-2.81h1a3.49,3.49,0,0,0,3.35,1.93c1.6,0,3.61-.53,3.61-2.57,0-1.42-1.11-2.42-3.47-2.42-3,0-4.27-1.38-4.27-3.26,0-2.4,1.62-3.41,4.23-3.41a4.16,4.16,0,0,1,4.15,2.83h-1a3.16,3.16,0,0,0-3.14-1.93c-1.6,0-3.25.47-3.25,2.51,0,1.42.92,2.24,3.3,2.24,3,0,4.46,1.35,4.46,3.44,0,2.4-2,3.45-4.6,3.45" transform="translate(-182.45 -149.17)"/><rect class="cls-1" x="84.07" y="76.68" width="1.01" height="12.15"/><polygon class="cls-1" points="103.13 76.68 103.13 83.7 96.11 76.68 95.16 76.68 95.16 88.83 96.17 88.83 96.17 78.1 103.13 85 103.13 88.83 104.14 88.83 104.14 76.68 103.13 76.68"/><path class="cls-1" d="M300.4,238.19a4.63,4.63,0,0,1-4.6-4.52V230.2a4.6,4.6,0,0,1,9-1.42h-1a3.71,3.71,0,0,0-3.33-2.22,3.62,3.62,0,0,0-3.59,3.51v3.74a3.62,3.62,0,0,0,3.59,3.51,3.71,3.71,0,0,0,3.35-2.32h1a4.7,4.7,0,0,1-4.38,3.2" transform="translate(-182.45 -149.17)"/><polygon class="cls-1" points="131.22 76.68 131.22 88.83 138.74 88.83 138.74 87.93 132.23 87.93 132.23 82.9 138.74 82.9 138.74 82 132.23 82 132.23 77.58 138.74 77.58 138.74 76.68 131.22 76.68"/><polygon class="cls-1" points="157.35 76.68 157.35 77.58 161.47 77.58 161.47 88.83 162.48 88.83 162.48 77.58 166.61 77.58 166.61 76.68 157.35 76.68"/><path class="cls-1" d="M364.41,230.08a3.58,3.58,0,1,0-7.16,0v3.74a3.58,3.58,0,1,0,7.16,0h0v-3.73h0Zm-3.57,8.11a4.63,4.63,0,0,1-4.6-4.52v-3.45a4.59,4.59,0,0,1,9.18,0v3.47a4.63,4.63,0,0,1-4.58,4.52" transform="translate(-182.45 -149.17)"/><polygon class="cls-1" points="201.56 76.68 197.47 81.4 193.35 76.68 192.19 76.68 192.19 88.83 193.2 88.83 193.2 78.03 197.47 82.86 201.72 78.03 201.72 88.83 202.73 88.83 202.73 76.68 201.56 76.68"/><path class="cls-1" d="M402.55,230.08a3.58,3.58,0,1,0-7.16,0v3.74a3.58,3.58,0,1,0,7.16,0h0v-3.73h0ZM399,238.19a4.64,4.64,0,0,1-4.61-4.52v-3.45a4.59,4.59,0,0,1,9.18,0v3.47a4.63,4.63,0,0,1-4.58,4.52" transform="translate(-182.45 -149.17)"/><path class="cls-1" d="M417.54,226.74h-3.82v5.11h3.82A2.51,2.51,0,0,0,420,229.3a2.54,2.54,0,0,0-2.43-2.56m0.58,5.91,2.71,5.34h-1.07l-2.67-5.3h-3.37V238h-1V225.84h5a3.43,3.43,0,0,1,.39,6.8" transform="translate(-182.45 -149.17)"/><path class="cls-1" d="M435.31,226.74h-3.82v5.11h3.82a2.51,2.51,0,0,0,2.44-2.55,2.54,2.54,0,0,0-2.44-2.56m0.59,5.91,2.71,5.34h-1.07l-2.67-5.3H431.5V238h-1V225.84h5a3.43,3.43,0,0,1,.39,6.8" transform="translate(-182.45 -149.17)"/><path class="cls-1" d="M455.57,230.08a3.58,3.58,0,1,0-7.16,0v3.74a3.58,3.58,0,1,0,7.16,0h0v-3.73h0ZM452,238.19a4.64,4.64,0,0,1-4.6-4.52v-3.45a4.6,4.6,0,0,1,9.19,0v3.47a4.63,4.63,0,0,1-4.58,4.52" transform="translate(-182.45 -149.17)"/><path class="cls-1" d="M476.72,238.19a3.5,3.5,0,0,1-3.53-2.77,3.56,3.56,0,0,1-3.55,2.77c-2.46,0-3.91-1.91-3.91-4.39v-8h1v7.93c0,2,1.15,3.53,3,3.53s2.94-1.54,2.94-3.51v-8h1v7.93c0,2,1.09,3.53,2.94,3.53s3-1.54,3-3.51v-8h1v7.93c0,2.49-1.44,4.41-3.9,4.41" transform="translate(-182.45 -149.17)"/><g class="cls-2"><path class="cls-3" d="M207.7,201.65" transform="translate(-182.45 -149.17)"/><path class="cls-3" d="M207.7,149.17" transform="translate(-182.45 -149.17)"/></g><g class="cls-2"><path class="cls-3" d="M207.7,201.65" transform="translate(-182.45 -149.17)"/><path class="cls-3" d="M207.7,149.17" transform="translate(-182.45 -149.17)"/></g><g class="cls-2"><path class="cls-3" d="M207.7,201.65" transform="translate(-182.45 -149.17)"/><path class="cls-3" d="M207.7,149.17" transform="translate(-182.45 -149.17)"/></g><g class="cls-2"><path class="cls-3" d="M207.7,201.65" transform="translate(-182.45 -149.17)"/><path class="cls-3" d="M207.7,149.17" transform="translate(-182.45 -149.17)"/></g><g class="cls-2"><path class="cls-3" d="M207.7,201.65" transform="translate(-182.45 -149.17)"/><path class="cls-3" d="M207.7,149.17" transform="translate(-182.45 -149.17)"/></g><g class="cls-2"><path class="cls-3" d="M207.7,201.65" transform="translate(-182.45 -149.17)"/><path class="cls-3" d="M207.7,149.17" transform="translate(-182.45 -149.17)"/></g><path class="cls-1" d="M296.74,149.18a14.23,14.23,0,0,0-14.23,14.23h0a14.23,14.23,0,0,0,28.46,0h0A14.23,14.23,0,0,0,296.74,149.18Zm8,14.23a8.05,8.05,0,1,1-16.1,0h0a8.05,8.05,0,1,1,16.1,0h0Z" transform="translate(-182.45 -149.17)"/><path class="cls-1" d="M377.06,149.18a14.23,14.23,0,0,0-14.23,14.23v23.81a14.23,14.23,0,0,0,28.46,0V163.41A14.23,14.23,0,0,0,377.06,149.18Zm8,38a8.05,8.05,0,0,1-16.11,0V163.37a8.05,8.05,0,0,1,16.11,0h0v23.81h0Z" transform="translate(-182.45 -149.17)"/><path class="cls-3" d="M207.7,201.65" transform="translate(-182.45 -149.17)"/><path class="cls-3" d="M207.7,149.17" transform="translate(-182.45 -149.17)"/><polygon class="cls-3" points="219.41 52.49 241.64 0 248.35 0 226.12 52.49 219.41 52.49"/><polygon class="cls-3" points="233.92 52.49 256.16 0 262.87 0 240.64 52.49 233.92 52.49"/><polygon class="cls-3" points="347.19 0 339.72 0 357.51 26.25 339.72 52.49 347.19 52.49 364.98 26.25 347.19 0"/><polygon class="cls-3" points="17.79 0 25.25 0 7.46 26.25 25.25 52.49 17.79 52.49 0 26.25 17.79 0"/><polygon class="cls-1" points="81.44 0 81.44 0 81.44 0 62.3 33.35 43.16 0 43.16 0 43.16 0 36.98 0 36.98 52.49 43.16 52.49 43.16 12.41 58.74 39.56 62.3 45.77 65.86 39.56 81.5 12.41 81.5 52.49 87.72 52.49 87.72 0 81.44 0"/><path class="cls-1" d="M336.92,195.28a8,8,0,0,1-8-8.05h0V149.17h-6.18v38.06a14.23,14.23,0,0,0,14.23,14.23H351.1v-6.18H336.92Z" transform="translate(-182.45 -149.17)"/><polygon class="cls-1" points="274.6 0 274.6 6.19 280.78 6.19 280.78 52.49 286.96 52.49 286.96 6.19 286.96 0 274.6 0"/><polygon class="cls-1" points="298.68 0 298.68 6.34 318.37 6.34 298.85 52.49 305.76 52.49 328 0 298.68 0"/></g></svg>