<svg xmlns="http://www.w3.org/2000/svg" xmlns:xlink="http://www.w3.org/1999/xlink" viewBox="0 0 1920 959.99"><defs><style>.cls-1{isolation:isolate;}.cls-2{fill:url(#Sfumatura_senza_nome_65);}.cls-3{fill:#fff;}.cls-4{opacity:0.12;}.cls-4,.cls-6{mix-blend-mode:multiply;}.cls-5,.cls-6{fill:#e20613;}</style><linearGradient id="Sfumatura_senza_nome_65" x1="960" y1="959.99" x2="960" gradientUnits="userSpaceOnUse"><stop offset="0" stop-color="#afd3ed"/><stop offset="0.21" stop-color="#5fa7db"/><stop offset="0.36" stop-color="#539cd3"/><stop offset="0.63" stop-color="#3380bd"/><stop offset="1" stop-color="#00519a"/><stop offset="1" stop-color="#00519a"/></linearGradient></defs><title>logo</title><g class="cls-1"><g id="Livello_1" data-name="Livello 1"><rect class="cls-2" width="1920" height="959.99"/><path class="cls-3" d="M253.16,2278.19a4.4,4.4,0,0,1-4.36-2.81h1a3.49,3.49,0,0,0,3.35,1.93c1.6,0,3.61-.53,3.61-2.57,0-1.42-1.11-2.42-3.47-2.42-3,0-4.27-1.38-4.27-3.26,0-2.4,1.62-3.41,4.23-3.41a4.16,4.16,0,0,1,4.15,2.83h-1a3.16,3.16,0,0,0-3.14-1.93c-1.6,0-3.25.47-3.25,2.51,0,1.42.92,2.24,3.3,2.24,3,0,4.46,1.35,4.46,3.44,0,2.4-2,3.45-4.6,3.45" transform="translate(0 -2040)"/><rect class="cls-3" x="266.52" y="225.85" width="1.01" height="12.15"/><polygon class="cls-3" points="285.58 225.85 285.58 232.87 278.56 225.85 277.61 225.85 277.61 238 278.62 238 278.62 227.27 285.58 234.17 285.58 238 286.59 238 286.59 225.85 285.58 225.85"/><path class="cls-3" d="M300.4,2278.19a4.63,4.63,0,0,1-4.6-4.52v-3.47a4.6,4.6,0,0,1,8.95-1.42h-1a3.71,3.71,0,0,0-3.33-2.22,3.62,3.62,0,0,0-3.59,3.51v3.74a3.62,3.62,0,0,0,3.59,3.51,3.71,3.71,0,0,0,3.35-2.32h1a4.7,4.7,0,0,1-4.38,3.2" transform="translate(0 -2040)"/><polygon class="cls-3" points="313.67 225.85 313.67 238 321.19 238 321.19 237.1 314.68 237.1 314.68 232.07 321.19 232.07 321.19 231.17 314.68 231.17 314.68 226.75 321.19 226.75 321.19 225.85 313.67 225.85"/><polygon class="cls-3" points="339.8 225.85 339.8 226.75 343.92 226.75 343.92 238 344.93 238 344.93 226.75 349.06 226.75 349.06 225.85 339.8 225.85"/><path class="cls-3" d="M364.41,2270.08a3.58,3.58,0,0,0-7.16,0v3.74a3.58,3.58,0,0,0,7.16,0v-3.73Zm-3.57,8.11a4.63,4.63,0,0,1-4.6-4.52v-3.45a4.59,4.59,0,0,1,9.18,0v3.47a4.63,4.63,0,0,1-4.58,4.52" transform="translate(0 -2040)"/><polygon class="cls-3" points="384.01 225.85 379.92 230.57 375.8 225.85 374.64 225.85 374.64 238 375.65 238 375.65 227.2 379.92 232.03 384.17 227.2 384.17 238 385.18 238 385.18 225.85 384.01 225.85"/><path class="cls-3" d="M402.55,2270.08a3.58,3.58,0,0,0-7.16,0v3.74a3.58,3.58,0,0,0,7.16,0v-3.73Zm-3.57,8.11a4.64,4.64,0,0,1-4.61-4.52v-3.45a4.59,4.59,0,0,1,9.18,0v3.47a4.63,4.63,0,0,1-4.58,4.52" transform="translate(0 -2040)"/><path class="cls-3" d="M417.54,2266.74h-3.82v5.11h3.82a2.51,2.51,0,0,0,2.43-2.55,2.54,2.54,0,0,0-2.43-2.56m0.58,5.91,2.71,5.34h-1.07l-2.67-5.3h-3.37v5.3h-1v-12.15h5a3.43,3.43,0,0,1,.39,6.8" transform="translate(0 -2040)"/><path class="cls-3" d="M435.31,2266.74h-3.82v5.11h3.82a2.51,2.51,0,0,0,2.44-2.55,2.54,2.54,0,0,0-2.44-2.56m0.59,5.91,2.71,5.34h-1.07l-2.67-5.3h-3.37v5.3h-1v-12.15h5a3.43,3.43,0,0,1,.39,6.8" transform="translate(0 -2040)"/><path class="cls-3" d="M455.57,2270.08a3.58,3.58,0,0,0-7.16,0v3.74a3.58,3.58,0,0,0,7.16,0v-3.73Zm-3.57,8.11a4.64,4.64,0,0,1-4.6-4.52v-3.45a4.59,4.59,0,0,1,9.19,0v3.47a4.63,4.63,0,0,1-4.58,4.52" transform="translate(0 -2040)"/><path class="cls-3" d="M476.72,2278.19a3.5,3.5,0,0,1-3.53-2.77,3.56,3.56,0,0,1-3.55,2.77c-2.46,0-3.91-1.91-3.91-4.39v-8h1v7.93c0,2,1.15,3.53,3,3.53s2.94-1.54,2.94-3.51v-8h1v7.93c0,2,1.09,3.53,2.94,3.53s3-1.54,3-3.51v-8h1v7.93c0,2.49-1.44,4.41-3.9,4.41" transform="translate(0 -2040)"/><g class="cls-4"><path class="cls-5" d="M207.7,2241.65" transform="translate(0 -2040)"/><path class="cls-5" d="M207.7,2189.17" transform="translate(0 -2040)"/></g><g class="cls-4"><path class="cls-6" d="M207.7,2241.65" transform="translate(0 -2040)"/><path class="cls-6" d="M207.7,2189.17" transform="translate(0 -2040)"/></g><g class="cls-4"><path class="cls-6" d="M207.7,2241.65" transform="translate(0 -2040)"/><path class="cls-6" d="M207.7,2189.17" transform="translate(0 -2040)"/></g><g class="cls-4"><path class="cls-6" d="M207.7,2241.65" transform="translate(0 -2040)"/><path class="cls-6" d="M207.7,2189.17" transform="translate(0 -2040)"/></g><g class="cls-4"><path class="cls-5" d="M207.7,2241.65" transform="translate(0 -2040)"/><path class="cls-5" d="M207.7,2189.17" transform="translate(0 -2040)"/></g><g class="cls-4"><path class="cls-6" d="M207.7,2241.65" transform="translate(0 -2040)"/><path class="cls-6" d="M207.7,2189.17" transform="translate(0 -2040)"/></g><path class="cls-3" d="M296.74,2189.18a14.23,14.23,0,0,0-14.23,14.23h0a14.23,14.23,0,0,0,28.46,0h0A14.23,14.23,0,0,0,296.74,2189.18Zm8.05,14.23a8.05,8.05,0,0,1-16.1,0h0a8.05,8.05,0,1,1,16.1,0h0Z" transform="translate(0 -2040)"/><path class="cls-3" d="M377.06,2189.18a14.23,14.23,0,0,0-14.23,14.23v23.81a14.23,14.23,0,0,0,28.46,0v-23.81A14.23,14.23,0,0,0,377.06,2189.18Zm8.05,38a8.05,8.05,0,0,1-16.11,0v-23.81a8.05,8.05,0,0,1,16.11,0h0v23.81h0Z" transform="translate(0 -2040)"/><path class="cls-5" d="M207.7,2241.65" transform="translate(0 -2040)"/><path class="cls-5" d="M207.7,2189.17" transform="translate(0 -2040)"/><polygon class="cls-5" points="401.86 201.66 424.09 149.17 430.8 149.17 408.57 201.66 401.86 201.66"/><polygon class="cls-5" points="416.37 201.66 438.61 149.17 445.32 149.17 423.09 201.66 416.37 201.66"/><polygon class="cls-5" points="529.64 149.17 522.17 149.17 539.96 175.42 522.17 201.66 529.64 201.66 547.43 175.42 529.64 149.17"/><polygon class="cls-5" points="200.24 149.17 207.7 149.17 189.91 175.42 207.7 201.66 200.24 201.66 182.45 175.42 200.24 149.17"/><polygon class="cls-3" points="263.89 149.17 263.89 149.17 263.89 149.17 244.75 182.52 225.61 149.17 225.61 149.17 225.61 149.17 219.43 149.17 219.43 201.66 225.61 201.66 225.61 161.58 241.19 188.73 244.75 194.94 248.31 188.73 263.95 161.58 263.95 201.66 270.17 201.66 270.17 149.17 263.89 149.17"/><path class="cls-3" d="M336.92,2235.28a8.05,8.05,0,0,1-8.05-8.05v-38.06h-6.18v38.06a14.23,14.23,0,0,0,14.23,14.23H351.1v-6.18H336.92Z" transform="translate(0 -2040)"/><polygon class="cls-3" points="457.05 149.17 457.05 155.36 463.23 155.36 463.23 201.66 469.41 201.66 469.41 155.36 469.41 149.17 457.05 149.17"/><polygon class="cls-3" points="481.13 149.17 481.13 155.51 500.82 155.51 481.3 201.66 488.21 201.66 510.45 149.17 481.13 149.17"/></g></g></svg>